<svg width="178" height="41" viewBox="0 0 178 41" fill="none" xmlns="http://www.w3.org/2000/svg"><path d="M20.134 41c11.12 0 20.135-9.178 20.135-20.5S31.254 0 20.134 0C9.014 0 0 9.178 0 20.5S9.014 41 20.134 41z" fill="#E2EBEE"/><path d="M37.15 22.886l-2.62 1.54-3.767 2.215-2.11 1.24-18.11 10.646a20.26 20.26 0 0 1-5.322-4.256V4.117c0-.96.588-1.714 1.359-2.021a2.07 2.07 0 0 1 1.835.143l1.26.741 14.884 8.75 6.204 3.647 2.457 1.444 3.93 2.31c1.42.834 1.42 2.92 0 3.755z" fill="#7ADBA3"/><path d="M34.528 24.426L30.76 26.64l-2.11 1.24-2.876-3.008H9.634L24.557 11.73l2.272-2.002c2.987 0 5.543 2.185 6.06 5.181l.329 1.912 1.31 7.605z" fill="#2C8DB6"/><path d="M26.63 22.949h-7.808l-6.657 6.963c-1.807 1.89-4.928.265-4.48-2.333l2.183-12.67c.516-2.995 3.072-5.18 6.059-5.18h10.702c3.586 0 6.493 2.959 6.493 6.61 0 3.65-2.907 6.61-6.493 6.61z" fill="#4AB8E6"/><path d="M19.601 15.711h-2.424v-2.468h-1.89v2.468h-2.425v1.925h2.425v2.468h1.89v-2.468H19.6V15.71zm6.864-.376c.635 0 1.15-.525 1.15-1.172a1.16 1.16 0 0 0-1.15-1.171c-.636 0-1.151.524-1.151 1.171s.515 1.172 1.15 1.172zm0 4.818c.635 0 1.15-.525 1.15-1.172a1.16 1.16 0 0 0-1.15-1.171c-.636 0-1.151.524-1.151 1.171s.515 1.172 1.15 1.172zm2.365-2.409c.636 0 1.152-.525 1.152-1.172 0-.647-.516-1.171-1.151-1.171-.636 0-1.15.524-1.15 1.171s.514 1.172 1.15 1.172zm-4.732 0a1.16 1.16 0 0 0 1.15-1.172 1.16 1.16 0 0 0-1.15-1.171c-.635 0-1.15.524-1.15 1.171s.515 1.172 1.15 1.172z" fill="#fff"/><path d="M53.303 35.924V31.28h3.484v-.642h-4.262v5.287h.779z" fill="#132539"/><path d="M59.514 32.986v2.938h.719v-3.928h-.668l-2.705 2.946v-2.946h-.719v3.928h.66l2.713-2.938zm5.714 2.938v-3.928h-3.955v3.928h.72v-3.331h2.516v3.331h.719zm4.485-1.125c-.274.355-.77.596-1.293.596-.932 0-1.583-.453-1.626-1.23h3.51a2.69 2.69 0 0 0 .042-.477c0-.536-.197-.967-.582-1.291-.385-.325-.882-.491-1.472-.491-.72 0-1.275.188-1.67.574-.401.385-.598.876-.598 1.473 0 .619.214 1.11.65 1.48.437.37 1.01.559 1.72.559.78 0 1.37-.272 1.781-.816l-.462-.377zm-1.472-2.312c.796 0 1.3.408 1.344 1.103h-2.8c.112-.665.643-1.103 1.456-1.103zm3.623 4.948v-1.843c.3.264.753.4 1.352.4.651 0 1.182-.196 1.601-.597.411-.4.617-.899.617-1.503 0-.589-.189-1.065-.574-1.435-.385-.37-.908-.551-1.558-.551-.66 0-1.139.196-1.438.581v-.49h-.719v5.438h.72zm1.361-4.933c.89 0 1.446.56 1.446 1.435 0 .431-.145.779-.428 1.05-.282.272-.65.408-1.087.408-.607 0-1.035-.204-1.292-.612v-1.465c.206-.445.71-.816 1.361-.816zm3.721 3.422v-2.81l1.575 1.813 1.507-1.813v2.81h.719v-3.928h-.617l-1.6 1.919-1.644-1.919h-.659v3.928h.72zm5.19-2.984c.437-.294.882-.438 1.327-.438.882 0 1.19.408 1.19 1.171a4.07 4.07 0 0 0-1.044-.113c-1.336 0-2.132.393-2.132 1.216 0 .725.651 1.2 1.618 1.2.72 0 1.275-.271 1.558-.633v.581h.719V33.5c0-1.02-.633-1.593-1.823-1.593-.66 0-1.37.219-1.78.559l.367.475zm1.13 2.463c-.616 0-1.027-.25-1.027-.65 0-.423.488-.634 1.464-.634.385 0 .702.038.95.113v.4c-.094.19-.257.37-.505.53a1.618 1.618 0 0 1-.882.24zm3.819 2.032v-1.843c.3.264.754.4 1.352.4.651 0 1.182-.196 1.601-.597.411-.4.617-.899.617-1.503 0-.589-.189-1.065-.574-1.435-.385-.37-.907-.551-1.558-.551-.659 0-1.138.196-1.438.581v-.49h-.719v5.438h.72zm1.361-4.933c.89 0 1.446.56 1.446 1.435 0 .431-.145.779-.427 1.05-.283.272-.65.408-1.087.408-.608 0-1.036-.204-1.293-.612v-1.465c.206-.445.71-.816 1.361-.816zm3.721 3.422v-1.428l.368-.302 2.003 1.73h.959l-2.414-2.122 2.303-1.806h-.968l-2.25 1.76v-1.76h-.72v3.928h.72zm7.019-1.125c-.275.355-.77.596-1.293.596-.933 0-1.583-.453-1.627-1.23h3.51c.026-.144.043-.303.043-.477 0-.536-.197-.967-.582-1.291-.385-.325-.882-.491-1.472-.491-.72 0-1.276.188-1.67.574-.402.385-.599.876-.599 1.473 0 .619.214 1.11.65 1.48.437.37 1.011.559 1.721.559.78 0 1.37-.272 1.78-.816l-.461-.377zm-1.473-2.312c.796 0 1.301.408 1.344 1.103h-2.799c.111-.665.642-1.103 1.455-1.103zm3.969.106v3.331h.719v-3.331h1.72v-.597h-4.142v.597h1.703zm5.736 4.283v-.952h3.663v.952h.685V35.32h-.642v-3.324h-3.269v.363c0 1.488-.172 2.349-.625 2.96h-.497v1.557h.685zm2.987-4.275v2.719H108c.351-.627.53-1.443.53-2.447V32.6h1.875zm5.851 3.323v-3.928h-3.322v.808c0 2.297-.479 2.516-1.053 2.516v.604c.557.06.959-.09 1.284-.544.326-.453.488-1.33.488-2.598V32.6h1.884v3.323h.719zm2.817-3.928c-1.335 0-1.926.514-1.926 1.262 0 .604.454 1.065 1.139 1.178l-1.421 1.488h.873l1.318-1.39h1.087v1.39h.719v-3.928h-1.789zm-1.163 1.277c0-.446.359-.672 1.078-.672h1.155v1.329h-1.172c-.651 0-1.061-.272-1.061-.657zm7.282 2.651v-3.331h2.525v-.597h-3.244v3.928h.719zm6.35-1.125c-.274.355-.77.596-1.293.596-.933 0-1.583-.453-1.626-1.23h3.51a2.76 2.76 0 0 0 .042-.477c0-.536-.196-.967-.582-1.291-.385-.325-.881-.491-1.472-.491-.719 0-1.275.188-1.669.574-.402.385-.599.876-.599 1.473 0 .619.214 1.11.65 1.48.437.37 1.01.559 1.721.559.779 0 1.369-.272 1.78-.816l-.462-.377zm-1.472-2.312c.796 0 1.3.408 1.344 1.103h-2.799c.111-.665.642-1.103 1.455-1.103zm6.276.499v2.938h.719v-3.928h-.667l-2.705 2.946v-2.946h-.719v3.928h.659l2.713-2.938zm-2.687-2.682c.009.695.582 1.126 1.438 1.126.796 0 1.403-.438 1.412-1.126h-.676c0 .37-.283.62-.736.62-.479 0-.754-.25-.762-.62h-.676zm5.166 5.62v-2.81l1.575 1.813 1.507-1.813v2.81h.719v-3.928h-.616l-1.601 1.919-1.644-1.919h-.659v3.928h.719zm8.289-1.125c-.274.355-.771.596-1.292.596-.934 0-1.584-.453-1.627-1.23h3.509a2.67 2.67 0 0 0 .044-.477c0-.536-.198-.967-.583-1.291-.385-.325-.881-.491-1.472-.491-.719 0-1.275.188-1.669.574-.402.385-.599.876-.599 1.473 0 .619.214 1.11.651 1.48.436.37 1.009.559 1.72.559.779 0 1.369-.272 1.78-.816l-.462-.377zm-1.472-2.312c.796 0 1.301.408 1.343 1.103h-2.798c.111-.665.642-1.103 1.455-1.103zm3.624 4.948v-1.843c.299.264.752.4 1.352.4.65 0 1.181-.196 1.6-.597.411-.4.616-.899.616-1.503 0-.589-.188-1.065-.573-1.435-.385-.37-.907-.551-1.558-.551-.659 0-1.138.196-1.437.581v-.49h-.719v5.438h.719zm1.36-4.933c.891 0 1.447.56 1.447 1.435 0 .431-.146.779-.428 1.05-.283.272-.651.408-1.087.408-.608 0-1.036-.204-1.292-.612v-1.465c.204-.445.71-.816 1.36-.816zm2.754 1.451c0 .596.223 1.08.659 1.465.437.385 1.002.574 1.695.574.693 0 1.267-.189 1.712-.574.437-.385.659-.869.659-1.465a1.88 1.88 0 0 0-.659-1.473c-.437-.386-1.01-.574-1.712-.574-.693 0-1.258.188-1.695.574a1.883 1.883 0 0 0-.659 1.473zm.762 0c0-.43.154-.786.454-1.05.299-.265.675-.4 1.138-.4.462 0 .847.135 1.155.4.3.272.454.62.454 1.05 0 .43-.146.778-.445 1.042-.299.264-.693.4-1.164.4s-.847-.136-1.147-.408a1.339 1.339 0 0 1-.445-1.034zm6.747 1.971c1.172 0 1.831-.393 1.831-1.125 0-.506-.24-.816-.719-.944.385-.204.574-.491.574-.854 0-.725-.582-1.005-1.823-1.005h-1.849v3.928h1.986zm.008-1.715c.711 0 1.061.19 1.061.56 0 .377-.385.566-1.146.566h-1.19v-1.126h1.275zm-.171-1.623c.719 0 1.087.105 1.087.506 0 .355-.317.543-.839.543h-1.352v-1.05h1.104zm10.492-1.949h-.727v4.101l-3.535-4.101h-.591v5.287h.727v-4.071l3.527 4.071h.599v-5.287zm.565 1.593c0 .378.146.688.436.93.283.241.651.362 1.088.362.453 0 .821-.12 1.104-.362.282-.242.428-.552.428-.93 0-.385-.146-.694-.428-.936-.283-.234-.651-.355-1.104-.355-.446 0-.813.12-1.096.355a1.177 1.177 0 0 0-.428.936zm.924-.543a.917.917 0 0 1 .6-.204c.479 0 .856.302.856.747 0 .446-.368.74-.856.74a.917.917 0 0 1-.6-.203.674.674 0 0 1-.248-.537.7.7 0 0 1 .248-.543zm1.892 2.855v-.59h-2.576v.59h2.576zm1.133-2.5l1.532-.627v4.51H178v-5.318h-.488l-2.054.868.274.567z" fill="#132539"/><path d="M64.815 9.208v13.24h2.229v-17.1h-1.91l-10.381 13.24V5.348h-2.228v17.1h1.885l10.405-13.24zm7.619 13.24V11.675h7.223v-1.93h-9.28v12.703h2.057zm10.832 4.885v-5.96c.856.855 2.154 1.294 3.868 1.294 1.86 0 3.379-.635 4.578-1.93 1.175-1.294 1.763-2.906 1.763-4.86 0-1.906-.539-3.445-1.64-4.642-1.102-1.197-2.596-1.783-4.456-1.783-1.885 0-3.257.635-4.114 1.88V9.746H81.21v17.588h2.056zm3.892-15.951c2.546 0 4.138 1.807 4.138 4.641 0 1.392-.416 2.516-1.224 3.396-.808.879-1.861 1.319-3.11 1.319-1.738 0-2.962-.66-3.697-1.979v-4.74c.588-1.44 2.033-2.637 3.893-2.637zm7.878 4.69c0 1.93.636 3.493 1.885 4.739s2.865 1.857 4.848 1.857c1.983 0 3.623-.611 4.897-1.857 1.248-1.246 1.885-2.81 1.885-4.74 0-1.929-.637-3.517-1.885-4.763-1.249-1.246-2.89-1.856-4.897-1.856-1.983 0-3.6.61-4.848 1.856-1.249 1.246-1.885 2.834-1.885 4.764zm2.179 0c0-1.393.44-2.54 1.298-3.396.856-.855 1.934-1.294 3.256-1.294 1.322 0 2.424.44 3.305 1.294.857.88 1.298 2.003 1.298 3.396 0 1.392-.416 2.516-1.273 3.371-.858.855-1.983 1.295-3.33 1.295s-2.424-.44-3.28-1.32c-.858-.879-1.274-2.003-1.274-3.346z" fill="#4AB8E6"/><path d="M113.116 22.923V9.29l6.033 8.084h.539l5.86-8.084v13.633h2.232V5.348h-2.011l-6.302 8.837-6.522-8.837h-2.06v17.575h2.231zm18.953-9.918c1.251-.979 2.526-1.456 3.8-1.456 2.526 0 3.409 1.356 3.409 3.892-.809-.251-1.79-.377-2.991-.377-3.826 0-6.106 1.306-6.106 4.043 0 2.41 1.863 3.992 4.634 3.992 2.06 0 3.654-.904 4.463-2.11v1.934h2.06v-8.06c0-3.389-1.815-5.297-5.223-5.297-1.888 0-3.923.728-5.101 1.858l1.055 1.582zm3.237 8.185c-1.766 0-2.943-.828-2.943-2.159 0-1.406 1.398-2.109 4.193-2.109 1.103 0 2.011.126 2.722.377v1.33c-.27.628-.736 1.23-1.446 1.758-.712.527-1.57.803-2.526.803zm10.94 1.733V11.85h7.234V9.867h-9.294v13.056h2.06zm9.338-9.918c1.25-.979 2.526-1.456 3.801-1.456 2.525 0 3.408 1.356 3.408 3.892-.809-.251-1.79-.377-2.992-.377-3.825 0-6.105 1.306-6.105 4.043 0 2.41 1.863 3.992 4.634 3.992 2.06 0 3.654-.904 4.463-2.11v1.934h2.06v-8.06c0-3.389-1.815-5.297-5.223-5.297-1.888 0-3.924.728-5.1 1.858l1.054 1.582zm3.236 8.185c-1.765 0-2.942-.828-2.942-2.159 0-1.406 1.398-2.109 4.193-2.109 1.104 0 2.011.126 2.722.377v1.33c-.27.628-.736 1.23-1.447 1.758-.711.527-1.569.803-2.526.803zm13.491 1.984c1.667 0 3.041-.377 4.095-1.155 1.055-.753 1.594-1.783 1.594-3.113 0-1.381-.515-2.26-1.986-2.988 1.005-.628 1.52-1.582 1.52-2.812 0-2.184-1.888-3.565-5.1-3.565-2.673 0-4.634 1.255-5.493 2.761l1.521 1.03c.956-1.23 2.231-1.833 3.775-1.833 1.84 0 3.115.703 3.115 1.933 0 1.13-.981 1.883-2.232 1.883h-2.844v1.909h2.992c1.691 0 2.55.577 2.55 1.732 0 1.406-1.447 2.26-3.482 2.26-1.888 0-3.458-.854-4.169-2.185l-1.618 1.155c1.201 1.984 3.139 2.988 5.762 2.988z" fill="#132539"/></svg>