<svg width="42" height="42" viewBox="0 0 42 42" fill="none" xmlns="http://www.w3.org/2000/svg">
<g clip-path="url(#clip0_7355_3195)">
<path d="M21 42C32.598 42 42 32.598 42 21C42 9.40202 32.598 0 21 0C9.40202 0 0 9.40202 0 21C0 32.598 9.40202 42 21 42Z" fill="#334C8C"/>
<path d="M26.3211 19.0133L25.9729 21.9367C25.9579 22.0725 25.8931 22.1979 25.7911 22.2887C25.689 22.3796 25.5569 22.4294 25.4203 22.4286H22.3808V31.1049C22.3816 31.2085 22.3413 31.3081 22.2688 31.3822C22.1964 31.4562 22.0976 31.4985 21.994 31.5H18.8965C18.845 31.4993 18.7941 31.4884 18.7467 31.468C18.6994 31.4476 18.6566 31.4181 18.6206 31.3812C18.5847 31.3442 18.5564 31.3006 18.5374 31.2527C18.5183 31.2048 18.5089 31.1536 18.5096 31.1021L18.5262 22.4286H16.2245C16.0779 22.4286 15.9374 22.3703 15.8337 22.2667C15.7301 22.1631 15.6719 22.0225 15.6719 21.8759V18.9525C15.6719 18.8059 15.7301 18.6654 15.8337 18.5617C15.9374 18.4581 16.0779 18.3999 16.2245 18.3999H18.5124V15.5649C18.5124 12.285 20.4632 10.5 23.3203 10.5H25.6607C25.8073 10.5 25.9478 10.5582 26.0515 10.6619C26.1551 10.7655 26.2133 10.9061 26.2133 11.0526V13.5146C26.2133 13.6612 26.1551 13.8017 26.0515 13.9054C25.9478 14.009 25.8073 14.0672 25.6607 14.0672H24.2266C22.6737 14.0921 22.3808 14.8354 22.3808 15.9462V18.3916H25.7823C25.8599 18.3929 25.9363 18.4106 26.0066 18.4434C26.077 18.4763 26.1396 18.5235 26.1904 18.5822C26.2412 18.6408 26.2792 18.7095 26.3017 18.7838C26.3242 18.8581 26.3308 18.9363 26.3211 19.0133V19.0133Z" fill="white"/>
</g>
<defs>
<clipPath id="clip0_7355_3195">
<rect width="42" height="42" fill="white"/>
</clipPath>
</defs>
</svg>
