<svg width="42" height="42" viewBox="0 0 42 42" fill="none" xmlns="http://www.w3.org/2000/svg"><g clip-path="url(#a)"><path d="M21 42c11.598 0 21-9.402 21-21S32.598 0 21 0 0 9.402 0 21s9.402 21 21 21z" fill="#334C8C"/><path d="M26.321 19.013l-.348 2.924a.553.553 0 0 1-.553.492h-3.04v8.676a.392.392 0 0 1-.386.395h-3.098a.392.392 0 0 1-.386-.398l.016-8.673h-2.302a.553.553 0 0 1-.552-.553v-2.924a.553.553 0 0 1 .552-.552h2.288v-2.835c0-3.28 1.951-5.065 4.808-5.065h2.34a.553.553 0 0 1 .553.553v2.462a.553.553 0 0 1-.552.552h-1.434c-1.553.025-1.846.768-1.846 1.88v2.445h3.401a.552.552 0 0 1 .54.621z" fill="#fff"/></g><defs><clipPath id="a"><path fill="#fff" d="M0 0h42v42H0z"/></clipPath></defs></svg>