<svg width="42" height="42" viewBox="0 0 42 42" fill="none" xmlns="http://www.w3.org/2000/svg"><g clip-path="url(#a)"><path d="M21 42c11.598 0 21-9.402 21-21S32.598 0 21 0 0 9.402 0 21s9.402 21 21 21z" fill="#00A6DE"/><path d="M31.458 14.645a8.865 8.865 0 0 1-1.799 1.976.768.768 0 0 0-.276.6v.068a12.596 12.596 0 0 1-.813 4.383 12.836 12.836 0 0 1-2.39 4.006A11.807 11.807 0 0 1 21 29.102a12.98 12.98 0 0 1-4.074.633c-2.193 0-4.348-.581-6.244-1.683a.36.36 0 0 1-.172-.398.345.345 0 0 1 .338-.26h.524a8.356 8.356 0 0 0 4.681-1.42 4.537 4.537 0 0 1-3.592-3.084.238.238 0 0 1 .277-.306c.25.047.506.071.762.071h.097a4.54 4.54 0 0 1-2.644-4.175.238.238 0 0 1 .35-.207c.324.181.672.316 1.034.4a4.538 4.538 0 0 1-.732-5.503.238.238 0 0 1 .39-.034 11.863 11.863 0 0 0 8.153 4.36h.022a.173.173 0 0 0 .158-.116.171.171 0 0 0 .008-.069 4.8 4.8 0 0 1 .105-1.657 4.396 4.396 0 0 1 2.957-3.162 4.839 4.839 0 0 1 1.434-.22 4.52 4.52 0 0 1 2.995 1.13.585.585 0 0 0 .39.149.596.596 0 0 0 .138-.02 8.293 8.293 0 0 0 2.21-.914.235.235 0 0 1 .346.276 4.485 4.485 0 0 1-1.191 1.898 8.34 8.34 0 0 0 1.448-.489.238.238 0 0 1 .29.343z" fill="#fff"/></g><defs><clipPath id="a"><path fill="#fff" d="M0 0h42v42H0z"/></clipPath></defs></svg>