<svg width="42" height="42" viewBox="0 0 42 42" fill="none" xmlns="http://www.w3.org/2000/svg">
<g clip-path="url(#clip0_7355_3200)">
<path d="M21 42C32.598 42 42 32.598 42 21C42 9.40202 32.598 0 21 0C9.40202 0 0 9.40202 0 21C0 32.598 9.40202 42 21 42Z" fill="#00A6DE"/>
<path d="M31.4579 14.645C30.9615 15.3907 30.355 16.0568 29.659 16.6207C29.5713 16.6938 29.501 16.7856 29.4532 16.8893C29.4054 16.993 29.3813 17.1061 29.3827 17.2203V17.2894C29.3746 18.7869 29.0995 20.2709 28.5704 21.6718C28.0251 23.1421 27.215 24.5 26.1802 25.6783C24.7897 27.2614 23.0008 28.4434 20.9993 29.1019C19.6841 29.5287 18.3091 29.7424 16.9264 29.7346C14.7328 29.7344 12.5784 29.1538 10.6817 28.0519C10.6137 28.0132 10.5602 27.9535 10.5293 27.8817C10.4984 27.8099 10.4917 27.7299 10.5104 27.654C10.5295 27.5793 10.5731 27.5131 10.6342 27.466C10.6952 27.419 10.7703 27.3937 10.8475 27.3942H11.3725C13.0395 27.3983 14.6696 26.9037 16.0532 25.974C15.2287 25.8405 14.4569 25.4819 13.8231 24.9378C13.1893 24.3937 12.718 23.6852 12.4611 22.8903C12.448 22.8505 12.4456 22.8079 12.4542 22.7669C12.4628 22.7259 12.4822 22.6878 12.5102 22.6567C12.5383 22.6256 12.5741 22.6024 12.614 22.5895C12.6539 22.5767 12.6965 22.5747 12.7375 22.5836C12.9889 22.6309 13.2442 22.655 13.5001 22.6554H13.5968C12.7998 22.2893 12.126 21.7002 11.6567 20.9592C11.1875 20.2183 10.9428 19.3573 10.9525 18.4803C10.9527 18.4393 10.9637 18.399 10.9841 18.3634C11.0046 18.3279 11.0339 18.2982 11.0692 18.2773C11.1046 18.2565 11.1447 18.2451 11.1858 18.2444C11.2268 18.2436 11.2673 18.2535 11.3034 18.2731C11.6275 18.454 11.9754 18.5889 12.3368 18.6737C11.6224 17.9669 11.1629 17.0429 11.0303 16.0467C10.8978 15.0505 11.0998 14.0385 11.6046 13.1695C11.6237 13.1361 11.6506 13.1079 11.683 13.0872C11.7154 13.0665 11.7524 13.054 11.7907 13.0507C11.829 13.0475 11.8675 13.0536 11.903 13.0685C11.9384 13.0834 11.9697 13.1067 11.9942 13.1364C12.9922 14.372 14.2282 15.3947 15.6289 16.1437C17.0296 16.8927 18.5664 17.3528 20.1482 17.4966H20.1704C20.1936 17.4959 20.2165 17.4905 20.2375 17.4808C20.2586 17.471 20.2775 17.457 20.293 17.4397C20.3085 17.4223 20.3203 17.402 20.3278 17.38C20.3352 17.358 20.338 17.3347 20.3361 17.3115C20.2745 16.757 20.31 16.1959 20.4411 15.6536C20.6194 14.9164 20.9854 14.2379 21.5035 13.684C22.0215 13.1301 22.6741 12.7196 23.3977 12.4925C23.862 12.3475 24.3454 12.273 24.8318 12.2715C25.9347 12.2702 26.9999 12.6722 27.8271 13.4016C27.9342 13.4975 28.0729 13.5506 28.2167 13.5508C28.2633 13.5498 28.3097 13.5433 28.3548 13.5315C29.132 13.3351 29.8766 13.027 30.5654 12.6169C30.6066 12.5915 30.6546 12.5794 30.703 12.5823C30.7513 12.5853 30.7976 12.6031 30.8354 12.6334C30.8732 12.6636 30.9007 12.7048 30.9142 12.7513C30.9277 12.7979 30.9265 12.8474 30.9107 12.8932C30.6808 13.6165 30.271 14.2697 29.7198 14.7915C30.2164 14.6731 30.7011 14.5094 31.1677 14.3024C31.2138 14.2846 31.2642 14.2816 31.3121 14.2938C31.3599 14.3061 31.4028 14.3329 31.4347 14.3705C31.4666 14.4082 31.4859 14.4549 31.4901 14.5041C31.4942 14.5533 31.483 14.6025 31.4579 14.645V14.645Z" fill="white"/>
</g>
<defs>
<clipPath id="clip0_7355_3200">
<rect width="42" height="42" fill="white"/>
</clipPath>
</defs>
</svg>
