<svg width="42" height="42" viewBox="0 0 42 42" fill="none" xmlns="http://www.w3.org/2000/svg"><g clip-path="url(#a)"><path d="M21 42c11.598 0 21-9.402 21-21S32.598 0 21 0 0 9.402 0 21s9.402 21 21 21z" fill="#F20000"/><path d="M31.01 15.95c-.42-1.304-1.81-2.075-3.1-2.255a65.448 65.448 0 0 0-13.838 0c-1.279.18-2.669.961-3.089 2.255a26.235 26.235 0 0 0 0 10.105c.431 1.301 1.821 2.075 3.112 2.254 4.6.487 9.238.487 13.838 0 1.279-.18 2.669-.964 3.089-2.255.65-3.337.647-6.769-.011-10.104zm-12.52 9.074v-8.046L25.043 21c-2.208 1.356-4.352 2.677-6.551 4.023z" fill="#fff"/></g><defs><clipPath id="a"><path fill="#fff" d="M0 0h42v42H0z"/></clipPath></defs></svg>