<svg width="42" height="42" viewBox="0 0 42 42" fill="none" xmlns="http://www.w3.org/2000/svg">
<g clip-path="url(#clip0_7355_3205)">
<path d="M21 42C32.598 42 42 32.598 42 21C42 9.40202 32.598 0 21 0C9.40202 0 0 9.40202 0 21C0 32.598 9.40202 42 21 42Z" fill="#F20000"/>
<path d="M31.0107 15.9497C30.5907 14.6455 29.2008 13.8745 27.9104 13.6949C23.3108 13.2059 18.6722 13.2059 14.0725 13.6949C12.7932 13.8745 11.4033 14.6565 10.9833 15.9497C10.3285 19.2861 10.3285 22.7181 10.9833 26.0545C11.4144 27.356 12.8042 28.1297 14.0946 28.3093C18.6945 28.7956 23.3327 28.7956 27.9325 28.3093C29.2119 28.1297 30.6017 27.3449 31.0217 26.0545C31.6729 22.7174 31.6692 19.2854 31.0107 15.9497V15.9497ZM18.4908 25.0239V16.9776L25.0423 21.0007C22.8345 22.3574 20.6903 23.6782 18.4908 25.0239Z" fill="white"/>
</g>
<defs>
<clipPath id="clip0_7355_3205">
<rect width="42" height="42" fill="white"/>
</clipPath>
</defs>
</svg>
