<svg width="42" height="42" viewBox="0 0 42 42" fill="none" xmlns="http://www.w3.org/2000/svg"><g clip-path="url(#a)"><path d="M21 42c11.598 0 21-9.402 21-21S32.598 0 21 0 0 9.402 0 21s9.402 21 21 21z" fill="#4065D6"/><path d="M30.684 27.001c-.492.07-2.882 0-3.007 0a2.351 2.351 0 0 1-1.657-.66c-.506-.487-.962-1.023-1.446-1.528a4.348 4.348 0 0 0-.472-.429c-.395-.3-.785-.232-.97.232a8.82 8.82 0 0 0-.298 1.54.829.829 0 0 1-.86.795c-.326.017-.652.025-.975.017a7.46 7.46 0 0 1-3.38-.83 9.24 9.24 0 0 1-2.887-2.525 30.54 30.54 0 0 1-3.2-5.25c-.047-.093-.978-2.075-1-2.166a.552.552 0 0 1 .257-.718c.166-.064 3.236 0 3.285 0a1.072 1.072 0 0 1 1.031.743 16.026 16.026 0 0 0 2.302 4.029c.134.165.29.309.467.428a.352.352 0 0 0 .591-.18c.122-.4.193-.812.213-1.23.016-.828 0-1.38-.047-2.21a1.075 1.075 0 0 0-.998-1.136c-.243-.04-.276-.24-.107-.439.323-.412.77-.478 1.257-.503.735-.041 1.473 0 2.21 0h.16c.325 0 .648.032.965.097a.878.878 0 0 1 .7.785c.036.209.053.42.049.633-.02.903-.064 1.807-.075 2.713-.006.358.026.716.097 1.067.108.48.437.602.774.251.42-.45.805-.933 1.152-1.442a14.39 14.39 0 0 0 1.53-2.97c.213-.537.376-.656.954-.656h3.258c.194-.003.388.023.574.078a.498.498 0 0 1 .343.64 5.4 5.4 0 0 1-.962 1.907c-.663.937-1.359 1.852-2.039 2.764a3.495 3.495 0 0 0-.235.373c-.254.458-.235.718.133 1.105.591.608 1.224 1.18 1.793 1.804.42.455.8.946 1.133 1.467.42.675.163 1.293-.613 1.404z" fill="#fff"/></g><defs><clipPath id="a"><path fill="#fff" d="M0 0h42v42H0z"/></clipPath></defs></svg>