<svg width="42" height="42" viewBox="0 0 42 42" fill="none" xmlns="http://www.w3.org/2000/svg">
<g clip-path="url(#clip0_7355_3210)">
<path d="M21 42C32.598 42 42 32.598 42 21C42 9.40202 32.598 0 21 0C9.40202 0 0 9.40202 0 21C0 32.598 9.40202 42 21 42Z" fill="#4065D6"/>
<path d="M30.6838 27.001C30.1919 27.0701 27.8018 27.001 27.6774 27.001C27.0595 27.0073 26.4639 26.7701 26.0196 26.3407C25.5139 25.8543 25.058 25.3183 24.5744 24.8126C24.4276 24.6585 24.2697 24.5153 24.1019 24.3843C23.7068 24.0832 23.3172 24.1522 23.1321 24.6164C22.9871 25.1196 22.8872 25.6347 22.8336 26.1555C22.825 26.3749 22.7297 26.582 22.5686 26.7312C22.4074 26.8804 22.1937 26.9595 21.9743 26.9513C21.6482 26.9679 21.3222 26.9762 20.9989 26.9679C19.8229 26.9618 18.6649 26.6777 17.6196 26.1389C16.491 25.5083 15.5073 24.6479 14.7321 23.6134C13.4916 21.9755 12.4196 20.2166 11.5323 18.3634C11.4853 18.2695 10.5542 16.2883 10.5321 16.1971C10.4743 16.0673 10.4688 15.9202 10.5167 15.7864C10.5645 15.6526 10.6621 15.5424 10.789 15.4787C10.9548 15.4151 14.0247 15.4787 14.0744 15.4787C14.303 15.4765 14.5263 15.5475 14.7117 15.6812C14.8972 15.8149 15.035 16.0044 15.1051 16.222C15.6728 17.6694 16.4482 19.0265 17.4068 20.2507C17.5405 20.4156 17.6979 20.56 17.8738 20.6789C17.9191 20.7227 17.9753 20.7536 18.0366 20.7683C18.0978 20.7831 18.1619 20.7812 18.2222 20.7629C18.2825 20.7446 18.3368 20.7105 18.3795 20.6642C18.4222 20.6178 18.4517 20.5609 18.4651 20.4993C18.5865 20.0998 18.658 19.6868 18.6778 19.2697C18.6944 18.4408 18.6778 17.8882 18.6309 17.0592C18.6476 16.7767 18.5522 16.499 18.3655 16.2864C18.1787 16.0738 17.9157 15.9434 17.6334 15.9235C17.3902 15.8821 17.3571 15.6832 17.5256 15.4842C17.8489 15.0725 18.2965 15.0062 18.7828 14.9813C19.5178 14.9399 20.2556 14.9813 20.9934 14.9813H21.1536C21.4775 14.9805 21.8007 15.0129 22.118 15.078C22.3035 15.116 22.4718 15.2129 22.5978 15.3544C22.7237 15.4958 22.8007 15.6741 22.8171 15.8628C22.8543 16.0715 22.871 16.2835 22.8668 16.4955C22.8474 17.3991 22.8032 18.3026 22.7922 19.2089C22.7856 19.5669 22.818 19.9246 22.8889 20.2755C22.9967 20.7563 23.3255 20.8779 23.6626 20.527C24.0827 20.0761 24.4678 19.5939 24.8148 19.0846C25.4387 18.1573 25.9524 17.1604 26.3456 16.1142C26.5584 15.5782 26.7214 15.4593 27.2989 15.4593H30.5567C30.751 15.4561 30.9448 15.4822 31.1314 15.5367C31.1973 15.5543 31.2588 15.5852 31.3122 15.6275C31.3656 15.6699 31.4098 15.7227 31.4419 15.7828C31.474 15.8429 31.4935 15.909 31.499 15.977C31.5045 16.0449 31.496 16.1132 31.474 16.1778C31.2836 16.8709 30.9566 17.5191 30.5124 18.0843C29.8493 19.021 29.153 19.9357 28.4732 20.8475C28.3872 20.9668 28.3088 21.0914 28.2384 21.2205C27.9842 21.6792 28.0035 21.9389 28.371 22.3258C28.9623 22.9337 29.5951 23.5057 30.1643 24.1301C30.5841 24.5852 30.9631 25.0761 31.2972 25.5974C31.7172 26.2716 31.4602 26.8905 30.6838 27.001V27.001Z" fill="white"/>
</g>
<defs>
<clipPath id="clip0_7355_3210">
<rect width="42" height="42" fill="white"/>
</clipPath>
</defs>
</svg>
