<svg width="50" height="36" viewBox="0 0 50 36" fill="none" xmlns="http://www.w3.org/2000/svg">
<path d="M48.3027 16.0966L44.898 14.6231L42.0068 8.99689C41.2254 7.45639 39.6402 6.49637 37.91 6.50753H32.9312V5.10099C32.9312 2.55582 30.8996 0.479492 28.3544 0.479492H4.55481C2.00964 0.479492 0.000297025 2.56698 0.000297025 5.10099V26.6456C-0.022029 28.1973 1.21707 29.4699 2.76873 29.4922C2.77989 29.4922 2.79105 29.4922 2.81338 29.4922H3.40502C3.40502 29.6038 3.39386 29.6485 3.39386 29.7155C3.3827 32.9081 5.96136 35.5091 9.15398 35.5202C12.3466 35.5314 14.9476 32.9527 14.9588 29.7601C14.9588 29.7378 14.9588 29.7266 14.9588 29.7043C14.9588 29.6262 14.9588 29.5927 14.9476 29.481H34.1815C34.1815 29.5927 34.1815 29.6373 34.1815 29.7043C34.1703 32.8969 36.749 35.4979 39.9416 35.5091C43.1343 35.5202 45.7352 32.9416 45.7464 29.749C45.7464 29.7266 45.7464 29.7155 45.7464 29.6931C45.7464 29.615 45.7464 29.5815 45.7464 29.4699H47.1864C48.7381 29.4699 49.9995 28.2085 49.9995 26.6568C49.9995 26.6456 49.9995 26.6345 49.9995 26.6121V18.6864C50.0218 17.5924 49.3521 16.5543 48.3027 16.0966ZM9.18747 33.2988C7.22278 33.2988 5.63763 31.7137 5.63763 29.749C5.63763 27.7843 7.22278 26.1991 9.18747 26.1991C11.1522 26.1991 12.7373 27.7843 12.7373 29.749C12.7373 31.7025 11.141 33.2988 9.18747 33.2988ZM30.6986 27.2819H14.4229C13.4852 25.2391 11.4312 23.933 9.18747 23.9442C6.93254 23.933 4.8897 25.2279 3.95201 27.2819H2.81338C2.46733 27.2819 2.2329 27.014 2.2329 26.668V20.919H30.6986V27.2819ZM30.6986 5.11215V18.6864H2.2329V5.11215C2.2329 3.80608 3.24874 2.72326 4.55481 2.72326H28.3544C29.6605 2.73442 30.7098 3.80608 30.6986 5.10099V5.11215ZM32.9312 8.7513H37.91C38.7918 8.74014 39.6179 9.22015 40.0309 10.0127L42.2635 14.3328H32.9312V8.7513ZM39.9751 33.2988C38.0104 33.2988 36.4253 31.7137 36.4253 29.749C36.4253 27.7843 38.0104 26.1991 39.9751 26.1991C41.9398 26.1991 43.525 27.7843 43.525 29.749C43.525 31.7025 41.9398 33.2988 39.9751 33.2988ZM47.7781 26.668C47.7781 27.014 47.5436 27.2819 47.1976 27.2819H45.2106C43.8598 24.3907 40.4216 23.1404 37.5304 24.4912C36.3025 25.0605 35.309 26.054 34.7397 27.2819H32.9312V16.5654H43.871L47.4209 18.1282C47.6441 18.2399 47.7892 18.4855 47.7781 18.731V26.668Z" fill="#4AB8E6"/>
</svg>
