<svg width="50" height="36" viewBox="0 0 50 36" fill="none" xmlns="http://www.w3.org/2000/svg"><path d="M48.303 16.097l-3.405-1.474-2.891-5.626a4.553 4.553 0 0 0-4.097-2.49h-4.979V5.102C32.931 2.557 30.9.48 28.354.48h-23.8C2.01.48 0 2.567 0 5.101v21.545a2.806 2.806 0 0 0 2.769 2.846h.636c0 .112-.011.156-.011.223a5.784 5.784 0 0 0 11.565.045v-.056c0-.078 0-.111-.011-.223H34.18v.223a5.784 5.784 0 0 0 11.565.045v-.279h1.44A2.816 2.816 0 0 0 50 26.657v-7.971c.023-1.094-.647-2.132-1.696-2.59zM9.187 33.299a3.544 3.544 0 0 1-3.55-3.55 3.545 3.545 0 0 1 3.55-3.55 3.545 3.545 0 0 1 3.55 3.55 3.559 3.559 0 0 1-3.55 3.55zM30.7 27.282H14.423a5.736 5.736 0 0 0-5.236-3.338 5.705 5.705 0 0 0-5.235 3.338H2.813c-.346 0-.58-.268-.58-.614v-5.749h28.466v6.363zm0-22.17v13.574H2.233V5.112c0-1.306 1.016-2.389 2.322-2.389h23.8a2.365 2.365 0 0 1 2.344 2.378v.011zm2.232 3.64h4.979a2.356 2.356 0 0 1 2.12 1.26l2.233 4.32h-9.332v-5.58zm7.044 24.547a3.544 3.544 0 0 1-3.55-3.55 3.545 3.545 0 0 1 3.55-3.55 3.545 3.545 0 0 1 3.55 3.55 3.552 3.552 0 0 1-3.55 3.55zm7.803-6.631c0 .346-.234.614-.58.614H45.21a5.778 5.778 0 0 0-10.471 0H32.93V16.565h10.94l3.55 1.563a.657.657 0 0 1 .357.603v7.937z" fill="#4AB8E6"/></svg>