<svg width="50" height="40" viewBox="0 0 50 40" fill="none" xmlns="http://www.w3.org/2000/svg">
<path d="M49.0234 29.8664H48.0469V5.25098C48.0469 2.55859 45.8564 0.368164 43.1641 0.368164H6.83594C4.14355 0.368164 1.95312 2.55859 1.95312 5.25098V29.8665H0.976562C0.437305 29.8665 0 30.3037 0 30.8431V34.7493C0 37.4417 2.19043 39.6321 4.88281 39.6321H45.1172C47.8096 39.6321 50 37.4417 50 34.7493V30.8431C50 30.3036 49.5627 29.8664 49.0234 29.8664ZM3.90625 5.25098C3.90625 3.63555 5.22051 2.32129 6.83594 2.32129H43.1641C44.7795 2.32129 46.0938 3.63555 46.0938 5.25098V29.8665H43.75V5.6416C43.75 5.10225 43.3127 4.66504 42.7734 4.66504H29.3945C28.8553 4.66504 28.418 5.10225 28.418 5.6416C28.418 6.18096 28.8553 6.61816 29.3945 6.61816H41.7969V29.8665H38.1026L38.8988 29.4068C39.1231 29.2773 39.2868 29.0641 39.3538 28.8139C39.4209 28.5637 39.3857 28.2971 39.2563 28.0729L36.1509 22.6942L37.3084 22.026C37.6105 21.8516 37.7967 21.5292 37.7967 21.1803C37.7967 20.8313 37.6105 20.509 37.3084 20.3346L29.3496 15.7395C29.0475 15.5651 28.6752 15.5651 28.373 15.7395C28.0709 15.914 27.8848 16.2363 27.8848 16.5853V25.7753C27.8848 26.1242 28.0709 26.4466 28.373 26.621C28.6752 26.7954 29.0475 26.7954 29.3496 26.621L30.507 25.9527L32.7666 29.8665H8.20312V6.61816H20.6055C21.1447 6.61816 21.582 6.18096 21.582 5.6416C21.582 5.10225 21.1447 4.66504 20.6055 4.66504H7.22656C6.6873 4.66504 6.25 5.10225 6.25 5.6416V29.8665H3.90625V5.25098ZM33.9712 22.825L37.0766 28.2036L34.8155 29.509L31.7102 24.1304C31.5807 23.9061 31.3674 23.7424 31.1172 23.6754C31.034 23.6531 30.9491 23.6421 30.8645 23.6421C30.6945 23.6421 30.5259 23.6865 30.3762 23.7729L29.8379 24.0837V18.2766L34.867 21.1801L34.3286 21.4909C33.8615 21.7606 33.7016 22.358 33.9712 22.825ZM48.0469 34.7492C48.0469 36.3647 46.7326 37.6789 45.1172 37.6789H4.88281C3.26738 37.6789 1.95312 36.3647 1.95312 34.7492V31.8195H48.0469V34.7492Z" fill="#4AB8E6"/>
<path d="M28.8633 33.7725H21.1406C20.6014 33.7725 20.1641 34.2097 20.1641 34.749C20.1641 35.2884 20.6014 35.7256 21.1406 35.7256H28.8633C29.4025 35.7256 29.8398 35.2884 29.8398 34.749C29.8398 34.2097 29.4026 33.7725 28.8633 33.7725Z" fill="#4AB8E6"/>
<path d="M11.5234 13.1035C11.5234 13.6429 11.9607 14.0801 12.5 14.0801H23.6003C24.1396 14.0801 24.5769 13.6429 24.5769 13.1035C24.5769 12.5642 24.1396 12.127 23.6003 12.127H12.5C11.9607 12.127 11.5234 12.5642 11.5234 13.1035Z" fill="#4AB8E6"/>
<path d="M23.6003 17.2051H12.5C11.9607 17.2051 11.5234 17.6423 11.5234 18.1816C11.5234 18.721 11.9607 19.1582 12.5 19.1582H23.6003C24.1396 19.1582 24.5769 18.721 24.5769 18.1816C24.5769 17.6423 24.1396 17.2051 23.6003 17.2051Z" fill="#4AB8E6"/>
<path d="M19.1895 22.2832H12.5C11.9607 22.2832 11.5234 22.7204 11.5234 23.2598C11.5234 23.7991 11.9607 24.2363 12.5 24.2363H19.1895C19.7287 24.2363 20.166 23.7991 20.166 23.2598C20.166 22.7204 19.7287 22.2832 19.1895 22.2832Z" fill="#4AB8E6"/>
<path d="M25 6.61816C25.2568 6.61816 25.5088 6.51367 25.6903 6.33203C25.872 6.15039 25.9766 5.89844 25.9766 5.6416C25.9766 5.38477 25.8721 5.13281 25.6903 4.95117C25.5088 4.76953 25.2568 4.66504 25 4.66504C24.7432 4.66504 24.4912 4.76953 24.3096 4.95117C24.1279 5.13281 24.0234 5.38477 24.0234 5.6416C24.0234 5.89844 24.1278 6.15039 24.3096 6.33203C24.4912 6.51367 24.7432 6.61816 25 6.61816Z" fill="#4AB8E6"/>
</svg>
