<svg width="50" height="40" viewBox="0 0 50 40" fill="none" xmlns="http://www.w3.org/2000/svg"><path d="M49.023 29.866h-.976V5.251A4.888 4.888 0 0 0 43.164.368H6.836a4.888 4.888 0 0 0-4.883 4.883v24.615H.977a.977.977 0 0 0-.977.977v3.906a4.888 4.888 0 0 0 4.883 4.883h40.234A4.888 4.888 0 0 0 50 34.75v-3.906a.977.977 0 0 0-.977-.977zM3.906 5.251a2.933 2.933 0 0 1 2.93-2.93h36.328a2.933 2.933 0 0 1 2.93 2.93v24.615H43.75V5.642a.977.977 0 0 0-.977-.977H29.394a.977.977 0 0 0 0 1.953h12.403v23.248h-3.694l.796-.46a.976.976 0 0 0 .357-1.333l-3.105-5.379 1.157-.668a.977.977 0 0 0 0-1.691l-7.958-4.596a.977.977 0 0 0-1.465.846v9.19a.976.976 0 0 0 1.465.846l1.157-.668 2.26 3.913H8.203V6.618h12.402a.977.977 0 0 0 0-1.953H7.227a.977.977 0 0 0-.977.977v24.224H3.906V5.252zm30.065 17.574l3.106 5.379-2.261 1.305-3.106-5.379a.976.976 0 0 0-1.334-.357l-.538.31v-5.806l5.029 2.903-.538.31a.977.977 0 0 0-.358 1.335zm14.076 11.924a2.933 2.933 0 0 1-2.93 2.93H4.883a2.933 2.933 0 0 1-2.93-2.93v-2.93h46.094v2.93z" fill="#4AB8E6"/><path d="M28.863 33.773h-7.722a.977.977 0 0 0 0 1.953h7.722a.977.977 0 0 0 0-1.953zm-17.34-20.669c0 .539.438.976.977.976h11.1a.977.977 0 0 0 0-1.953H12.5a.977.977 0 0 0-.977.976zM23.6 17.205H12.5a.977.977 0 1 0 0 1.953h11.1a.977.977 0 0 0 0-1.953zm-4.41 5.078H12.5a.977.977 0 0 0 0 1.953h6.69a.977.977 0 0 0 0-1.953zM25 6.618a.983.983 0 0 0 .69-.286.984.984 0 0 0 .287-.69.983.983 0 0 0-.287-.69.983.983 0 0 0-.69-.287.984.984 0 0 0-.69.286.984.984 0 0 0-.287.69c0 .257.105.51.287.691a.984.984 0 0 0 .69.286z" fill="#4AB8E6"/></svg>