<svg width="50" height="50" viewBox="0 0 50 50" fill="none" xmlns="http://www.w3.org/2000/svg">
<g clip-path="url(#clip0_7064_3235)">
<path d="M40.4297 14.5264C40.9689 14.5264 41.4062 14.0892 41.4062 13.5498V2.92969C41.4062 1.31426 40.092 0 38.4766 0H2.92969C1.31426 0 0 1.31426 0 2.92969V47.0703C0 48.6857 1.31426 50 2.92969 50H38.4766C40.092 50 41.4062 48.6857 41.4062 47.0703V39.8758C41.4062 39.3364 40.9689 38.8992 40.4297 38.8992C39.8904 38.8992 39.4531 39.3364 39.4531 39.8758V47.0703C39.4531 47.6088 39.015 48.0469 38.4766 48.0469H2.92969C2.39121 48.0469 1.95312 47.6088 1.95312 47.0703V2.92969C1.95312 2.39121 2.39121 1.95312 2.92969 1.95312H38.4766C39.015 1.95312 39.4531 2.39121 39.4531 2.92969V13.5498C39.4531 14.0892 39.8904 14.5264 40.4297 14.5264Z" fill="#4AB8E6"/>
<path d="M20.7031 5.27344C15.7491 5.27344 11.7188 9.30381 11.7188 14.2578C11.7188 16.8278 12.8037 19.1489 14.5393 20.788C14.5718 20.8228 14.6063 20.8557 14.6441 20.8856C16.2429 22.3484 18.3705 23.2421 20.703 23.2421C23.0355 23.2421 25.1632 22.3483 26.7619 20.8856C26.7997 20.8557 26.8343 20.8227 26.8668 20.788C28.6025 19.1489 29.6875 16.8278 29.6875 14.2578C29.6875 9.30381 25.6571 5.27344 20.7031 5.27344ZM20.7031 21.2891C19.1085 21.2891 17.6368 20.7547 16.456 19.8566C17.3143 18.3347 18.9159 17.3828 20.7031 17.3828C22.4903 17.3828 24.092 18.3347 24.9503 19.8566C23.7693 20.7547 22.2978 21.2891 20.7031 21.2891ZM19.1406 13.8672V13.2324C19.1406 12.3709 19.8416 11.6699 20.7031 11.6699C21.5646 11.6699 22.2656 12.3709 22.2656 13.2324V13.8672C22.2656 14.7287 21.5646 15.4297 20.7031 15.4297C19.8416 15.4297 19.1406 14.7287 19.1406 13.8672ZM26.3613 18.4261C25.6411 17.3579 24.643 16.5271 23.4841 16.0143C23.944 15.4198 24.2188 14.6752 24.2188 13.8672V13.2324C24.2188 11.2938 22.6417 9.7168 20.7031 9.7168C18.7646 9.7168 17.1875 11.2938 17.1875 13.2324V13.8672C17.1875 14.6752 17.4622 15.4198 17.9222 16.0143C16.7633 16.5271 15.7651 17.3579 15.0449 18.4261C14.1827 17.2588 13.6719 15.8171 13.6719 14.2578C13.6719 10.3808 16.8261 7.22656 20.7031 7.22656C24.5802 7.22656 27.7344 10.3808 27.7344 14.2578C27.7344 15.8171 27.2235 17.2588 26.3613 18.4261Z" fill="#4AB8E6"/>
<path d="M25.9766 42.7734H20.7031C20.1639 42.7734 19.7266 43.2106 19.7266 43.75C19.7266 44.2894 20.1639 44.7266 20.7031 44.7266H25.9766C26.5158 44.7266 26.9531 44.2894 26.9531 43.75C26.9531 43.2106 26.5158 42.7734 25.9766 42.7734Z" fill="#4AB8E6"/>
<path d="M25.9766 37.3047H12.1094C11.5701 37.3047 11.1328 37.7419 11.1328 38.2812C11.1328 38.8206 11.5701 39.2578 12.1094 39.2578H25.9766C26.5158 39.2578 26.9531 38.8206 26.9531 38.2812C26.9531 37.7419 26.5158 37.3047 25.9766 37.3047Z" fill="#4AB8E6"/>
<path d="M25.9766 31.8359H12.1094C11.5701 31.8359 11.1328 32.2731 11.1328 32.8125C11.1328 33.3519 11.5701 33.7891 12.1094 33.7891H25.9766C26.5158 33.7891 26.9531 33.3519 26.9531 32.8125C26.9531 32.2731 26.5158 31.8359 25.9766 31.8359Z" fill="#4AB8E6"/>
<path d="M8.62881 26.6533C8.44727 26.4717 8.19531 26.3672 7.9375 26.3672C7.68057 26.3672 7.42861 26.4717 7.24707 26.6533C7.06543 26.835 6.96094 27.0869 6.96094 27.3438C6.96094 27.6006 7.06533 27.8525 7.24707 28.0342C7.42969 28.2158 7.68057 28.3203 7.9375 28.3203C8.19531 28.3203 8.44629 28.2158 8.62881 28.0342C8.81045 27.8525 8.91504 27.6006 8.91504 27.3438C8.91504 27.0869 8.81055 26.835 8.62881 26.6533Z" fill="#4AB8E6"/>
<path d="M8.62881 32.1221C8.44629 31.9404 8.19531 31.8359 7.9375 31.8359C7.68057 31.8359 7.42969 31.9404 7.24707 32.1221C7.06543 32.3037 6.96094 32.5557 6.96094 32.8125C6.96094 33.0693 7.06533 33.3213 7.24707 33.5029C7.42969 33.6846 7.68057 33.7891 7.9375 33.7891C8.19531 33.7891 8.44629 33.6846 8.62881 33.5029C8.81045 33.3213 8.91504 33.0693 8.91504 32.8125C8.91504 32.5557 8.81055 32.3037 8.62881 32.1221Z" fill="#4AB8E6"/>
<path d="M8.62881 37.5908C8.44629 37.4092 8.19531 37.3047 7.9375 37.3047C7.68057 37.3047 7.42969 37.4092 7.24707 37.5908C7.06543 37.7725 6.96094 38.0244 6.96094 38.2812C6.96094 38.5381 7.06533 38.79 7.24707 38.9717C7.42861 39.1533 7.68057 39.2578 7.9375 39.2578C8.19531 39.2578 8.44727 39.1533 8.62881 38.9717C8.81045 38.79 8.91504 38.5381 8.91504 38.2812C8.91504 38.0244 8.81055 37.7725 8.62881 37.5908Z" fill="#4AB8E6"/>
<path d="M25.9766 26.3672H12.1094C11.5701 26.3672 11.1328 26.8044 11.1328 27.3438C11.1328 27.8831 11.5701 28.3203 12.1094 28.3203H25.9766C26.5158 28.3203 26.9531 27.8831 26.9531 27.3438C26.9531 26.8044 26.5158 26.3672 25.9766 26.3672Z" fill="#4AB8E6"/>
<path d="M47.9505 12.727C47.0017 12.1793 45.8965 12.0338 44.8381 12.3173C43.7799 12.6009 42.8953 13.2796 42.3476 14.2283L30.0584 35.5138C29.9911 35.6304 29.9485 35.7598 29.9336 35.8937L29.0685 43.6422C29.0256 44.0277 29.2148 44.4022 29.5508 44.5963C29.7024 44.6838 29.8709 44.7271 30.0389 44.7271C30.2432 44.7271 30.4468 44.6632 30.6181 44.5369L36.8959 39.9135C37.0044 39.8336 37.0952 39.7321 37.1625 39.6154L49.4516 18.33C50.5825 16.3714 49.9091 13.8579 47.9505 12.727ZM31.2572 41.6405L31.709 37.5944L34.5353 39.2262L31.2572 41.6405ZM35.9594 37.793L32.2382 35.6446L42.1 18.5636L45.8212 20.712L35.9594 37.793ZM47.7602 17.3533L46.7976 19.0206L43.0764 16.8722L44.039 15.2049C44.326 14.7079 44.7892 14.3524 45.3435 14.2039C45.898 14.0553 46.4769 14.1316 46.9738 14.4185C47.4708 14.7055 47.8262 15.1687 47.9748 15.723C48.1233 16.2773 48.0471 16.8563 47.7602 17.3533Z" fill="#4AB8E6"/>
</g>
<defs>
<clipPath id="clip0_7064_3235">
<rect width="50" height="50" fill="white"/>
</clipPath>
</defs>
</svg>
