<svg width="50" height="50" viewBox="0 0 50 50" fill="none" xmlns="http://www.w3.org/2000/svg"><g clip-path="url(#a)" fill="#4AB8E6"><path d="M40.43 14.526a.976.976 0 0 0 .976-.976V2.93A2.933 2.933 0 0 0 38.476 0H2.93A2.933 2.933 0 0 0 0 2.93v44.14A2.933 2.933 0 0 0 2.93 50h35.547a2.933 2.933 0 0 0 2.93-2.93v-7.194a.977.977 0 1 0-1.954 0v7.194a.978.978 0 0 1-.976.977H2.93a.978.978 0 0 1-.977-.977V2.93c0-.539.438-.977.977-.977h35.547c.538 0 .976.438.976.977v10.62c0 .54.437.976.977.976z"/><path d="M20.703 5.273c-4.954 0-8.984 4.03-8.984 8.985a8.96 8.96 0 0 0 2.82 6.53 8.95 8.95 0 0 0 6.164 2.454 8.95 8.95 0 0 0 6.164-2.454 8.96 8.96 0 0 0 2.82-6.53c0-4.954-4.03-8.985-8.984-8.985zm0 16.016a6.993 6.993 0 0 1-4.247-1.432 4.851 4.851 0 0 1 4.247-2.474c1.787 0 3.389.952 4.247 2.474a6.994 6.994 0 0 1-4.247 1.432zm-1.562-7.422v-.635a1.563 1.563 0 0 1 3.125 0v.635c0 .862-.701 1.563-1.563 1.563a1.564 1.564 0 0 1-1.562-1.563zm7.22 4.56a6.774 6.774 0 0 0-2.877-2.413c.46-.594.735-1.339.735-2.147v-.635a3.52 3.52 0 0 0-3.516-3.515 3.52 3.52 0 0 0-3.515 3.515v.635c0 .808.274 1.553.734 2.147a6.774 6.774 0 0 0-2.877 2.412 6.993 6.993 0 0 1-1.373-4.168 7.04 7.04 0 0 1 7.031-7.031 7.04 7.04 0 0 1 7.031 7.03c0 1.56-.51 3.002-1.373 4.17zm-.384 24.346h-5.274a.977.977 0 0 0 0 1.954h5.274a.977.977 0 0 0 0-1.954zm0-5.468H12.109a.977.977 0 1 0 0 1.953h13.868a.977.977 0 0 0 0-1.953zm0-5.469H12.109a.977.977 0 0 0 0 1.953h13.868a.977.977 0 0 0 0-1.953zM8.629 26.653a.984.984 0 0 0-.691-.286.984.984 0 0 0-.69.286.984.984 0 0 0-.287.69c0 .258.104.51.286.691a.986.986 0 0 0 .69.286.986.986 0 0 0 .692-.286.984.984 0 0 0 .286-.69.984.984 0 0 0-.286-.69zm0 5.469a.986.986 0 0 0-.691-.286.985.985 0 0 0-.69.286.984.984 0 0 0-.287.69c0 .257.104.51.286.69a.985.985 0 0 0 .69.287.986.986 0 0 0 .692-.286.984.984 0 0 0 .286-.69.984.984 0 0 0-.286-.69zm0 5.468a.986.986 0 0 0-.691-.285.986.986 0 0 0-.69.286.984.984 0 0 0-.287.69.98.98 0 0 0 .286.69.984.984 0 0 0 .69.287c.258 0 .51-.105.692-.286a.984.984 0 0 0 .286-.69.984.984 0 0 0-.286-.691zm17.348-11.223H12.109a.977.977 0 0 0 0 1.953h13.868a.977.977 0 0 0 0-1.953zm21.973-13.64a4.075 4.075 0 0 0-3.112-.41 4.075 4.075 0 0 0-2.49 1.911l-12.29 21.286a.976.976 0 0 0-.124.38l-.866 7.748a.977.977 0 0 0 1.55.895l6.278-4.623a.98.98 0 0 0 .267-.299L49.452 18.33a4.106 4.106 0 0 0-1.502-5.603zM31.257 41.641l.452-4.047 2.826 1.632-3.278 2.415zm4.702-3.848l-3.72-2.148L42.1 18.564l3.721 2.148-9.862 17.081zm11.801-20.44l-.962 1.668-3.722-2.149.963-1.667c.287-.497.75-.853 1.304-1.001a2.134 2.134 0 0 1 1.63.214c.498.288.853.75 1.002 1.305a2.135 2.135 0 0 1-.215 1.63z"/></g><defs><clipPath id="a"><path fill="#fff" d="M0 0h50v50H0z"/></clipPath></defs></svg>