<svg width="38" height="50" viewBox="0 0 38 50" fill="none" xmlns="http://www.w3.org/2000/svg">
<path d="M25.6348 16.9406L21.6593 16.3633L19.8811 12.7598C19.785 12.565 19.6274 12.4075 19.4326 12.3113C18.9435 12.0697 18.3511 12.2705 18.1095 12.7598L16.3314 16.3633L12.3547 16.9406C12.1394 16.9717 11.9404 17.0728 11.7886 17.2285C11.4075 17.619 11.4153 18.2445 11.8059 18.6254L14.6827 21.4299L14.0033 25.3901C13.9938 25.4451 13.9891 25.501 13.9891 25.5568C13.9891 26.1024 14.4313 26.5447 14.9769 26.5447C15.1374 26.5435 15.2953 26.5033 15.4369 26.4272L18.9932 24.5613L22.5495 26.4272C22.7417 26.5291 22.9622 26.5647 23.1767 26.5286C23.7147 26.4377 24.0771 25.9281 23.9863 25.3901L23.3069 21.4299L26.1838 18.6254C26.3394 18.4736 26.4406 18.2746 26.4717 18.0594C26.5494 17.5193 26.1748 17.0184 25.6348 16.9406ZM21.5539 20.3695C21.3198 20.5972 21.2135 20.9259 21.2696 21.2476L21.6977 23.7469L19.4531 22.5669C19.311 22.4937 19.1532 22.456 18.9932 22.4571C18.8327 22.4583 18.6748 22.4986 18.5332 22.5746L16.2887 23.7546L16.7178 21.2553C16.774 20.9336 16.6677 20.6049 16.4336 20.3772L14.6181 18.6067L17.1272 18.2423C17.449 18.1957 17.7273 17.9938 17.8714 17.7023L18.9932 15.4281L20.115 17.7023C20.259 17.9938 20.5374 18.1958 20.8592 18.2423L23.3694 18.6001L21.5539 20.3695Z" fill="#4AB8E6"/>
<path d="M18.9959 6.74023C11.8962 6.74023 6.14062 12.4958 6.14062 19.5955C6.14062 26.6952 11.8962 32.4507 18.9959 32.4507C26.0924 32.4428 31.8433 26.692 31.8511 19.5955C31.8511 12.4958 26.0956 6.74023 18.9959 6.74023ZM18.9959 30.475C12.9873 30.475 8.11632 25.6041 8.11632 19.5955C8.11632 13.5869 12.9873 8.71593 18.9959 8.71593C25.0018 8.72262 29.8687 13.5897 29.8754 19.5955C29.8754 25.6042 25.0045 30.475 18.9959 30.475Z" fill="#4AB8E6"/>
<path d="M37.0892 22.2596L35.2408 22.9588C35.5284 23.7194 35.8862 24.6656 35.7633 25.0443C35.6249 25.4702 34.7875 26.0157 34.0476 26.4975C33.1695 27.0705 32.1707 27.7203 31.4847 28.6642C30.7987 29.6082 30.4749 30.7771 30.1971 31.7979C29.9776 32.6003 29.7076 33.5991 29.3575 33.8537C29.0073 34.1084 27.9931 34.0524 27.1623 34.0129C26.1009 33.9624 24.8979 33.9031 23.7663 34.2741C22.6687 34.6297 21.7566 35.3717 20.9487 36.0226C20.2561 36.5825 19.4702 37.2169 18.9972 37.2169C18.5242 37.2169 17.7382 36.5825 17.0446 36.0205C16.2367 35.3674 15.3214 34.6276 14.2281 34.2731C13.6025 34.07 12.9011 33.9757 12.0198 33.9757C11.6125 33.9757 11.2141 33.9943 10.83 34.013C10.0057 34.0525 8.98048 34.1009 8.64136 33.8539C8.30225 33.6069 8.02011 32.5982 7.80061 31.7958C7.52292 30.7739 7.209 29.617 6.51417 28.6621C5.81934 27.7072 4.83043 27.0694 3.9501 26.4954C3.21145 26.0136 2.37393 25.468 2.23559 25.0422C2.11263 24.6657 2.47158 23.7185 2.75919 22.9567C3.14011 21.9502 3.5703 20.8098 3.5703 19.5958C3.5703 18.3818 3.13888 17.2414 2.75808 16.2349C2.47047 15.4743 2.11263 14.5269 2.23447 14.1494C2.37282 13.7235 3.21023 13.178 3.9501 12.6951C4.8282 12.1221 5.82591 11.4723 6.51305 10.5295C7.20019 9.58665 7.52281 8.41659 7.80061 7.3958C8.02011 6.59339 8.2901 5.59456 8.64025 5.33995C8.9904 5.08534 10.0046 5.1413 10.83 5.18076C11.8913 5.23126 13.0955 5.29056 14.2326 4.91957C15.3302 4.56396 16.2412 3.82197 17.0501 3.17106C17.7373 2.60911 18.5232 1.9757 18.9962 1.9757C19.4692 1.9757 20.2552 2.609 20.9477 3.17095C21.7556 3.82398 22.6709 4.56385 23.7653 4.91946C24.898 5.28711 26.102 5.23003 27.1679 5.18065C27.9921 5.14219 29.0174 5.09392 29.3565 5.33984C29.6956 5.58575 29.9723 6.59216 30.1918 7.39569C30.4695 8.41759 30.7834 9.57449 31.4782 10.5294C32.173 11.4843 33.162 12.1232 34.0423 12.6961C34.781 13.1779 35.6185 13.7234 35.7579 14.1493C35.8809 14.5268 35.5219 15.4741 35.2343 16.2348C34.8534 17.2413 34.4221 18.3828 34.4221 19.5957C34.4221 20.8085 34.8535 21.9501 35.2343 22.9566L36.1584 22.6075L37.0826 22.2585C36.7302 21.3278 36.3977 20.4486 36.3977 19.5957C36.3977 18.7428 36.727 17.8637 37.0815 16.9328C37.5392 15.7254 37.9727 14.5762 37.6357 13.539C37.2812 12.4491 36.1825 11.7335 35.12 11.0409C34.3517 10.5371 33.5482 10.0168 33.0752 9.36704C32.6021 8.71724 32.342 7.7766 32.0972 6.87765C31.7514 5.6066 31.4255 4.40577 30.5134 3.74282C29.6013 3.07987 28.3774 3.14576 27.0691 3.20718C26.1328 3.2511 25.1636 3.29714 24.3745 3.0403C23.6282 2.79773 22.896 2.20612 22.1891 1.63425C21.1913 0.830946 20.1683 0 18.9961 0C17.8239 0 16.8009 0.830946 15.8021 1.63547C15.0952 2.20735 14.3631 2.79784 13.6167 3.04041C12.8275 3.29614 11.901 3.25333 10.9221 3.20729C9.61366 3.14587 8.37783 3.08768 7.47666 3.74294C6.57548 4.39819 6.2386 5.60883 5.8928 6.87877C5.648 7.77772 5.39561 8.70743 4.91481 9.36815C4.43402 10.0289 3.64376 10.5382 2.87 11.042C1.80752 11.7346 0.708807 12.4503 0.354311 13.5402C0.017318 14.5774 0.45085 15.7222 0.908573 16.9351C1.25984 17.8659 1.59237 18.745 1.59237 19.5968C1.59237 20.4486 1.26307 21.3277 0.908573 22.2596C0.45085 23.467 0.017318 24.6174 0.354311 25.6534C0.708807 26.7444 1.80752 27.4601 2.87 28.1527C3.6383 28.6565 4.44182 29.1767 4.9137 29.8265C5.38569 30.4763 5.64688 31.417 5.89168 32.3159C6.10237 33.093 6.30771 33.8438 6.64359 34.4617L2.6417 44.6959C2.44327 45.2042 2.69443 45.777 3.20265 45.9755C3.35403 46.0346 3.51768 46.0554 3.67899 46.0361L9.27678 45.3666L12.933 49.6539C13.2874 50.0687 13.911 50.1176 14.3258 49.7631C14.4505 49.6565 14.5467 49.5205 14.6058 49.3674L18.5957 39.1596C18.8613 39.2038 19.1324 39.2038 19.3981 39.1596L23.3868 49.3674C23.5856 49.8755 24.1586 50.1262 24.6667 49.9274C24.8183 49.8681 24.9528 49.7723 25.0585 49.6484L28.7147 45.3611L34.3125 46.0307C34.8543 46.0948 35.3454 45.7074 35.4095 45.1656C35.4284 45.0066 35.4082 44.8454 35.3509 44.6959L31.3475 34.4596C31.6833 33.8417 31.8874 33.0909 32.0994 32.3138C32.3431 31.4149 32.5954 30.4851 33.0773 29.8244C33.5591 29.1637 34.3484 28.6544 35.1222 28.1506C36.1846 27.458 37.2845 26.7423 37.6379 25.6524C37.9748 24.6151 37.5424 23.4714 37.0892 22.2596ZM13.3619 47.1162L10.4346 43.6817C10.2199 43.4304 9.89358 43.303 9.56528 43.3426L5.08259 43.8794L8.23169 35.8251C9.01648 36.0754 9.94831 36.0314 10.9208 35.9854C11.283 35.9678 11.6574 35.9503 12.0184 35.9503C12.6857 35.9503 13.194 36.0139 13.6166 36.1512C14.3629 36.3937 15.094 36.9842 15.8019 37.5572C16.1312 37.8218 16.4605 38.0885 16.7985 38.3255L13.3619 47.1162ZM32.9094 43.8794L28.4278 43.3426C28.0994 43.3034 27.773 43.431 27.5585 43.6828L24.63 47.1173L21.1912 38.3276C21.5293 38.0884 21.8607 37.8216 22.1878 37.5593C22.8946 36.9875 23.6267 36.397 24.3732 36.1544C25.1613 35.8987 26.0865 35.9415 27.0689 35.9875C28.0512 36.0337 28.9732 36.0764 29.758 35.8272L32.9094 43.8794Z" fill="#4AB8E6"/>
</svg>
