<svg width="38" height="50" viewBox="0 0 38 50" fill="none" xmlns="http://www.w3.org/2000/svg"><path d="M25.635 16.94l-3.976-.577-1.778-3.603a.987.987 0 0 0-1.771 0l-1.779 3.603-3.976.578a.988.988 0 0 0-.55 1.684l2.878 2.805-.68 3.96a.988.988 0 0 0 .974 1.155.987.987 0 0 0 .46-.118l3.556-1.866 3.556 1.866a.989.989 0 0 0 1.437-1.037l-.68-3.96 2.878-2.805a.988.988 0 0 0-.55-1.684zm-4.081 3.43a.988.988 0 0 0-.284.878l.428 2.499-2.245-1.18a.99.99 0 0 0-.92.008l-2.244 1.18.429-2.5a.988.988 0 0 0-.284-.878l-1.816-1.77 2.51-.365a.988.988 0 0 0 .743-.54l1.122-2.274 1.122 2.274a.988.988 0 0 0 .744.54l2.51.358-1.815 1.77z" fill="#4AB8E6"/><path d="M18.996 6.74c-7.1 0-12.855 5.756-12.855 12.856S11.896 32.45 18.996 32.45c7.096-.008 12.847-5.759 12.855-12.855 0-7.1-5.755-12.856-12.855-12.856zm0 23.735c-6.009 0-10.88-4.87-10.88-10.88 0-6.008 4.871-10.88 10.88-10.88 6.006.008 10.873 4.875 10.88 10.88 0 6.01-4.872 10.88-10.88 10.88z" fill="#4AB8E6"/><path d="M37.09 22.26l-1.85.699c.288.76.646 1.707.523 2.085-.138.426-.975.972-1.715 1.453-.879.573-1.877 1.223-2.563 2.167-.686.944-1.01 2.113-1.288 3.134-.22.802-.49 1.801-.84 2.056-.35.254-1.364.198-2.195.159-1.061-.05-2.264-.11-3.396.261-1.097.356-2.01 1.098-2.817 1.749-.693.56-1.479 1.194-1.952 1.194-.473 0-1.259-.634-1.952-1.197-.808-.653-1.724-1.392-2.817-1.747-.626-.203-1.327-.297-2.208-.297-.407 0-.806.018-1.19.037-.824.04-1.85.088-2.189-.16-.339-.246-.62-1.255-.84-2.057-.278-1.022-.592-2.179-1.287-3.134-.695-.955-1.684-1.593-2.564-2.167-.739-.481-1.576-1.027-1.714-1.453-.123-.376.236-1.324.523-2.085.381-1.007.811-2.147.811-3.361 0-1.214-.431-2.355-.812-3.361-.288-.76-.645-1.708-.524-2.086.139-.425.976-.971 1.716-1.454.878-.573 1.876-1.223 2.563-2.165.687-.943 1.01-2.113 1.288-3.134.22-.803.49-1.801.84-2.056.35-.255 1.364-.199 2.189-.16 1.061.051 2.265.11 3.403-.26 1.097-.356 2.008-1.098 2.817-1.749.687-.562 1.473-1.195 1.946-1.195.473 0 1.26.633 1.952 1.195.808.653 1.723 1.393 2.817 1.748 1.133.368 2.337.311 3.403.262.824-.039 1.85-.087 2.189.159.339.246.615 1.252.835 2.056.277 1.022.591 2.178 1.286 3.133.695.955 1.684 1.594 2.564 2.167.739.482 1.576 1.027 1.716 1.453.123.378-.236 1.325-.524 2.086-.38 1.006-.812 2.148-.812 3.36 0 1.213.431 2.355.812 3.362l.924-.35.925-.348c-.353-.931-.685-1.81-.685-2.663 0-.853.329-1.732.683-2.663.458-1.208.892-2.357.555-3.394-.355-1.09-1.454-1.806-2.516-2.498-.768-.504-1.572-1.024-2.045-1.674-.473-.65-.733-1.59-.978-2.49-.346-1.27-.672-2.471-1.584-3.134-.912-.663-2.136-.597-3.444-.536-.936.044-1.905.09-2.694-.167-.747-.242-1.479-.834-2.186-1.406C21.191.831 20.17 0 18.996 0c-1.172 0-2.195.83-3.194 1.635-.707.572-1.439 1.163-2.185 1.405-.79.256-1.716.213-2.695.167-1.308-.061-2.544-.12-3.445.536-.902.655-1.238 1.866-1.584 3.136-.245.899-.497 1.828-.978 2.49-.481.66-1.271 1.17-2.045 1.673C1.808 11.735.709 12.45.354 13.54c-.337 1.037.097 2.182.555 3.395.35.93.683 1.81.683 2.662 0 .852-.329 1.73-.683 2.663-.458 1.207-.892 2.357-.555 3.393.355 1.091 1.454 1.807 2.516 2.5.768.504 1.572 1.024 2.044 1.674.472.65.733 1.59.978 2.489.21.777.416 1.528.752 2.146L2.642 44.696a.988.988 0 0 0 1.037 1.34l5.598-.67 3.656 4.288a.988.988 0 0 0 1.673-.287l3.99-10.207c.265.044.536.044.802 0l3.989 10.207a.988.988 0 0 0 1.671.281l3.657-4.287 5.598.67a.988.988 0 0 0 1.038-1.335L31.348 34.46c.335-.618.54-1.37.751-2.146.244-.9.496-1.829.978-2.49.482-.66 1.271-1.17 2.045-1.673 1.063-.693 2.163-1.409 2.516-2.499.337-1.037-.096-2.18-.549-3.392zM13.361 47.116l-2.927-3.434a.988.988 0 0 0-.87-.34l-4.482.537 3.149-8.054c.784.25 1.716.206 2.689.16.362-.017.736-.035 1.097-.035.668 0 1.176.064 1.599.201.746.243 1.477.833 2.185 1.406.33.265.659.532.997.768l-3.437 8.791zm19.547-3.237l-4.481-.536a.988.988 0 0 0-.87.34l-2.928 3.434-3.439-8.79c.338-.239.67-.505.997-.768.707-.572 1.439-1.162 2.185-1.405.788-.255 1.713-.213 2.696-.167.982.047 1.904.09 2.689-.16l3.151 8.052z" fill="#4AB8E6"/></svg>