<svg width="42" height="50" viewBox="0 0 42 50" fill="none" xmlns="http://www.w3.org/2000/svg">
<path d="M4.36659 45.6735H26.5781C26.482 46.4427 25.905 47.4042 26.6743 48.3658C27.155 48.9427 28.0204 49.2311 28.7897 48.8465L31.6743 47.5004L34.655 48.8465C35.4243 49.135 36.1935 48.9427 36.7704 48.3658C37.0589 47.9811 37.2512 47.4042 37.155 46.9235L35.905 40.9619C39.3666 39.4235 41.7704 35.8658 41.7704 31.8273C41.7704 26.9235 38.2127 22.885 33.5974 22.0196V5.09653C33.5974 2.78884 31.7704 0.961914 29.4627 0.961914H4.46274C2.15505 0.961914 0.328125 2.78884 0.328125 5.09653V41.635C0.328125 43.8465 2.15505 45.6735 4.36659 45.6735ZM33.982 41.635L35.1358 47.0196L32.0589 45.6735C31.7704 45.5773 31.482 45.5773 31.2897 45.6735L28.3089 47.0196L29.5589 41.635C30.232 41.7311 31.0974 41.9235 31.9627 41.8273C32.5397 41.8273 33.3089 41.8273 33.982 41.635ZM39.7512 31.9235C39.7512 36.3465 36.1935 40.0004 31.7704 40.0004C27.3474 40.0004 23.6935 36.4427 23.6935 31.9235C23.6935 27.5004 27.3474 23.8465 31.7704 23.8465C36.1935 23.8465 39.7512 27.5004 39.7512 31.9235ZM2.2512 5.09653C2.2512 3.84653 3.21274 2.88499 4.36659 2.88499H29.3666C30.6166 2.88499 31.5781 3.84653 31.5781 5.09653V21.9235C21.0012 22.0196 17.9243 36.7311 27.732 41.0581L27.0589 43.8465H4.36659C3.11659 43.8465 2.15505 42.885 2.15505 41.635V5.09653H2.2512Z" fill="#4AB8E6"/>
<path d="M26 31.9235C26 35.0966 28.5962 37.6928 31.7692 37.6928C34.9423 37.6928 37.5385 35.0966 37.5385 31.9235C37.5385 28.7505 34.9423 26.1543 31.7692 26.1543C28.5962 26.1543 26 28.7505 26 31.9235ZM35.5192 31.9235C35.5192 34.0389 33.7885 35.7697 31.6731 35.7697C29.5577 35.7697 27.8269 34.0389 27.8269 31.9235C27.8269 29.8081 29.5577 28.0774 31.6731 28.0774C33.7885 28.0774 35.5192 29.8081 35.5192 31.9235Z" fill="#4AB8E6"/>
<path d="M6.48498 9.61546H25.7157C26.2927 9.61546 26.6773 9.23084 26.6773 8.65392C26.6773 8.077 26.2927 7.69238 25.7157 7.69238H6.48498C5.90805 7.69238 5.52344 8.077 5.52344 8.65392C5.52344 9.23084 6.00421 9.61546 6.48498 9.61546Z" fill="#4AB8E6"/>
<path d="M6.48498 15.5774H25.7157C26.2927 15.5774 26.6773 15.1928 26.6773 14.6158C26.6773 14.0389 26.2927 13.6543 25.7157 13.6543H6.48498C5.90805 13.6543 5.52344 14.0389 5.52344 14.6158C5.52344 15.1928 6.00421 15.5774 6.48498 15.5774Z" fill="#4AB8E6"/>
<path d="M6.48498 21.635H25.7157C26.2927 21.635 26.6773 21.2504 26.6773 20.6735C26.6773 20.0965 26.2927 19.7119 25.7157 19.7119H6.48498C5.90805 19.7119 5.52344 20.0965 5.52344 20.6735C5.52344 21.2504 6.00421 21.635 6.48498 21.635Z" fill="#4AB8E6"/>
</svg>
