<svg width="42" height="50" viewBox="0 0 42 50" fill="none" xmlns="http://www.w3.org/2000/svg"><path d="M4.367 45.673h22.211c-.096.77-.673 1.731.096 2.693.481.577 1.346.865 2.116.48l2.884-1.346 2.981 1.346c.77.289 1.538.097 2.115-.48.289-.385.481-.962.385-1.443l-1.25-5.961c3.462-1.539 5.865-5.096 5.865-9.135 0-4.904-3.557-8.942-8.173-9.807V5.097A4.104 4.104 0 0 0 29.463.962h-25A4.104 4.104 0 0 0 .328 5.097v36.538c0 2.212 1.827 4.038 4.039 4.038zm29.615-4.038l1.154 5.385-3.077-1.347c-.289-.096-.577-.096-.77 0l-2.98 1.347 1.25-5.385c.673.096 1.538.288 2.404.192.577 0 1.346 0 2.019-.192zm5.77-9.711c0 4.422-3.559 8.076-7.982 8.076s-8.076-3.557-8.076-8.076c0-4.424 3.653-8.078 8.076-8.078 4.424 0 7.981 3.654 7.981 8.078zM2.251 5.096c0-1.25.96-2.212 2.115-2.212h25c1.25 0 2.211.962 2.211 2.212v16.827C21 22.019 17.923 36.73 27.731 41.057l-.673 2.788H4.367a2.176 2.176 0 0 1-2.212-2.211V5.097h.096z" fill="#4AB8E6"/><path d="M26 31.924c0 3.173 2.596 5.769 5.77 5.769 3.172 0 5.768-2.596 5.768-5.77 0-3.172-2.596-5.769-5.769-5.769S26 28.75 26 31.924zm9.52 0a3.857 3.857 0 0 1-3.847 3.846 3.858 3.858 0 0 1-3.846-3.847 3.857 3.857 0 0 1 3.846-3.846 3.857 3.857 0 0 1 3.846 3.846zM6.485 9.615h19.23c.578 0 .962-.384.962-.961s-.384-.962-.961-.962H6.485c-.577 0-.962.385-.962.962s.481.961.962.961zm0 5.962h19.23c.578 0 .962-.384.962-.961s-.384-.962-.961-.962H6.485c-.577 0-.962.385-.962.962s.481.961.962.961zm0 6.058h19.23c.578 0 .962-.385.962-.962 0-.576-.384-.961-.961-.961H6.485c-.577 0-.962.384-.962.962 0 .576.481.961.962.961z" fill="#4AB8E6"/></svg>