<svg width="50" height="50" viewBox="0 0 50 50" fill="none" xmlns="http://www.w3.org/2000/svg">
<path d="M46.72 22.5008H45.0537V9.16777C45.0537 8.70717 44.6804 8.33451 44.2202 8.33451H39.1728L37.5157 3.08446C37.4461 2.86534 37.2898 2.68486 37.0839 2.5848C36.8771 2.48453 36.6383 2.47471 36.4236 2.55639L29.6373 5.14266L26.5892 0.38539C26.4693 0.198015 26.2794 0.0659963 26.0616 0.0198315C25.8443 -0.0290489 25.616 0.0133559 25.4311 0.13681L12.9196 8.33451H5.88775C2.66791 8.33806 0.0586564 10.9477 0.0546875 14.1676V44.1668C0.0586564 47.3866 2.66791 49.9963 5.88775 50H44.2202C44.6804 50 45.0537 49.6267 45.0537 49.1665V39.1668H46.72C48.5612 39.1668 50.0535 37.6744 50.0535 35.8339V25.8341C50.0535 23.9927 48.5612 22.5008 46.72 22.5008ZM46.72 24.1674C47.6406 24.1674 48.3867 24.9131 48.3867 25.8341C48.3867 26.7545 47.6406 27.5004 46.72 27.5004H45.0537V24.1674H46.72ZM43.3867 10.0012V18.3341H42.3312L39.6996 10.0012H43.3867ZM40.584 18.3341H38.1549L35.8445 11.4042C35.7313 11.0639 35.4128 10.8339 35.0539 10.8341C34.2075 10.8368 33.3949 10.5005 32.7981 9.90035L32.3095 9.41176C32.0797 9.18177 31.7367 9.10636 31.4313 9.21916L6.77637 18.3341H5.88775C4.77666 18.3339 3.71173 17.889 2.93153 17.0981L36.1925 4.43202L40.584 18.3341ZM36.3983 18.3341H11.5813L31.5092 10.9674L31.6195 11.0785C32.3788 11.842 33.3721 12.3295 34.4406 12.4622L36.3983 18.3341ZM25.6375 1.99364L28.0431 5.75095L8.60729 13.1526L25.6375 1.99364ZM5.88775 10.0012H10.3756L1.96416 15.5122C1.80895 15.0808 1.72665 14.6261 1.72143 14.1676C1.72435 11.8677 3.58807 10.0035 5.88775 10.0012ZM43.3867 48.3331H5.88775C3.58807 48.3304 1.72435 46.4664 1.72143 44.1668V18.2508C1.72936 18.2581 1.73793 18.265 1.74545 18.2733C1.81062 18.3383 1.87956 18.398 1.94744 18.4599C2.01471 18.5215 2.08719 18.5921 2.16135 18.6539C2.23571 18.7157 2.30736 18.7655 2.38047 18.8206C2.4538 18.8758 2.53234 18.9388 2.61213 18.9944C2.69214 19.0489 2.76964 19.0913 2.84818 19.14C2.92672 19.1885 3.01028 19.2432 3.09801 19.29C3.18575 19.3364 3.26889 19.3731 3.35474 19.4157C3.44059 19.4579 3.52164 19.4991 3.6098 19.539C3.69816 19.5789 3.79926 19.6098 3.89389 19.6438C3.98893 19.6781 4.06058 19.7107 4.14832 19.737C4.25297 19.7706 4.36097 19.7942 4.46854 19.8206C4.5521 19.8404 4.62814 19.8659 4.7096 19.8824C4.83222 19.9081 4.95965 19.9229 5.08394 19.9407C5.15371 19.9501 5.22159 19.9647 5.29241 19.9722C5.49002 19.9919 5.68888 20.0013 5.88775 20.001H6.97168L6.98359 20.0328L7.07278 20.001H43.3867V27.5004H34.2204C30.9993 27.5004 28.3873 30.112 28.3873 33.3337C28.3873 36.5552 30.9993 39.1668 34.2204 39.1668H43.3867V48.3331ZM48.3867 35.8339C48.3867 36.7543 47.6406 37.5002 46.72 37.5002H34.2204C31.9195 37.5002 30.0541 35.6348 30.0541 33.3337C30.0541 31.0323 31.9195 29.1674 34.2204 29.1674H46.72C46.9214 29.1653 47.1211 29.1448 47.3187 29.1064C47.3659 29.0982 47.4129 29.0888 47.4595 29.0775C47.6479 29.0368 47.8325 28.9792 48.0109 28.9065L48.0393 28.8929C48.1586 28.8423 48.2743 28.7838 48.3867 28.7197V35.8339Z" fill="#4AB8E6"/>
<path d="M18.0312 22.501H21.3647V24.1675H18.0312V22.501Z" fill="#4AB8E6"/>
<path d="M11.3672 22.501H14.7002V24.1675H11.3672V22.501Z" fill="#4AB8E6"/>
<path d="M38.0312 22.501H40.8874V24.1675H38.0312V22.501Z" fill="#4AB8E6"/>
<path d="M31.3672 22.501H34.7002V24.1675H31.3672V22.501Z" fill="#4AB8E6"/>
<path d="M4.90562 22.3838L4.51562 24.0004C4.96558 24.1092 5.42639 24.1654 5.88887 24.1671H8.0323V22.5006H5.88887C5.55799 22.4997 5.22794 22.4607 4.90562 22.3838Z" fill="#4AB8E6"/>
<path d="M24.6953 22.501H28.0286V24.1675H24.6953V22.501Z" fill="#4AB8E6"/>
<path d="M4.90562 44.0498L4.51562 45.6662C4.96558 45.7752 5.42639 45.8316 5.88887 45.8333H8.0323V44.1666H5.88887C5.55799 44.1655 5.22794 44.1271 4.90562 44.0498Z" fill="#4AB8E6"/>
<path d="M38.0312 44.167H40.8874V45.8337H38.0312V44.167Z" fill="#4AB8E6"/>
<path d="M18.0312 44.167H21.3647V45.8337H18.0312V44.167Z" fill="#4AB8E6"/>
<path d="M31.3672 44.167H34.7002V45.8337H31.3672V44.167Z" fill="#4AB8E6"/>
<path d="M11.3672 44.167H14.7002V45.8337H11.3672V44.167Z" fill="#4AB8E6"/>
<path d="M24.6953 44.167H28.0286V45.8337H24.6953V44.167Z" fill="#4AB8E6"/>
<path d="M34.2188 30.834C32.8382 30.834 31.7188 31.953 31.7188 33.3338C31.7188 34.7141 32.8382 35.834 34.2188 35.834C35.5993 35.834 36.7185 34.7141 36.7185 33.3338C36.7185 31.953 35.5993 30.834 34.2188 30.834ZM34.2188 34.1673C33.7588 34.1673 33.3855 33.794 33.3855 33.3338C33.3855 32.8734 33.7588 32.5005 34.2188 32.5005C34.6789 32.5005 35.0522 32.8734 35.0522 33.3338C35.0522 33.794 34.6789 34.1673 34.2188 34.1673Z" fill="#4AB8E6"/>
</svg>
