<svg width="50" height="50" viewBox="0 0 50 50" fill="none" xmlns="http://www.w3.org/2000/svg"><path d="M46.72 22.5h-1.666V9.169a.833.833 0 0 0-.834-.833h-5.047l-1.657-5.25a.837.837 0 0 0-1.092-.529l-6.787 2.587L26.59.385a.831.831 0 0 0-1.158-.248L12.92 8.335H5.888a5.84 5.84 0 0 0-5.833 5.833v29.999A5.84 5.84 0 0 0 5.888 50H44.22c.46 0 .834-.373.834-.834v-10h1.666a3.333 3.333 0 0 0 3.334-3.332v-10a3.333 3.333 0 0 0-3.334-3.333zm0 1.667a1.666 1.666 0 1 1 0 3.333h-1.666v-3.333h1.666zm-3.333-14.166v8.333H42.33l-2.63-8.333h3.687zm-2.803 8.333h-2.43l-2.31-6.93a.833.833 0 0 0-.79-.57 3.167 3.167 0 0 1-2.256-.934l-.489-.488a.833.833 0 0 0-.878-.193L6.776 18.334h-.888a4.153 4.153 0 0 1-2.956-1.236l33.26-12.666 4.392 13.902zm-4.186 0H11.581l19.928-7.367.11.111a4.816 4.816 0 0 0 2.822 1.384l1.957 5.872zm-10.76-16.34l2.405 3.757-19.436 7.402 17.03-11.16zM5.887 10h4.488l-8.412 5.511a4.111 4.111 0 0 1-.243-1.344A4.171 4.171 0 0 1 5.888 10zm37.499 38.332h-37.5a4.172 4.172 0 0 1-4.166-4.166V18.25c.008.007.017.014.024.022.066.065.135.125.202.187.068.061.14.132.214.194.075.062.146.111.22.167.073.055.151.118.231.173.08.055.158.097.236.146.079.049.162.103.25.15.088.046.17.083.257.126.086.042.167.083.255.123.088.04.19.07.284.105.095.034.167.067.254.093.105.034.213.057.32.084.084.02.16.045.242.061.122.026.25.04.374.059.07.01.138.024.208.031.198.02.397.03.596.029h1.084l.012.032.089-.032h36.314v7.5H34.22a5.833 5.833 0 0 0 0 11.666h9.167v9.166zm5-12.5c0 .921-.746 1.667-1.667 1.667h-12.5a4.166 4.166 0 0 1 0-8.333h12.5a3.314 3.314 0 0 0 .74-.09 3.32 3.32 0 0 0 .55-.17l.03-.014c.119-.05.234-.11.347-.173v7.114z" fill="#4AB8E6"/><path d="M18.031 22.501h3.334v1.666H18.03v-1.666zm-6.664 0H14.7v1.666h-3.333v-1.666zm26.664 0h2.856v1.666h-2.856v-1.666zm-6.664 0H34.7v1.666h-3.333v-1.666zm-26.461-.117L4.516 24c.45.11.91.165 1.373.167h2.143v-1.666H5.89a4.283 4.283 0 0 1-.983-.117zm19.789.117h3.334v1.666h-3.334v-1.666zM4.906 44.05l-.39 1.616c.45.11.91.166 1.373.167h2.143v-1.666H5.89a4.339 4.339 0 0 1-.983-.117zm33.125.117h2.856v1.667h-2.856v-1.667zm-20 0h3.334v1.667H18.03v-1.667zm13.336 0H34.7v1.667h-3.333v-1.667zm-20 0H14.7v1.667h-3.333v-1.667zm13.328 0h3.334v1.667h-3.334v-1.667zm9.524-13.333a2.5 2.5 0 1 0 0 5 2.5 2.5 0 0 0 0-5zm0 3.333a.834.834 0 1 1 0-1.667.834.834 0 0 1 0 1.667z" fill="#4AB8E6"/></svg>