<svg width="50" height="50" viewBox="0 0 50 50" fill="none" xmlns="http://www.w3.org/2000/svg"><g clip-path="url(#a)" fill="#4AB8E6"><path d="M20.991 50a4.803 4.803 0 0 1-3.903-1.99 2.825 2.825 0 0 0-2.764-1.145 4.814 4.814 0 0 1-5.44-3.635 2.825 2.825 0 0 0-2.115-2.115 4.81 4.81 0 0 1-3.634-5.44 2.825 2.825 0 0 0-1.145-2.763 4.81 4.81 0 0 1-1.276-6.416 2.826 2.826 0 0 0 0-2.992 4.81 4.81 0 0 1 1.276-6.416 2.826 2.826 0 0 0 1.145-2.764 4.81 4.81 0 0 1 3.634-5.44A2.825 2.825 0 0 0 8.885 6.77a4.81 4.81 0 0 1 5.44-3.634 2.825 2.825 0 0 0 2.763-1.145A4.81 4.81 0 0 1 23.504.714a2.825 2.825 0 0 0 2.992 0 4.81 4.81 0 0 1 6.416 1.276 2.826 2.826 0 0 0 2.764 1.145 4.81 4.81 0 0 1 5.44 3.634 2.825 2.825 0 0 0 2.114 2.116 4.81 4.81 0 0 1 3.635 5.44 2.825 2.825 0 0 0 1.145 2.763 4.81 4.81 0 0 1 1.276 6.416 2.826 2.826 0 0 0 0 2.992 4.81 4.81 0 0 1-1.276 6.416 2.825 2.825 0 0 0-1.145 2.764 4.81 4.81 0 0 1-3.635 5.44 2.825 2.825 0 0 0-2.115 2.114 4.81 4.81 0 0 1-5.44 3.635 2.826 2.826 0 0 0-2.763 1.145 4.81 4.81 0 0 1-6.416 1.276 2.825 2.825 0 0 0-2.992 0c-.78.483-1.65.714-2.513.714zm-6.197-5.127c1.527 0 2.965.726 3.88 1.996a2.85 2.85 0 0 0 3.802.756 4.768 4.768 0 0 1 5.048 0 2.85 2.85 0 0 0 3.802-.756 4.767 4.767 0 0 1 4.664-1.932 2.85 2.85 0 0 0 3.224-2.154 4.768 4.768 0 0 1 3.57-3.57 2.85 2.85 0 0 0 2.153-3.223 4.768 4.768 0 0 1 1.932-4.664 2.85 2.85 0 0 0 .756-3.802 4.768 4.768 0 0 1 0-5.048 2.85 2.85 0 0 0-.756-3.802 4.768 4.768 0 0 1-1.932-4.664 2.85 2.85 0 0 0-2.154-3.224 4.768 4.768 0 0 1-3.57-3.57 2.85 2.85 0 0 0-3.223-2.153 4.768 4.768 0 0 1-4.664-1.932 2.85 2.85 0 0 0-3.802-.756 4.768 4.768 0 0 1-5.048 0 2.85 2.85 0 0 0-3.802.756 4.768 4.768 0 0 1-4.664 1.932 2.85 2.85 0 0 0-3.224 2.154 4.768 4.768 0 0 1-3.57 3.57 2.85 2.85 0 0 0-2.153 3.223 4.768 4.768 0 0 1-1.932 4.664 2.85 2.85 0 0 0-.756 3.802 4.768 4.768 0 0 1 0 5.048 2.85 2.85 0 0 0 .756 3.802 4.768 4.768 0 0 1 1.932 4.664 2.85 2.85 0 0 0 2.154 3.224 4.768 4.768 0 0 1 3.57 3.57 2.85 2.85 0 0 0 3.223 2.153c.262-.043.525-.064.784-.064z"/><path d="M25.003 43.558C14.771 43.558 6.445 35.233 6.445 25S14.77 6.44 25.003 6.44c3.373 0 6.676.914 9.551 2.644a.977.977 0 1 1-1.006 1.674 16.578 16.578 0 0 0-8.545-2.364C15.848 8.395 8.4 15.844 8.4 25c0 9.155 7.449 16.604 16.605 16.604 9.155 0 16.604-7.449 16.604-16.604 0-2.952-.784-5.85-2.267-8.382a.977.977 0 0 1 1.685-.988A18.547 18.547 0 0 1 43.562 25c0 10.233-8.326 18.558-18.559 18.558z"/><path d="M21.328 33.54a.977.977 0 0 1-.878-1.404l7.345-15.125a.977.977 0 1 1 1.757.854l-7.345 15.124a.977.977 0 0 1-.88.55zm10.538.544a3.918 3.918 0 0 1-3.913-3.914 3.918 3.918 0 0 1 3.913-3.913 3.918 3.918 0 0 1 3.914 3.913 3.918 3.918 0 0 1-3.914 3.913zm0-5.874c-1.08 0-1.96.88-1.96 1.96s.88 1.96 1.96 1.96c1.081 0 1.96-.88 1.96-1.96s-.879-1.96-1.96-1.96zM18.14 23.743a3.918 3.918 0 0 1-3.913-3.914 3.918 3.918 0 0 1 3.913-3.913 3.918 3.918 0 0 1 3.913 3.913 3.918 3.918 0 0 1-3.913 3.914zm0-5.873c-1.08 0-1.96.879-1.96 1.96 0 1.08.88 1.96 1.96 1.96s1.96-.88 1.96-1.96c0-1.081-.88-1.96-1.96-1.96zm19.36-4.254a.984.984 0 0 1-.69-.287.984.984 0 0 1-.287-.69.98.98 0 0 1 .287-.69.984.984 0 0 1 .69-.287c.257 0 .51.105.69.286a.984.984 0 0 1 .287.69.984.984 0 0 1-.286.691.983.983 0 0 1-.69.287z"/></g><defs><clipPath id="a"><path fill="#fff" d="M0 0h50v50H0z"/></clipPath></defs></svg>