<svg width="50" height="50" viewBox="0 0 50 50" fill="none" xmlns="http://www.w3.org/2000/svg">
<g clip-path="url(#clip0_7064_3318)">
<path d="M20.9912 49.9999C19.4924 49.9999 18.0178 49.302 17.088 48.0098C16.4541 47.1289 15.395 46.6903 14.3241 46.865C14.0666 46.907 13.8096 46.9273 13.556 46.9274C11.3706 46.9276 9.39942 45.4184 8.88468 43.2305C8.63619 42.1742 7.82569 41.3637 6.76934 41.1152C4.32748 40.5407 2.731 38.1514 3.13488 35.6758C3.30952 34.6048 2.87087 33.5457 1.99004 32.912C-0.0460805 31.4469 -0.606634 28.6286 0.713826 26.4958C1.28503 25.5731 1.28503 24.4268 0.713826 23.5042C-0.606634 21.3715 -0.0460805 18.5531 1.99004 17.088C2.87087 16.4541 3.30952 15.3951 3.13488 14.3241C2.73109 11.8484 4.32748 9.4591 6.76934 8.88468C7.82569 8.63619 8.63619 7.82569 8.88468 6.76934C9.4591 4.32748 11.8482 2.7309 14.3241 3.13488C15.3953 3.30962 16.4541 2.87087 17.0879 1.99004C18.553 -0.0461782 21.3714 -0.606536 23.5041 0.713826C24.4266 1.28503 25.5729 1.28512 26.4957 0.713826C28.6283 -0.606634 31.4467 -0.0460805 32.9119 1.99004C33.5456 2.87096 34.6049 3.30923 35.6758 3.13488C38.1511 2.731 40.5407 4.32748 41.1152 6.76934C41.3637 7.82569 42.1742 8.63619 43.2305 8.88468C45.6724 9.4591 47.2688 11.8484 46.865 14.3241C46.6903 15.3951 47.129 16.4541 48.0098 17.0879C50.0459 18.553 50.6065 21.3713 49.286 23.5041C48.7148 24.4267 48.7148 25.573 49.286 26.4957C50.6065 28.6284 50.0459 31.4468 48.0098 32.9119C47.129 33.5457 46.6903 34.6048 46.865 35.6758C47.2688 38.1514 45.6724 40.5407 43.2305 41.1152C42.1742 41.3637 41.3637 42.1742 41.1152 43.2305C40.5407 45.6724 38.1515 47.2689 35.6758 46.865C34.6051 46.6904 33.5458 47.1291 32.912 48.0098C31.4469 50.0459 28.6285 50.6065 26.4958 49.286C25.5731 48.7147 24.4268 48.7146 23.5042 49.286C22.7249 49.7686 21.8541 49.9999 20.9912 49.9999ZM14.7942 44.8732C16.3212 44.8732 17.7595 45.5985 18.6736 46.8689C19.5418 48.0754 21.2119 48.4077 22.4758 47.6252C24.0327 46.6613 25.967 46.6612 27.5241 47.6252C28.7879 48.4077 30.4581 48.0755 31.3262 46.8689C32.3958 45.3825 34.1829 44.6419 35.9902 44.937C37.4569 45.1763 38.8732 44.2303 39.2135 42.7832C39.6329 41.0006 41.0006 39.6329 42.7832 39.2135C44.2301 38.8732 45.1762 37.4573 44.9369 35.9902C44.6421 34.1828 45.3825 32.3957 46.8688 31.3262C48.0754 30.458 48.4076 28.7879 47.6251 27.5241C46.6611 25.9671 46.6611 24.0328 47.6251 22.4758C48.4076 21.212 48.0753 19.5417 46.8688 18.6736C45.3825 17.6041 44.6422 15.8169 44.9369 14.0097C45.1762 12.5425 44.2301 11.1266 42.7831 10.7863C41.0005 10.367 39.6328 8.99925 39.2134 7.21669C38.8731 5.76965 37.4573 4.82377 35.9901 5.06297C34.1827 5.35775 32.3956 4.61738 31.3261 3.13107C30.4579 1.9244 28.7878 1.59211 27.524 2.37478C25.967 3.33873 24.0327 3.33873 22.4757 2.37478C21.212 1.59231 19.5417 1.9244 18.6735 3.13107C17.604 4.61738 15.8166 5.35766 14.0096 5.06297C12.5427 4.82377 11.1266 5.76965 10.7862 7.21679C10.3669 8.99935 8.99915 10.3671 7.2166 10.7864C5.76965 11.1268 4.82357 12.5427 5.06287 14.0098C5.35766 15.8171 4.61728 17.6043 3.13097 18.6737C1.9243 19.5419 1.59211 21.2121 2.37468 22.4759C3.33863 24.0328 3.33863 25.9671 2.37468 27.5242C1.59211 28.788 1.9244 30.4582 3.13097 31.3263C4.61728 32.3959 5.35756 34.183 5.06287 35.9903C4.82357 37.4575 5.76965 38.8733 7.21669 39.2136C8.99925 39.633 10.367 41.0007 10.7863 42.7833C11.1267 44.2303 12.5429 45.1763 14.0097 44.937C14.2723 44.8942 14.5346 44.8732 14.7942 44.8732Z" fill="#4AB8E6"/>
<path d="M25.0034 43.5577C14.7705 43.5577 6.44531 35.2325 6.44531 24.9995C6.44531 14.7666 14.7705 6.44141 25.0034 6.44141C28.376 6.44141 31.6787 7.35544 34.5542 9.08467C35.0165 9.36265 35.166 9.96276 34.888 10.4251C34.61 10.8874 34.0096 11.0368 33.5476 10.7588C30.976 9.21233 28.0215 8.39499 25.0035 8.39499C15.8477 8.39499 8.3989 15.8438 8.3989 24.9996C8.3989 34.1554 15.8477 41.6043 25.0035 41.6043C34.1593 41.6043 41.6082 34.1554 41.6082 24.9996C41.6082 22.0479 40.8242 19.1496 39.3409 16.6181C39.0682 16.1527 39.2244 15.5542 39.6898 15.2815C40.1553 15.0089 40.7536 15.1651 41.0263 15.6304C42.6849 18.4612 43.5618 21.701 43.5618 24.9995C43.5616 35.2325 35.2364 43.5577 25.0034 43.5577Z" fill="#4AB8E6"/>
<path d="M21.3278 33.5392C21.1846 33.5392 21.0393 33.5075 20.9019 33.4408C20.4166 33.2051 20.2142 32.6207 20.4499 32.1355L27.7946 17.0113C28.0303 16.526 28.6147 16.3236 29.1 16.5593C29.5852 16.795 29.7876 17.3794 29.5519 17.8647L22.2072 32.9889C22.0383 33.3367 21.6902 33.5392 21.3278 33.5392Z" fill="#4AB8E6"/>
<path d="M31.8664 34.0835C29.7086 34.0835 27.9531 32.328 27.9531 30.1702C27.9531 28.0123 29.7086 26.2568 31.8664 26.2568C34.0243 26.2568 35.7798 28.0123 35.7798 30.1702C35.7799 32.328 34.0244 34.0835 31.8664 34.0835ZM31.8664 28.2102C30.7858 28.2102 29.9066 29.0894 29.9066 30.1701C29.9066 31.2507 30.7858 32.1299 31.8664 32.1299C32.9471 32.1299 33.8263 31.2507 33.8263 30.1701C33.8263 29.0894 32.9471 28.2102 31.8664 28.2102Z" fill="#4AB8E6"/>
<path d="M18.1399 23.7427C15.9821 23.7427 14.2266 21.9872 14.2266 19.8293C14.2266 17.6715 15.9821 15.916 18.1399 15.916C20.2977 15.916 22.0532 17.6715 22.0532 19.8293C22.0532 21.9872 20.2977 23.7427 18.1399 23.7427ZM18.1399 17.8695C17.0592 17.8695 16.18 18.7487 16.18 19.8293C16.18 20.91 17.0592 21.7892 18.1399 21.7892C19.2206 21.7892 20.0997 20.91 20.0997 19.8293C20.0997 18.7487 19.2206 17.8695 18.1399 17.8695Z" fill="#4AB8E6"/>
<path d="M37.5002 13.6156C37.2433 13.6156 36.9913 13.5111 36.8096 13.3294C36.6279 13.1477 36.5234 12.8957 36.5234 12.6389C36.5234 12.382 36.6279 12.13 36.8096 11.9483C36.9913 11.7666 37.2433 11.6621 37.5002 11.6621C37.7571 11.6621 38.0091 11.7666 38.1907 11.9483C38.3724 12.13 38.4769 12.382 38.4769 12.6389C38.4769 12.8957 38.3724 13.1477 38.1907 13.3294C38.0091 13.5112 37.7571 13.6156 37.5002 13.6156Z" fill="#4AB8E6"/>
</g>
<defs>
<clipPath id="clip0_7064_3318">
<rect width="50" height="50" fill="white"/>
</clipPath>
</defs>
</svg>
