<svg width="50" height="50" viewBox="0 0 50 50" fill="none" xmlns="http://www.w3.org/2000/svg"><path d="M25 12.305a.977.977 0 1 0 0 1.954.977.977 0 0 0 0-1.954zM8.79 29.883a.977.977 0 1 0-.002-1.954.977.977 0 0 0 .001 1.954z" fill="#4AB8E6"/><path d="M32.813 2.54c-8.792 0-16.008 6.06-16.566 13.696C7.874 16.656 0 22.693 0 30.859c0 3.413 1.35 6.72 3.809 9.34a5.94 5.94 0 0 1-1.57 5.595.977.977 0 0 0 .69 1.667 10.77 10.77 0 0 0 7.464-3.017c1.943.662 4.478 1.064 6.794 1.064 8.791 0 16.006-6.06 16.566-13.694 2.044-.09 4.171-.468 5.854-1.042a10.772 10.772 0 0 0 7.463 3.017.977.977 0 0 0 .69-1.667 5.939 5.939 0 0 1-1.569-5.595C48.65 23.907 50 20.6 50 17.187 50 8.703 41.52 2.54 32.812 2.54zM17.187 43.554c-2.304 0-4.93-.453-6.69-1.153a.977.977 0 0 0-1.082.248 8.811 8.811 0 0 1-4.383 2.601 7.898 7.898 0 0 0 .596-5.812.975.975 0 0 0-.239-.413c-2.216-2.282-3.436-5.182-3.436-8.167 0-6.881 6.976-12.695 15.235-12.695 7.797 0 14.648 5.423 14.648 12.695 0 7-6.571 12.696-14.648 12.696zm27.424-18.201a.978.978 0 0 0-.239.413 7.897 7.897 0 0 0 .596 5.812 8.809 8.809 0 0 1-4.383-2.6.977.977 0 0 0-1.082-.249c-1.525.607-3.7 1.027-5.753 1.128-.286-3.693-2.128-7.164-5.277-9.74H41.21a.977.977 0 1 0 0-1.954H25.473c-2.217-1.128-4.706-1.786-7.268-1.925.561-6.558 6.898-11.747 14.608-11.747 8.258 0 15.234 5.814 15.234 12.695 0 2.985-1.22 5.885-3.436 8.167z" fill="#4AB8E6"/><path d="M25 27.93H12.695a.976.976 0 1 0 0 1.953H25a.977.977 0 1 0 0-1.953zm0 5.86H8.79a.976.976 0 1 0 0 1.952H25a.977.977 0 1 0 0-1.953zm16.21-21.485H28.907a.977.977 0 0 0 0 1.953h12.305a.977.977 0 1 0 0-1.953z" fill="#4AB8E6"/></svg>