<svg width="57" height="57" viewBox="0 0 57 57" fill="none" xmlns="http://www.w3.org/2000/svg">
<path d="M17.8125 44.0818V54.3281C17.8125 54.5643 17.9064 54.7909 18.0734 54.9579C18.2404 55.1249 18.467 55.2188 18.7032 55.2188H48.9844C49.2206 55.2188 49.4472 55.1249 49.6142 54.9579C49.7812 54.7909 49.875 54.5643 49.875 54.3281V32.9531C49.8744 32.2223 49.6945 31.5027 49.3511 30.8576L42.75 18.4805V2.67188C42.75 2.43567 42.6562 2.20913 42.4892 2.04211C42.3222 1.87508 42.0956 1.78125 41.8594 1.78125H18.7032C18.467 1.78125 18.2404 1.87508 18.0734 2.04211C17.9064 2.20913 17.8125 2.43567 17.8125 2.67188V5.79708L7.7496 8.94688C7.63797 8.98182 7.53432 9.0384 7.44457 9.1134C7.35481 9.1884 7.2807 9.28034 7.22648 9.38398C7.17226 9.48761 7.13898 9.60092 7.12855 9.71742C7.11812 9.83391 7.13073 9.95133 7.16568 10.0629L17.8125 44.0818ZM16.6776 13.6189L16.1453 11.9182L17.8125 11.3963V26.1894L14.3941 15.267L16.0938 14.7348C16.3191 14.6643 16.5073 14.507 16.6167 14.2978C16.7262 14.0885 16.7481 13.8443 16.6776 13.6189ZM48.0938 32.9531V53.4375H42.75C40.6541 53.4351 38.6423 52.6128 37.1447 51.1464C35.6472 49.68 34.7827 47.686 34.7362 45.5905C34.7809 45.3588 34.7318 45.1188 34.5996 44.9232L28.8229 36.3727C28.6229 36.0821 28.4825 35.7547 28.4097 35.4095C28.337 35.0644 28.3332 34.7082 28.3988 34.3616C28.4644 34.0149 28.598 33.6847 28.7918 33.39C28.9857 33.0953 29.236 32.8418 29.5283 32.6444C29.8206 32.4469 30.1491 32.3092 30.4949 32.2393C30.8406 32.1694 31.1968 32.1687 31.5429 32.2372C31.8889 32.3057 32.218 32.442 32.5111 32.6384C32.8042 32.8347 33.0555 33.0871 33.2505 33.3811C33.2558 33.3888 33.2617 33.3964 33.2667 33.404L38.4663 40.5998C38.5487 40.714 38.6571 40.8069 38.7825 40.871C38.9079 40.9352 39.0467 40.9687 39.1875 40.9688H41.8594C42.0956 40.9688 42.3222 40.8749 42.4892 40.7079C42.6562 40.5409 42.75 40.3143 42.75 40.0781V22.2656L47.7795 31.6958C47.9855 32.0829 48.0934 32.5146 48.0938 32.9531ZM24.9375 47.2031H23.1563V9.79688H24.9375C25.1738 9.79688 25.4003 9.70304 25.5673 9.53602C25.7343 9.36899 25.8282 9.14246 25.8282 8.90625V7.125H34.7344V8.90625C34.7344 9.14246 34.8283 9.36899 34.9953 9.53602C35.1623 9.70304 35.3888 9.79688 35.625 9.79688H37.4063V36.0926L34.7177 32.3717C34.6127 32.2182 34.4983 32.0714 34.3751 31.9321C35.0625 31.1118 35.4877 30.104 35.5956 29.0392C35.7035 27.9744 35.4891 26.9018 34.9803 25.9603C34.4714 25.0187 33.6915 24.2518 32.7416 23.7587C31.7917 23.2656 30.7156 23.0692 29.6528 23.1949C28.5899 23.3206 27.5893 23.7626 26.7807 24.4636C25.972 25.1646 25.3925 26.0924 25.1172 27.1266C24.842 28.1608 24.8837 29.2539 25.237 30.2642C25.5903 31.2744 26.2389 32.1553 27.0986 32.7926C26.7224 33.5068 26.5468 34.3095 26.5904 35.1155C26.634 35.9215 26.8953 36.7007 27.3464 37.3701L32.9563 45.6729C32.9923 47.1363 33.3581 48.5726 34.0263 49.875H25.8282V48.0938C25.8282 47.8575 25.7343 47.631 25.5673 47.464C25.4003 47.297 25.1738 47.2031 24.9375 47.2031ZM28.5431 31.187C28.4367 31.2589 28.3347 31.3356 28.2359 31.4154C27.6451 31.001 27.194 30.4169 26.9425 29.7405C26.6909 29.0641 26.6508 28.3272 26.8272 27.6275C27.0037 26.9278 27.3886 26.2981 27.9308 25.8219C28.4731 25.3457 29.1472 25.0455 29.8638 24.9608C30.5805 24.8762 31.306 25.0112 31.9442 25.3481C32.5825 25.6849 33.1034 26.2076 33.438 26.847C33.7726 27.4864 33.9051 28.2123 33.818 28.9287C33.7309 29.6451 33.4283 30.3181 32.9503 30.8587C32.2506 30.5253 31.476 30.3802 30.7031 30.4378C29.9302 30.4954 29.1857 30.7536 28.5431 31.187ZM19.5938 3.5625H40.9688V39.1875H39.6428L39.1875 38.5575V8.90625C39.1875 8.67004 39.0937 8.44351 38.9267 8.27648C38.7597 8.10946 38.5331 8.01562 38.2969 8.01562H36.5157V6.23438C36.5157 5.99817 36.4218 5.77163 36.2548 5.60461C36.0878 5.43758 35.8613 5.34375 35.625 5.34375H24.9375C24.7013 5.34375 24.4748 5.43758 24.3078 5.60461C24.1408 5.77163 24.0469 5.99817 24.0469 6.23438V8.01562H22.2657C22.0295 8.01562 21.8029 8.10946 21.6359 8.27648C21.4689 8.44351 21.375 8.67004 21.375 8.90625V48.0938C21.375 48.33 21.4689 48.5565 21.6359 48.7235C21.8029 48.8905 22.0295 48.9844 22.2657 48.9844H24.0469V50.7656C24.0469 51.0018 24.1408 51.2284 24.3078 51.3954C24.4748 51.5624 24.7013 51.6562 24.9375 51.6562H35.2008C35.7609 52.333 36.4088 52.9321 37.1273 53.4375H19.5938V3.5625ZM17.8125 7.66349V9.52969L14.7633 10.4842C14.5379 10.5548 14.3497 10.712 14.2402 10.9213C14.1307 11.1305 14.1088 11.3748 14.1794 11.6002L14.7116 13.3009L13.012 13.833C12.9004 13.8679 12.7967 13.9245 12.707 13.9995C12.6172 14.0745 12.5431 14.1665 12.4889 14.2701C12.4347 14.3737 12.4014 14.487 12.391 14.6035C12.3806 14.72 12.3932 14.8374 12.4282 14.949L17.8125 32.1529V38.1181L9.13163 10.3808L17.8125 7.66349Z" fill="#4AB8E6"/>
</svg>
