<svg width="57" height="57" viewBox="0 0 57 57" fill="none" xmlns="http://www.w3.org/2000/svg"><path d="M17.813 44.082v10.246a.89.89 0 0 0 .89.89h30.281a.89.89 0 0 0 .891-.89V32.953c0-.73-.18-1.45-.524-2.095L42.75 18.48V2.672a.89.89 0 0 0-.89-.89H18.702a.89.89 0 0 0-.89.89v3.125L7.75 8.947a.89.89 0 0 0-.584 1.116l10.646 34.019zm-1.135-30.463l-.533-1.7 1.668-.523V26.19l-3.419-10.922 1.7-.532a.89.89 0 0 0 .584-1.116zm31.416 19.334v20.484H42.75a8.025 8.025 0 0 1-8.014-7.846.89.89 0 0 0-.136-.668l-5.777-8.55a2.671 2.671 0 1 1 4.428-2.992l.016.023 5.2 7.196a.889.889 0 0 0 .72.369h2.672a.89.89 0 0 0 .891-.89V22.265l5.03 9.43c.206.387.313.819.314 1.257zm-23.157 14.25h-1.78V9.797h1.78a.89.89 0 0 0 .891-.89V7.124h8.906v1.781a.89.89 0 0 0 .891.89h1.781v26.297l-2.688-3.721a4.49 4.49 0 0 0-.343-.44 5.343 5.343 0 1 0-7.276.86 4.466 4.466 0 0 0 .247 4.578l5.61 8.303a9.73 9.73 0 0 0 1.07 4.202h-8.198v-1.781a.89.89 0 0 0-.89-.89zm3.606-16.016a4.494 4.494 0 0 0-.307.228 3.563 3.563 0 1 1 4.714-.556 4.455 4.455 0 0 0-4.407.328zm-8.95-27.625H40.97v35.626h-1.326l-.456-.63V8.905a.89.89 0 0 0-.89-.89h-1.781V6.234a.89.89 0 0 0-.891-.89H24.937a.89.89 0 0 0-.89.89v1.782h-1.781a.89.89 0 0 0-.891.89v39.188a.89.89 0 0 0 .89.89h1.782v1.782a.89.89 0 0 0 .89.89h10.264a9.876 9.876 0 0 0 1.926 1.782H19.594V3.562zm-1.78 4.101V9.53l-3.05.954a.89.89 0 0 0-.584 1.116l.533 1.7-1.7.533a.89.89 0 0 0-.584 1.116l5.384 17.204v5.965l-8.68-27.737 8.68-2.718z" fill="#4AB8E6"/></svg>