<svg width="50" height="50" viewBox="0 0 50 50" fill="none" xmlns="http://www.w3.org/2000/svg">
<g clip-path="url(#clip0_7064_3352)">
<path d="M48.3871 41.9355V15.3226C48.3871 13.0993 46.5781 11.2903 44.3548 11.2903H40.3226V0H9.67742V11.2903H5.64516C3.42191 11.2903 1.6129 13.0993 1.6129 15.3226V41.9355H0V45.9677C0 48.191 1.809 50 4.03226 50H45.9677C48.191 50 50 48.191 50 45.9677V41.9355H48.3871ZM44.3548 12.9032C45.6886 12.9032 46.7742 13.9889 46.7742 15.3226V41.9355H45.1613V16.129C45.1613 15.2395 44.4379 14.5161 43.5484 14.5161H40.3226V12.9032H44.3548ZM17.7419 43.5484H32.2581V44.3548C32.2581 44.799 31.8958 45.1613 31.4516 45.1613H18.5484C18.1042 45.1613 17.7419 44.799 17.7419 44.3548V43.5484ZM6.45161 41.9355V16.129H9.67742V37.0968H40.3226V16.129H43.5484V41.9355H6.45161ZM11.2903 8.06452H38.7097V35.4839H11.2903V8.06452ZM38.7097 1.6129V6.45161H11.2903V1.6129H38.7097ZM3.22581 15.3226C3.22581 13.9889 4.31145 12.9032 5.64516 12.9032H9.67742V14.5161H6.45161C5.56208 14.5161 4.83871 15.2395 4.83871 16.129V41.9355H3.22581V15.3226ZM48.3871 45.9677C48.3871 47.3015 47.3015 48.3871 45.9677 48.3871H4.03226C2.69854 48.3871 1.6129 47.3015 1.6129 45.9677V43.5484H16.129V44.3548C16.129 45.6886 17.2147 46.7742 18.5484 46.7742H31.4516C32.7853 46.7742 33.871 45.6886 33.871 44.3548V43.5484H48.3871V45.9677Z" fill="#4AB8E6"/>
<path d="M4.83594 45.1611H6.44884V46.774H4.83594V45.1611Z" fill="#4AB8E6"/>
<path d="M8.0625 45.1611H9.6754V46.774H8.0625V45.1611Z" fill="#4AB8E6"/>
<path d="M11.2891 45.1611H12.902V46.774H11.2891V45.1611Z" fill="#4AB8E6"/>
<path d="M12.9062 3.22559H14.5192V4.83849H12.9062V3.22559Z" fill="#4AB8E6"/>
<path d="M16.1328 3.22559H17.7457V4.83849H16.1328V3.22559Z" fill="#4AB8E6"/>
<path d="M19.3516 3.22559H20.9645V4.83849H19.3516V3.22559Z" fill="#4AB8E6"/>
<path d="M20.9688 20.9681H37.0978V9.67773H20.9688V20.9681ZM22.5817 11.2906H35.4849V19.3552H22.5817V11.2906Z" fill="#4AB8E6"/>
<path d="M12.9062 9.67773H19.3579V11.2906H12.9062V9.67773Z" fill="#4AB8E6"/>
<path d="M12.9062 12.9033H19.3579V14.5162H12.9062V12.9033Z" fill="#4AB8E6"/>
<path d="M12.9062 16.1289H19.3579V17.7418H12.9062V16.1289Z" fill="#4AB8E6"/>
<path d="M12.9062 19.3545H19.3579V20.9674H12.9062V19.3545Z" fill="#4AB8E6"/>
<path d="M12.9062 33.8714H29.0353V22.5811H12.9062V33.8714ZM14.5192 24.194H27.4224V32.2585H14.5192V24.194Z" fill="#4AB8E6"/>
<path d="M30.6484 22.5811H37.1001V24.194H30.6484V22.5811Z" fill="#4AB8E6"/>
<path d="M30.6484 25.8066H37.1001V27.4195H30.6484V25.8066Z" fill="#4AB8E6"/>
<path d="M30.6484 29.0322H37.1001V30.6451H30.6484V29.0322Z" fill="#4AB8E6"/>
<path d="M30.6484 32.2578H37.1001V33.8707H30.6484V32.2578Z" fill="#4AB8E6"/>
</g>
<defs>
<clipPath id="clip0_7064_3352">
<rect width="50" height="50" fill="white"/>
</clipPath>
</defs>
</svg>
