<svg width="50" height="50" viewBox="0 0 50 50" fill="none" xmlns="http://www.w3.org/2000/svg"><g clip-path="url(#a)" fill="#4AB8E6"><path d="M48.387 41.935V15.323a4.037 4.037 0 0 0-4.032-4.033h-4.032V0H9.677v11.29H5.645a4.037 4.037 0 0 0-4.032 4.033v26.612H0v4.033A4.037 4.037 0 0 0 4.032 50h41.936A4.037 4.037 0 0 0 50 45.968v-4.033h-1.613zm-4.032-29.032a2.423 2.423 0 0 1 2.42 2.42v26.612H45.16V16.13c0-.89-.723-1.613-1.613-1.613h-3.225v-1.613h4.032zM17.742 43.548h14.516v.807a.808.808 0 0 1-.806.806H18.548a.808.808 0 0 1-.806-.806v-.807zm-11.29-1.613V16.13h3.225v20.968h30.646V16.129h3.225v25.806H6.452zm4.838-33.87h27.42v27.419H11.29V8.064zm27.42-6.452v4.839H11.29v-4.84h27.42zM3.226 15.323a2.423 2.423 0 0 1 2.42-2.42h4.031v1.613H6.452c-.89 0-1.613.723-1.613 1.613v25.806H3.226V15.323zm45.161 30.645a2.422 2.422 0 0 1-2.42 2.42H4.033a2.422 2.422 0 0 1-2.42-2.42v-2.42H16.13v.807a2.423 2.423 0 0 0 2.42 2.42h12.903a2.423 2.423 0 0 0 2.419-2.42v-.807h14.516v2.42z"/><path d="M4.836 45.161h1.613v1.613H4.836v-1.613zm3.227 0h1.612v1.613H8.062v-1.613zm3.227 0h1.612v1.613h-1.613v-1.613zm1.616-41.935h1.613v1.612h-1.613V3.226zm3.227 0h1.613v1.612h-1.613V3.226zm3.219 0h1.613v1.612h-1.613V3.226zm1.617 17.742h16.129V9.678h-16.13v11.29zm1.613-9.677h12.903v8.064H22.582v-8.064zm-9.676-1.613h6.452v1.613h-6.452V9.678zm0 3.225h6.452v1.613h-6.452v-1.613zm0 3.226h6.452v1.613h-6.452v-1.613zm0 3.226h6.452v1.612h-6.452v-1.612zm0 14.516h16.13v-11.29h-16.13v11.29zm1.613-9.677h12.903v8.064H14.52v-8.064zm16.129-1.613H37.1v1.613h-6.452v-1.613zm0 3.226H37.1v1.613h-6.452v-1.613zm0 3.225H37.1v1.613h-6.452v-1.613zm0 3.226H37.1v1.613h-6.452v-1.613z"/></g><defs><clipPath id="a"><path fill="#fff" d="M0 0h50v50H0z"/></clipPath></defs></svg>