<svg width="50" height="40" viewBox="0 0 50 40" fill="none" xmlns="http://www.w3.org/2000/svg"><path d="M49.111 4.456a3.73 3.73 0 0 0-2.554-1.317L11.347.199a3.73 3.73 0 0 0-2.739.875 3.73 3.73 0 0 0-1.316 2.543l-.708 6.646H3.755A3.76 3.76 0 0 0 0 14.018V36.06a3.76 3.76 0 0 0 3.755 3.756H39.09a3.76 3.76 0 0 0 3.755-3.756v-3.575l1.254.104a3.76 3.76 0 0 0 4.055-3.43l1.834-21.964c.083-1-.228-1.972-.876-2.738zm-45.356 7.76H39.09c.993 0 1.802.808 1.802 1.802v2.008H1.953v-2.008c0-.994.809-1.802 1.802-1.802zM1.953 17.98h38.938v4.051H1.953V17.98zM39.09 37.86H3.755a1.804 1.804 0 0 1-1.802-1.802V23.984h38.938V36.06c0 .994-.809 1.802-1.802 1.802zm8.951-30.83l-1.834 21.965a1.804 1.804 0 0 1-1.946 1.646l-1.416-.118V14.018a3.76 3.76 0 0 0-3.755-3.755H8.549l.687-6.45a1.804 1.804 0 0 1 1.948-1.668l35.21 2.94c.48.04.916.265 1.226.632.311.368.46.834.42 1.314z" fill="#4AB8E6"/><path d="M36.805 26.888h-9.399a.977.977 0 0 0-.976.976v6.132c0 .54.437.977.976.977h9.399c.54 0 .976-.438.976-.977v-6.132a.977.977 0 0 0-.976-.976zm-.977 6.131h-7.445v-4.178h7.445v4.178z" fill="#4AB8E6"/></svg>