<svg width="60" height="38" viewBox="0 0 60 38" fill="none" xmlns="http://www.w3.org/2000/svg"><path fill-rule="evenodd" clip-rule="evenodd" d="M55.5 0H3C1.5 0 0 1.52 0 3.04v30.4C0 36.48 1.5 38 4.5 38h51c3 0 4.5-1.52 4.5-4.56V4.56C60 1.52 58.5 0 55.5 0z" fill="#265697"/><path fill-rule="evenodd" clip-rule="evenodd" d="M56.08 19.19c.002 8.83-6.985 15.99-15.606 15.992-8.622.003-15.612-7.154-15.614-15.984v-.008c-.002-8.83 6.985-15.99 15.605-15.993 8.622-.002 15.612 7.155 15.614 15.985v.008s0-.003 0 0z" fill="#DFAC16"/><path fill-rule="evenodd" clip-rule="evenodd" d="M19.43 3.201C10.86 3.257 3.92 10.4 3.92 19.19c0 8.825 6.994 15.988 15.61 15.988 4.044 0 7.73-1.578 10.505-4.165l-.002-.001h.004A15.983 15.983 0 0 0 31.62 29.3h-3.198a15.623 15.623 0 0 1-1.164-1.647h5.516c.336-.55.64-1.121.909-1.712h-7.335a16.2 16.2 0 0 1-.653-1.68h8.64a16.3 16.3 0 0 0 .804-5.071c0-1.175-.124-2.32-.36-3.424h-9.542c.118-.568.268-1.129.445-1.68h8.644a16.228 16.228 0 0 0-.673-1.712h-7.306a15.54 15.54 0 0 1 .896-1.679h5.511a16.015 16.015 0 0 0-1.211-1.712H28.47c.475-.573.998-1.112 1.566-1.615-2.774-2.588-6.462-4.167-10.507-4.167h-.1s.033 0 0 0z" fill="#BF3126"/><path fill-rule="evenodd" clip-rule="evenodd" d="M25.144 23.26l.208-1.446c-.114 0-.281.05-.429.05-.578 0-.642-.316-.605-.549l.467-2.952h.88l.212-1.6h-.83l.17-.996h-1.662c-.037.038-.982 5.598-.982 6.275 0 1.002.55 1.449 1.325 1.442.606-.006 1.079-.178 1.246-.223 0 0-.167.046 0 0zm.526-2.758c0 2.405 1.55 2.977 2.871 2.977 1.22 0 1.756-.279 1.756-.279l.293-1.642s-.928.419-1.765.419c-1.785 0-1.472-1.363-1.472-1.363h3.377s.218-1.103.218-1.553c0-1.122-.545-2.488-2.37-2.488-1.67 0-2.908 1.845-2.908 3.929 0 0 0-2.084 0 0zm2.915-2.405c.938 0 .765 1.08.765 1.167h-1.846c0-.111.175-1.167 1.08-1.167 0 0-.905 0 0 0zM39.11 23.26l.297-1.856s-.816.419-1.375.419c-1.18 0-1.652-.922-1.652-1.913 0-2.01 1.014-3.115 2.143-3.115.847 0 1.527.487 1.527.487l.271-1.803s-1.008-.418-1.871-.418c-1.92 0-3.786 1.705-3.786 4.907 0 2.123 1.008 3.525 2.992 3.525.56 0 1.453-.233 1.453-.233zM16.002 16.6c-1.14 0-2.013.374-2.013.374l-.241 1.467s.721-.3 1.811-.3c.619 0 1.072.071 1.072.586 0 .313-.056.429-.056.429s-.488-.042-.714-.042c-1.438 0-2.947.628-2.947 2.523 0 1.492.99 1.835 1.604 1.835 1.173 0 1.678-.78 1.705-.782l-.055.65h1.464l.653-4.688c0-1.989-1.694-2.053-2.283-2.053zm.356 3.816c.032.287-.175 1.63-1.176 1.63-.516 0-.65-.405-.65-.643 0-.466.247-1.026 1.465-1.026.283 0 .314.032.361.04 0 0-.047-.008 0 0zm3.482 3.021c.375 0 2.515.098 2.515-2.164 0-2.115-1.981-1.697-1.981-2.547 0-.423.323-.556.913-.556.234 0 1.136.077 1.136.077l.21-1.503s-.584-.134-1.534-.134c-1.23 0-2.478.503-2.478 2.223 0 1.949 2.081 1.753 2.081 2.574 0 .548-.581.593-1.03.593-.774 0-1.473-.273-1.475-.26l-.222 1.488c.04.013.471.21 1.865.21 0 0-1.394 0 0 0zm33.037-8.187l-.359 2.279s-.626-.885-1.605-.885c-1.523 0-2.792 1.88-2.792 4.041 0 1.395.677 2.762 2.061 2.762.996 0 1.548-.711 1.548-.711l-.074.607h1.617l1.27-8.095-1.666.003zm-.772 4.443c0 .9-.435 2.1-1.336 2.1-.598 0-.878-.514-.878-1.321 0-1.32.578-2.19 1.309-2.19.598 0 .905.42.905 1.411 0 0 0-.99 0 0zM7.003 23.35l1.012-6.112.149 6.112h1.145l2.136-6.112-.947 6.112H12.2l1.31-8.106h-2.63l-1.64 4.974-.085-4.974H6.73L5.4 23.35h1.603zm25.607.011c.484-2.817.574-5.106 1.728-4.687.203-1.09.398-1.512.618-1.974 0 0-.103-.022-.32-.022-.745 0-1.296 1.041-1.296 1.041l.148-.956h-1.547l-1.037 6.598h1.707zM42.944 16.6c-1.14 0-2.013.374-2.013.374l-.24 1.467s.72-.3 1.81-.3c.62 0 1.072.071 1.072.586 0 .313-.056.429-.056.429s-.488-.042-.714-.042c-1.437 0-2.947.628-2.947 2.523 0 1.492.99 1.835 1.604 1.835 1.173 0 1.678-.78 1.705-.782l-.054.65h1.463l.653-4.688c0-1.989-1.694-2.053-2.282-2.053zm.357 3.816c.032.287-.175 1.63-1.177 1.63-.516 0-.65-.405-.65-.643 0-.466.248-1.026 1.465-1.026.284 0 .314.032.362.04 0 0-.048-.008 0 0zm3.263 2.945c.484-2.817.574-5.106 1.728-4.687.203-1.09.398-1.512.618-1.974 0 0-.103-.022-.32-.022-.745 0-1.296 1.041-1.296 1.041l.148-.956h-1.547l-1.037 6.598h1.706z" fill="#fff"/></svg>