<svg width="60" height="38" viewBox="0 0 60 38" fill="none" xmlns="http://www.w3.org/2000/svg"><path d="M60 3.42H0v30.4h60V3.42z" fill="#F6F6F6"/><path fill-rule="evenodd" clip-rule="evenodd" d="M55.5 0H3C1.5 0 0 1.52 0 3.04V7.6h60V4.56C60 1.52 58.5 0 55.5 0z" fill="#265697"/><path fill-rule="evenodd" clip-rule="evenodd" d="M0 30.4v3.04C0 36.48 1.5 38 4.5 38h51c3 0 4.5-1.52 4.5-4.56V30.4H0z" fill="#D97B16"/><path fill-rule="evenodd" clip-rule="evenodd" d="M41.855 11.317c-.84-.326-2.158-.677-3.804-.677-4.194 0-7.148 2.187-7.173 5.321-.024 2.317 2.109 3.61 3.719 4.38 1.652.79 2.208 1.295 2.2 2-.01 1.081-1.32 1.575-2.54 1.575-1.698 0-2.601-.244-3.995-.846l-.547-.256-.596 3.61c.992.45 2.825.84 4.728.86 4.462 0 7.358-2.162 7.391-5.51.016-1.834-1.115-3.23-3.563-4.38-1.484-.746-2.392-1.244-2.383-2 0-.67.77-1.386 2.43-1.386a7.596 7.596 0 0 1 3.178.618l.38.186.575-3.495zm10.885-.382h-3.28c-1.016 0-1.777.288-2.223 1.338l-6.303 14.776h4.457s.728-1.987.893-2.423l5.436.007c.127.565.516 2.416.516 2.416h3.939l-3.436-16.113zm-5.234 10.393c.35-.929 1.69-4.507 1.69-4.507-.024.043.349-.934.563-1.54l.287 1.391.983 4.656h-3.523zm-25.287 5.716l2.653-16.124h4.245L26.46 27.044h-4.24zm-3.56-16.112l-4.156 10.995-.442-2.234c-.774-2.576-3.184-5.367-5.879-6.764l3.8 14.101 4.49-.005 6.683-16.093h-4.496z" fill="#265697"/><path fill-rule="evenodd" clip-rule="evenodd" d="M10.648 10.922H3.804l-.054.335c5.325 1.335 8.848 4.56 10.31 8.436l-1.488-7.41c-.257-1.02-1.002-1.325-1.924-1.361z" fill="#D97B16"/></svg>