<svg width="34" height="34" viewBox="0 0 34 34" fill="none" xmlns="http://www.w3.org/2000/svg">
<path d="M16.9919 34C26.3762 34 33.9838 26.3888 33.9838 17C33.9838 7.61117 26.3762 0 16.9919 0C7.60754 0 0 7.61117 0 17C0 26.3888 7.60754 34 16.9919 34Z" fill="#E2EBEE"/>
<path d="M31.3519 18.9793L29.1416 20.2561L25.9624 22.0928L24.1807 23.1218L8.89767 31.95C7.2068 31.032 5.68935 29.835 4.40625 28.4203V3.41432C4.40625 2.61777 4.9028 1.99322 5.55342 1.73862C6.03195 1.55129 6.59367 1.56377 7.10214 1.85729L8.16603 2.47208L20.7268 9.72789L25.9624 12.7518L28.0361 13.9495L31.3519 15.8653C32.5511 16.5571 32.5511 18.2869 31.3519 18.9793Z" fill="#7ADBA3"/>
<path d="M29.1332 20.2554L25.954 22.092L24.1723 23.1211L21.7456 20.6266H8.125L20.7185 9.72713L22.6361 8.06738C25.1571 8.06738 27.314 9.87909 27.7496 12.3639L28.0277 13.9486L29.1332 20.2554Z" fill="#2C8DB6"/>
<path d="M22.4694 19.0307H15.8807L10.2628 24.8048C8.73758 26.3725 6.10418 25.0248 6.48194 22.87L8.32441 12.3636C8.75999 9.87944 10.9165 8.06738 13.4375 8.06738H22.4695C25.4954 8.06738 27.9485 10.5215 27.9485 13.549C27.9484 16.5765 25.4954 19.0307 22.4694 19.0307Z" fill="#4AB8E6"/>
<path d="M16.5464 13.0293H14.5005V10.9824H12.9053V13.0293H10.8594V14.6253H12.9053V16.6722H14.5005V14.6253H16.5464V13.0293Z" fill="white"/>
<path d="M22.3304 12.7164C22.8666 12.7164 23.3014 12.2814 23.3014 11.7449C23.3014 11.2084 22.8666 10.7734 22.3304 10.7734C21.7941 10.7734 21.3594 11.2084 21.3594 11.7449C21.3594 12.2814 21.7941 12.7164 22.3304 12.7164Z" fill="white"/>
<path d="M22.3304 16.7114C22.8666 16.7114 23.3014 16.2765 23.3014 15.74C23.3014 15.2035 22.8666 14.7686 22.3304 14.7686C21.7941 14.7686 21.3594 15.2035 21.3594 15.74C21.3594 16.2765 21.7941 16.7114 22.3304 16.7114Z" fill="white"/>
<path d="M24.3304 14.7144C24.8666 14.7144 25.3014 14.2795 25.3014 13.7429C25.3014 13.2064 24.8666 12.7715 24.3304 12.7715C23.7941 12.7715 23.3594 13.2064 23.3594 13.7429C23.3594 14.2795 23.7941 14.7144 24.3304 14.7144Z" fill="white"/>
<path d="M20.3382 14.7144C20.8744 14.7144 21.3092 14.2795 21.3092 13.7429C21.3092 13.2064 20.8744 12.7715 20.3382 12.7715C19.8019 12.7715 19.3672 13.2064 19.3672 13.7429C19.3672 14.2795 19.8019 14.7144 20.3382 14.7144Z" fill="white"/>
</svg>
