<svg width="34" height="34" viewBox="0 0 34 34" fill="none" xmlns="http://www.w3.org/2000/svg"><path d="M16.992 34c9.384 0 16.992-7.611 16.992-17S26.376 0 16.992 0 0 7.611 0 17s7.608 17 16.992 17z" fill="#E2EBEE"/><path d="M31.352 18.98l-2.21 1.276-3.18 1.837-1.781 1.029L8.898 31.95a17.05 17.05 0 0 1-4.492-3.53V3.414c0-.796.497-1.42 1.147-1.675a1.773 1.773 0 0 1 1.55.118l1.063.615 12.56 7.256 5.236 3.024 2.074 1.197 3.316 1.916c1.2.692 1.2 2.422 0 3.114z" fill="#7ADBA3"/><path d="M29.133 20.255l-3.179 1.837-1.782 1.03-2.426-2.495H8.125l12.593-10.9 1.918-1.66a5.192 5.192 0 0 1 5.114 4.297l.278 1.585 1.105 6.306z" fill="#2C8DB6"/><path d="M22.47 19.03h-6.59l-5.617 5.775c-1.525 1.567-4.159.22-3.781-1.935l1.842-10.506a5.192 5.192 0 0 1 5.114-4.297h9.031a5.48 5.48 0 0 1 5.48 5.482 5.48 5.48 0 0 1-5.48 5.482z" fill="#4AB8E6"/><path d="M16.546 13.03h-2.045v-2.048h-1.596v2.047H10.86v1.596h2.046v2.047h1.596v-2.047h2.045V13.03zm5.784-.314a.971.971 0 1 0 0-1.942.971.971 0 0 0 0 1.942zm0 3.995a.971.971 0 1 0 0-1.942.971.971 0 0 0 0 1.942zm2-1.997a.971.971 0 1 0 0-1.942.971.971 0 0 0 0 1.942zm-3.992 0a.971.971 0 1 0 0-1.942.971.971 0 0 0 0 1.942z" fill="#fff"/></svg>