<svg width="30" height="30" viewBox="0 0 30 30" fill="none" xmlns="http://www.w3.org/2000/svg"><path d="M15 0C6.73 0 0 6.73 0 15s6.73 15 15 15 15-6.73 15-15S23.27 0 15 0zm0 28.378c-7.378 0-13.378-6-13.378-13.378S7.622 1.622 15 1.622s13.378 6 13.378 13.378-6 13.378-13.378 13.378z" fill="#4AB8E6"/><path d="M15 7.297c.446 0 .81-.365.81-.81V4.053a.813.813 0 0 0-.81-.81.813.813 0 0 0-.81.81v2.432c0 .446.364.811.81.811zm0 15.406a.813.813 0 0 0-.81.81v2.433c0 .446.364.81.81.81.446 0 .81-.364.81-.81v-2.433a.813.813 0 0 0-.81-.81zM22.703 15c0 .446.365.81.81.81h2.433c.446 0 .81-.364.81-.81a.813.813 0 0 0-.81-.81h-2.432a.813.813 0 0 0-.811.81zM7.297 15a.813.813 0 0 0-.81-.81H4.054a.813.813 0 0 0-.81.81c0 .446.364.81.81.81h2.433c.445 0 .81-.364.81-.81zM21.02 9.79a.808.808 0 0 0 .572-.239l1.719-1.719a.812.812 0 0 0-1.148-1.147l-1.718 1.72a.812.812 0 0 0 .575 1.386zM8.408 20.449l-1.719 1.719a.812.812 0 0 0 .572 1.386.808.808 0 0 0 .571-.24l1.72-1.718a.812.812 0 0 0 0-1.147.804.804 0 0 0-1.144 0zm13.184 0a.812.812 0 0 0-1.147 1.147l1.719 1.719a.806.806 0 0 0 .571.239.812.812 0 0 0 .572-1.386l-1.715-1.72zM7.832 6.685a.812.812 0 0 0-1.147 1.147l1.72 1.72a.808.808 0 0 0 .57.239.812.812 0 0 0 .572-1.386l-1.715-1.72zm10.61 3.527l-3.381 3.92-2.092-2.314a.813.813 0 0 0-1.204 1.09l2.23 2.465-.62.718a.81.81 0 0 0 .084 1.143.8.8 0 0 0 .527.198.827.827 0 0 0 .617-.28l.486-.567.527.58a.801.801 0 0 0 .6.268.813.813 0 0 0 .6-1.358l-.66-.73 3.51-4.075a.81.81 0 0 0-1.224-1.058z" fill="#4AB8E6"/></svg>