<svg width="35" height="29" viewBox="0 0 35 29" fill="none" xmlns="http://www.w3.org/2000/svg"><path d="M.398 19.26c0-3.734.934-7.327 2.8-10.78 1.867-3.454 4.247-6.207 7.14-8.26l4.2 3.36c-2.24 1.586-4.153 3.593-5.74 6.02-1.586 2.426-2.426 4.76-2.52 7 .187-.187.7-.28 1.54-.28 1.587 0 2.894.606 3.92 1.82 1.12 1.12 1.68 2.473 1.68 4.06 0 1.68-.606 3.126-1.82 4.34-1.12 1.12-2.52 1.68-4.2 1.68-1.96 0-3.64-.794-5.04-2.38-1.306-1.587-1.96-3.78-1.96-6.58zm19.88 0c0-3.734.934-7.327 2.8-10.78 1.867-3.454 4.247-6.207 7.14-8.26l4.2 3.36c-2.24 1.586-4.153 3.593-5.74 6.02-1.586 2.426-2.426 4.76-2.52 7 .187-.187.7-.28 1.54-.28 1.587 0 2.894.606 3.92 1.82 1.12 1.12 1.68 2.473 1.68 4.06 0 1.68-.606 3.126-1.82 4.34-1.12 1.12-2.52 1.68-4.2 1.68-1.96 0-3.64-.794-5.04-2.38-1.306-1.587-1.96-3.78-1.96-6.58z" fill="#4AB8E6"/></svg>