<svg width="50" height="50" viewBox="0 0 50 50" fill="none" xmlns="http://www.w3.org/2000/svg"><g clip-path="url(#a)"><path d="M24.797 49.594c13.695 0 24.797-11.102 24.797-24.797S38.492 0 24.797 0 0 11.102 0 24.797s11.102 24.797 24.797 24.797z" fill="#334C8C"/><path d="M31.081 22.451l-.411 3.452a.652.652 0 0 1-.653.58h-3.589V36.73a.463.463 0 0 1-.457.467h-3.657a.464.464 0 0 1-.457-.47l.02-10.242h-2.718a.652.652 0 0 1-.653-.653V22.38a.652.652 0 0 1 .653-.652h2.701V18.38c0-3.873 2.304-5.98 5.678-5.98H30.3a.652.652 0 0 1 .653.652v2.907a.653.653 0 0 1-.653.653h-1.693c-1.834.03-2.18.907-2.18 2.218v2.888h4.017a.654.654 0 0 1 .636.734z" fill="#fff"/></g><defs><clipPath id="a"><path fill="#fff" d="M0 0h49.594v49.594H0z"/></clipPath></defs></svg>