<svg width="51" height="50" viewBox="0 0 51 50" fill="none" xmlns="http://www.w3.org/2000/svg"><g clip-path="url(#a)"><path d="M25.6 0c13.64 0 24.797 11.16 24.797 24.797S39.24 49.594 25.6 49.594C11.962 49.594.803 38.435.803 24.797S11.963 0 25.6 0z" fill="#DD4B39"/><path d="M38.154 20.612v2.79h2.79v2.79h-2.79v2.79h-2.79v-2.79h-2.79v-2.79h2.79v-2.79h2.79zM13.047 31.771c-3.72-3.72-3.72-10.229.155-13.948 2.79-2.79 6.819-3.41 10.383-2.015l1.395.775 1.55 1.085-2.48 2.48-.93-.62c-2.17-1.395-5.269-1.085-7.284.93-2.324 2.325-2.48 6.509 0 8.989 2.325 2.48 6.51 2.48 8.68 0 .62-.62 1.24-1.55 1.394-2.48v-.31h-5.579v-3.1h8.834l.155.775v2.17c-.155 2.015-.93 4.03-2.325 5.424-3.72 3.565-10.229 3.565-13.948-.155z" fill="#fff"/></g><defs><clipPath id="a"><path fill="#fff" transform="translate(.803)" d="M0 0h49.594v49.594H0z"/></clipPath></defs></svg>