<svg width="51" height="50" viewBox="0 0 51 50" fill="none" xmlns="http://www.w3.org/2000/svg"><g clip-path="url(#a)"><path d="M25.4 49.594c13.694 0 24.797-11.102 24.797-24.797S39.093 0 25.399 0C11.704 0 .604 11.102.604 24.797S11.705 49.594 25.4 49.594z" fill="#FF6800"/><path d="M24.18 29.864c-1.922-.199-3.655-.672-5.14-1.834a6.537 6.537 0 0 1-.541-.443 1.54 1.54 0 0 1 1.742-2.513c.15.07.291.155.424.252a8.43 8.43 0 0 0 9.342.084c.269-.215.578-.374.91-.47a1.426 1.426 0 0 1 1.631.653c.408.653.402 1.305-.098 1.82a7.503 7.503 0 0 1-2.718 1.76 12.72 12.72 0 0 1-3.083.688c.16.173.235.258.326.359 1.43 1.435 2.862 2.861 4.284 4.303a1.413 1.413 0 0 1 .327 1.668 1.684 1.684 0 0 1-1.586.978 1.53 1.53 0 0 1-1.011-.502c-1.08-1.083-2.177-2.15-3.234-3.263-.306-.326-.453-.26-.724 0a215.539 215.539 0 0 1-3.296 3.309 1.386 1.386 0 0 1-1.667.3 1.69 1.69 0 0 1-.979-1.553c.031-.403.219-.778.522-1.044a3855.05 3855.05 0 0 0 4.242-4.242c.104-.065.19-.157.326-.31z" fill="#fff"/><path d="M25.35 24.95a6.277 6.277 0 1 1 .073-12.553 6.277 6.277 0 0 1-.072 12.553zm3.117-6.28a3.07 3.07 0 1 0-3.051 3.076 3.061 3.061 0 0 0 3.05-3.076z" fill="#fff"/></g><defs><clipPath id="a"><path fill="#fff" transform="translate(.603)" d="M0 0h49.594v49.594H0z"/></clipPath></defs></svg>