<svg width="50" height="50" viewBox="0 0 50 50" fill="none" xmlns="http://www.w3.org/2000/svg"><g clip-path="url(#a)"><path d="M24.998 49.594c13.695 0 24.797-11.102 24.797-24.797S38.693 0 24.998 0 .2 11.102.2 24.797s11.102 24.797 24.797 24.797z" fill="#00A6DE"/><path d="M37.347 17.293a10.471 10.471 0 0 1-2.124 2.333.906.906 0 0 0-.326.708v.081a14.87 14.87 0 0 1-.96 5.175 15.154 15.154 0 0 1-2.821 4.73 13.94 13.94 0 0 1-6.118 4.044 15.304 15.304 0 0 1-4.81.747c-2.59 0-5.134-.686-7.373-1.987a.424.424 0 0 1-.203-.47.408.408 0 0 1 .399-.307h.62a9.866 9.866 0 0 0 5.526-1.677 5.357 5.357 0 0 1-4.241-3.641.28.28 0 0 1 .326-.362c.297.055.599.084.9.084h.115a5.361 5.361 0 0 1-3.123-4.93.28.28 0 0 1 .415-.244 4.73 4.73 0 0 0 1.22.473 5.356 5.356 0 0 1-.864-6.5.28.28 0 0 1 .46-.039 14.008 14.008 0 0 0 9.628 5.149h.026a.203.203 0 0 0 .186-.138.202.202 0 0 0 .01-.08 5.665 5.665 0 0 1 .124-1.958 5.19 5.19 0 0 1 3.491-3.733 5.74 5.74 0 0 1 1.693-.261 5.338 5.338 0 0 1 3.537 1.335c.127.113.29.175.46.176a.702.702 0 0 0 .163-.023 9.786 9.786 0 0 0 2.61-1.08.277.277 0 0 1 .408.326 5.296 5.296 0 0 1-1.406 2.242 9.851 9.851 0 0 0 1.71-.578.28.28 0 0 1 .342.405z" fill="#fff"/></g><defs><clipPath id="a"><path fill="#fff" transform="translate(.2)" d="M0 0h49.594v49.594H0z"/></clipPath></defs></svg>