<svg width="50" height="50" viewBox="0 0 50 50" fill="none" xmlns="http://www.w3.org/2000/svg"><g clip-path="url(#a)"><path d="M25.199 49.594c13.695 0 24.797-11.102 24.797-24.797S38.894 0 25.199 0 .402 11.102.402 24.797s11.102 24.797 24.797 24.797z" fill="#4065D6"/><path d="M36.635 31.884c-.581.081-3.403 0-3.55 0a2.777 2.777 0 0 1-1.958-.78c-.597-.574-1.135-1.207-1.706-1.804a5.12 5.12 0 0 0-.558-.506c-.467-.356-.927-.274-1.145.274-.172.594-.29 1.202-.353 1.817a.979.979 0 0 1-1.014.94c-.386.02-.77.03-1.152.02a8.81 8.81 0 0 1-3.99-.98 10.914 10.914 0 0 1-3.41-2.981 36.07 36.07 0 0 1-3.778-6.2c-.056-.11-1.155-2.45-1.182-2.558a.652.652 0 0 1 .304-.848c.196-.075 3.82 0 3.88 0a1.266 1.266 0 0 1 1.216.878 18.929 18.929 0 0 0 2.718 4.757c.158.195.344.365.552.506a.417.417 0 0 0 .698-.213c.143-.471.228-.959.251-1.451.02-.98 0-1.632-.055-2.61a1.269 1.269 0 0 0-1.178-1.342c-.287-.049-.327-.284-.128-.518.382-.486.91-.565 1.485-.594.868-.05 1.739 0 2.61 0h.19a5.59 5.59 0 0 1 1.138.114 1.038 1.038 0 0 1 .826.927c.044.246.063.496.058.747-.023 1.067-.075 2.134-.088 3.204a5.8 5.8 0 0 0 .114 1.26c.128.567.516.71.914.296a14.38 14.38 0 0 0 1.36-1.703 16.993 16.993 0 0 0 1.808-3.508c.251-.633.444-.773 1.126-.773h3.847c.23-.004.458.027.678.092a.587.587 0 0 1 .405.757 6.378 6.378 0 0 1-1.136 2.25c-.783 1.107-1.605 2.187-2.407 3.264-.102.14-.195.288-.278.44-.3.542-.277.848.157 1.305.698.718 1.445 1.393 2.117 2.13.496.538.944 1.118 1.338 1.733.496.796.192 1.527-.724 1.658z" fill="#fff"/></g><defs><clipPath id="a"><path fill="#fff" transform="translate(.402)" d="M0 0h49.594v49.594H0z"/></clipPath></defs></svg>