<svg width="35" height="35" viewBox="0 0 35 35" fill="none" xmlns="http://www.w3.org/2000/svg"><path d="M17.5 35C27.165 35 35 27.165 35 17.5S27.165 0 17.5 0 0 7.835 0 17.5 7.835 35 17.5 35z" fill="#F20000"/><path d="M25.84 13.29c-.35-1.086-1.508-1.728-2.583-1.878a54.527 54.527 0 0 0-11.532 0c-1.066.15-2.224.801-2.574 1.879a21.861 21.861 0 0 0 0 8.42c.359 1.085 1.517 1.73 2.592 1.88 3.834.405 7.699.405 11.532 0 1.066-.15 2.224-.804 2.574-1.88.543-2.78.54-5.64-.009-8.42zm-10.433 7.563v-6.706l5.46 3.353c-1.84 1.13-3.627 2.231-5.46 3.353z" fill="#fff"/></svg>