<svg width="15" height="16" viewBox="0 0 15 16" fill="none" xmlns="http://www.w3.org/2000/svg"><path d="M7.162 8.308a4.165 4.165 0 0 0 4.154-4.154A4.165 4.165 0 0 0 7.162 0a4.165 4.165 0 0 0-4.154 4.154 4.165 4.165 0 0 0 4.154 4.154zm7.129 3.32a3.873 3.873 0 0 0-.417-.762c-.834-1.233-2.122-2.05-3.574-2.25a.765.765 0 0 0-.526.128 4.37 4.37 0 0 1-2.612.852 4.37 4.37 0 0 1-2.612-.852.68.68 0 0 0-.526-.127 5.126 5.126 0 0 0-3.574 2.25 4.466 4.466 0 0 0-.417.761.386.386 0 0 0 .018.345c.145.254.327.508.49.725.254.345.526.653.834.944.254.254.544.49.835.725A8.219 8.219 0 0 0 7.144 16a8.219 8.219 0 0 0 4.934-1.633c.29-.217.58-.471.835-.725a8.364 8.364 0 0 0 1.324-1.67c.09-.108.109-.235.054-.344z" fill="#4AB8E6"/></svg>