<svg width="38" height="38" viewBox="0 0 38 38" fill="none" xmlns="http://www.w3.org/2000/svg"><path fill-rule="evenodd" clip-rule="evenodd" d="M19 .667a18.281 18.281 0 0 1 12.964 5.37A18.282 18.282 0 0 1 37.334 19a18.28 18.28 0 0 1-5.37 12.963A18.282 18.282 0 0 1 19 37.334a18.28 18.28 0 0 1-12.964-5.37A18.281 18.281 0 0 1 .666 19a18.282 18.282 0 0 1 5.37-12.964A18.282 18.282 0 0 1 19 .666zm0 35L19.002 34a14.949 14.949 0 0 0 10.603-4.392l.003-.003A14.947 14.947 0 0 0 34 19.002v-.004a14.946 14.946 0 0 0-4.392-10.603l-.003-.003A14.947 14.947 0 0 0 19.002 4h-.004A14.948 14.948 0 0 0 8.395 8.392l-.003.003A14.948 14.948 0 0 0 4 18.998v.004a14.948 14.948 0 0 0 4.392 10.603l.003.003A14.947 14.947 0 0 0 18.998 34L19 35.667z" fill="#F49C9C"/><path fill-rule="evenodd" clip-rule="evenodd" d="M19 29.833a2.083 2.083 0 1 0 0-4.166 2.083 2.083 0 0 0 0 4.166zm0-22.5c.92 0 1.667.746 1.667 1.667v13.333a1.667 1.667 0 0 1-3.334 0V9c0-.92.746-1.667 1.667-1.667z" fill="#F49C9C"/></svg>