<svg width="32" height="32" viewBox="0 0 32 32" fill="none" xmlns="http://www.w3.org/2000/svg"><path d="M27.314 4.686A15.895 15.895 0 0 0 16 0 15.895 15.895 0 0 0 4.686 4.686 15.895 15.895 0 0 0 0 16c0 4.274 1.664 8.292 4.686 11.314A15.895 15.895 0 0 0 16 32c4.274 0 8.292-1.664 11.314-4.686A15.895 15.895 0 0 0 32 16c0-4.274-1.664-8.292-4.686-11.314zM8.02 27.65A8.078 8.078 0 0 1 16 20.954c3.97 0 7.31 2.842 7.979 6.695A14.045 14.045 0 0 1 16 30.125c-2.959 0-5.707-.915-7.979-2.476zm2.892-13.657A5.093 5.093 0 0 1 16 8.904a5.093 5.093 0 0 1 5.087 5.088A5.093 5.093 0 0 1 16 19.079a5.093 5.093 0 0 1-5.087-5.087zm14.69 12.357a9.968 9.968 0 0 0-2.912-4.693 9.966 9.966 0 0 0-2.897-1.83 6.962 6.962 0 0 0 3.169-5.834A6.97 6.97 0 0 0 16 7.029a6.97 6.97 0 0 0-6.962 6.963 6.962 6.962 0 0 0 3.168 5.835 9.969 9.969 0 0 0-2.897 1.829 9.968 9.968 0 0 0-2.912 4.692A14.09 14.09 0 0 1 1.875 16C1.875 8.211 8.211 1.875 16 1.875S30.125 8.211 30.125 16a14.09 14.09 0 0 1-4.522 10.349z" fill="#4AB8E6"/></svg>