<svg width="32" height="32" viewBox="0 0 32 32" fill="none" xmlns="http://www.w3.org/2000/svg">
<path d="M27.3137 4.68628C24.2917 1.66431 20.2737 0 16 0C11.7261 0 7.70825 1.66431 4.68628 4.68628C1.66431 7.70825 0 11.7261 0 16C0 20.2737 1.66431 24.2917 4.68628 27.3137C7.70825 30.3357 11.7261 32 16 32C20.2737 32 24.2917 30.3357 27.3137 27.3137C30.3357 24.2917 32 20.2737 32 16C32 11.7261 30.3357 7.70825 27.3137 4.68628ZM8.02124 27.6492C8.69043 23.7961 12.0293 20.9541 16 20.9541C19.9709 20.9541 23.3096 23.7961 23.9788 27.6492C21.707 29.21 18.9585 30.125 16 30.125C13.0415 30.125 10.293 29.21 8.02124 27.6492ZM10.9126 13.9917C10.9126 11.1863 13.1948 8.9043 16 8.9043C18.8052 8.9043 21.0874 11.1865 21.0874 13.9917C21.0874 16.7969 18.8052 19.0791 16 19.0791C13.1948 19.0791 10.9126 16.7969 10.9126 13.9917ZM25.6028 26.3486C25.0981 24.5549 24.0959 22.9275 22.6912 21.6562C21.8293 20.8762 20.8484 20.2607 19.7937 19.8269C21.7 18.5835 22.9626 16.4324 22.9626 13.9917C22.9626 10.1526 19.8391 7.0293 16 7.0293C12.1609 7.0293 9.0376 10.1526 9.0376 13.9917C9.0376 16.4324 10.3003 18.5835 12.2063 19.8269C11.1519 20.2607 10.1707 20.876 9.30884 21.656C7.9043 22.9272 6.90186 24.5547 6.39722 26.3484C3.61768 23.7671 1.875 20.0835 1.875 16C1.875 8.21143 8.21143 1.875 16 1.875C23.7886 1.875 30.125 8.21143 30.125 16C30.125 20.0837 28.3823 23.7673 25.6028 26.3486Z" fill="#4AB8E6"/>
</svg>
