<svg width="22" height="24" viewBox="0 0 22 24" fill="none" xmlns="http://www.w3.org/2000/svg"><path d="M8.25.75a3.74 3.74 0 0 1 2.813 1.27 3.75 3.75 0 0 1 6.06 4.355H19.5a1.875 1.875 0 0 1 1.875 1.875V12a1.875 1.875 0 0 1-1.875 1.875V19.5a3.75 3.75 0 0 1-3.75 3.75H6.375a3.75 3.75 0 0 1-3.75-3.75v-5.625A1.875 1.875 0 0 1 .75 12V8.25a1.875 1.875 0 0 1 1.875-1.875h2.378A3.75 3.75 0 0 1 8.25.75zM6.375 4.5A1.875 1.875 0 0 0 8.25 6.375h1.875V4.5a1.875 1.875 0 1 0-3.75 0zM12 8.25V12h7.5V8.25H12zm-1.875 0h-7.5V12h7.5V8.25zM4.5 13.875V19.5a1.875 1.875 0 0 0 1.875 1.875h3.75v-7.5H4.5zm7.5 7.5h3.75a1.875 1.875 0 0 0 1.875-1.875v-5.625H12v7.5zM15.75 4.5a1.875 1.875 0 1 0-3.75 0v1.875h1.875A1.875 1.875 0 0 0 15.75 4.5z" fill="#99A2AC"/></svg>