<svg width="42" height="49" viewBox="0 0 42 49" fill="none" xmlns="http://www.w3.org/2000/svg">
<path fill-rule="evenodd" clip-rule="evenodd" d="M6.87373 2.04512C7.90533 1.04371 9.28873 0.487663 10.7275 0.498194C12.1658 0.50872 13.5422 1.08457 14.5594 2.10138C15.5766 3.11818 16.1531 4.49432 16.1642 5.93256C16.1754 7.3708 15.6203 8.7557 14.6189 9.78814L14.6094 9.79803L9.42693 14.9815C9.42606 14.9824 9.4252 14.9833 9.42433 14.9842C8.91703 15.4947 8.31408 15.9002 7.64995 16.1775C6.98468 16.4553 6.2711 16.5991 5.55016 16.6005C4.82921 16.6019 4.11508 16.4609 3.44872 16.1857C2.78237 15.9105 2.17691 15.5065 1.66707 14.9967C1.15723 14.487 0.75304 13.8816 0.477692 13.2153C0.202343 12.549 0.0612504 11.8349 0.0625083 11.114C0.0637662 10.393 0.207349 9.67944 0.485021 9.01411C0.762246 8.34985 1.16768 7.74677 1.67814 7.23933L6.86413 2.05444L6.87373 2.04512ZM9.41085 4.64276L4.23889 9.81362C4.06646 9.98482 3.92952 10.1884 3.83593 10.4126C3.74235 10.6368 3.69396 10.8773 3.69353 11.1203C3.69311 11.3633 3.74066 11.604 3.83346 11.8285C3.92627 12.0531 4.06249 12.2571 4.23432 12.4289C4.40616 12.6007 4.61022 12.7369 4.8348 12.8297C5.05938 12.9224 5.30006 12.9699 5.54305 12.9694C5.78603 12.969 6.02652 12.9205 6.25074 12.8269C6.47496 12.7333 6.67848 12.5963 6.84964 12.4238L6.85438 12.419L12.0204 7.2519C12.3529 6.90483 12.537 6.4416 12.5333 5.96068C12.5296 5.47595 12.3353 5.01215 11.9924 4.66945C11.6496 4.32676 11.1857 4.13268 10.701 4.12913C10.2205 4.12561 9.7582 4.30961 9.41085 4.64276ZM18.0729 11.5566C19.0991 10.5304 20.4918 9.95119 21.9459 9.95119C23.3986 9.95119 24.7917 10.5283 25.8189 11.5555C26.8461 12.5827 27.4232 13.9758 27.4232 15.4285C27.4232 16.8811 26.8462 18.2742 25.819 19.3014C25.819 19.3015 25.8191 19.3014 25.819 19.3014L18.9158 26.2058C18.4072 26.7144 17.8032 27.1179 17.1387 27.3932C16.4742 27.6685 15.7619 27.8101 15.0426 27.8101C14.3234 27.8101 13.6111 27.6685 12.9466 27.3932C12.282 27.1179 11.6782 26.7145 11.1696 26.2059C10.661 25.6973 10.2575 25.0934 9.98228 24.4289C9.70702 23.7644 9.56534 23.0521 9.56534 22.3328C9.56534 21.6136 9.70702 20.9013 9.98228 20.2368C10.2575 19.5722 10.661 18.9684 11.1696 18.4598L18.0729 11.5566ZM21.9459 13.5822C21.4576 13.5822 20.9876 13.7769 20.6404 14.1241L13.7371 21.0273C13.5657 21.1988 13.4297 21.4023 13.3369 21.6263C13.2441 21.8503 13.1964 22.0904 13.1964 22.3328C13.1964 22.5753 13.2441 22.8154 13.3369 23.0394C13.4297 23.2634 13.5657 23.4669 13.7371 23.6383C13.9086 23.8098 14.1121 23.9458 14.3361 24.0386C14.5601 24.1314 14.8002 24.1791 15.0426 24.1791C15.2851 24.1791 15.5252 24.1314 15.7492 24.0386C15.9732 23.9458 16.1767 23.8098 16.3481 23.6383L23.2513 16.7341C23.5975 16.3879 23.7922 15.9182 23.7922 15.4285C23.7922 14.9388 23.5976 14.4692 23.2514 14.123C22.9052 13.7767 22.4355 13.5822 21.9459 13.5822Z" fill="#5BB7E5"/>
<path fill-rule="evenodd" clip-rule="evenodd" d="M19.3543 2.17579C20.0753 2.17453 20.7894 2.31562 21.4557 2.59097C22.122 2.86632 22.7273 3.27051 23.2371 3.78035C23.7468 4.29019 24.1509 4.89566 24.4261 5.56201C24.7013 6.22836 24.8422 6.94249 24.8408 7.66344C24.8394 8.38438 24.6957 9.09795 24.4179 9.76323C24.1405 10.4273 23.735 11.0303 23.2246 11.5375C23.2237 11.5384 23.2228 11.5393 23.2219 11.5402L11.1473 23.617C10.1201 24.6442 8.72684 25.2214 7.27417 25.2214C5.8215 25.2214 4.42833 24.6443 3.40114 23.6171C2.37395 22.5899 1.79688 21.1968 1.79688 19.7441C1.79688 18.2914 2.37395 16.8982 3.40114 15.8711L15.4772 3.79499C15.4781 3.79414 15.4789 3.7933 15.4797 3.79245C15.9855 3.28369 16.5881 2.87642 17.2545 2.5983C17.9198 2.32063 18.6334 2.17705 19.3543 2.17579ZM20.0689 5.94675C19.8443 5.85394 19.6037 5.80639 19.3607 5.80682C19.1177 5.80724 18.8772 5.85563 18.6529 5.94922C18.4309 6.0419 18.2268 6.17917 18.054 6.35327L18.0494 6.3579L5.96867 18.4386C5.62242 18.7848 5.42791 19.2544 5.42791 19.7441C5.42791 20.2337 5.62242 20.7033 5.96867 21.0496C6.31491 21.3958 6.78451 21.5903 7.27417 21.5903C7.76378 21.5903 8.23333 21.3959 8.57956 21.0497C8.5796 21.0497 8.57952 21.0497 8.57956 21.0497L20.6591 8.96792L20.6642 8.96292C20.8366 8.79177 20.9736 8.58824 21.0672 8.36402C21.1609 8.13981 21.2093 7.89931 21.2098 7.65633C21.2103 7.41334 21.1628 7.17266 21.07 6.94808C20.9773 6.72349 20.8411 6.51943 20.6693 6.3476C20.4975 6.17577 20.2935 6.03955 20.0689 5.94675ZM37.5894 35.3688L22.3851 20.1644L24.9526 17.5969L40.157 32.8012C42.2621 34.9063 41.4684 38.1652 39.6247 40.0119L39.6237 40.0129C37.7766 41.86 34.517 42.6502 32.4126 40.5479L17.2076 25.3429L19.7752 22.7754L34.9789 37.9791C34.9791 37.9794 34.9787 37.9789 34.9789 37.9791M37.5894 35.3688C37.693 35.4724 37.8104 35.6886 37.7644 36.0887ZM37.7644 36.0887C37.7179 36.4927 37.5021 36.9982 37.0561 37.4454Z" fill="#5BB7E5"/>
<path fill-rule="evenodd" clip-rule="evenodd" d="M6.74246 21.8237C7.69718 21.5173 8.71952 22.0428 9.02592 22.9975C10.6641 28.1018 10.6151 32.5508 7.86596 35.6217L7.86574 35.6219C6.75517 36.862 6.15595 39.3083 6.66236 41.4791C6.90471 42.518 7.37457 43.3672 8.0302 43.948C8.66311 44.5087 9.58489 44.9243 10.9587 44.9243C16.2656 44.9243 17.5233 38.6135 13.2992 36.4402C12.4076 35.9815 12.0567 34.8869 12.5155 33.9953C12.9742 33.1037 14.0688 32.7528 14.9604 33.2115C22.7674 37.2282 19.8535 48.5553 10.9587 48.5553C8.78201 48.5553 6.97994 47.8685 5.62245 46.666C4.28769 45.4835 3.50059 43.9086 3.12627 42.304C2.39935 39.1879 3.12781 35.4698 5.16063 33.1998M6.74246 21.8237C5.78774 22.1301 5.26218 23.1524 5.56858 24.1071ZM5.56858 24.1071C7.07504 28.801 6.60073 31.5909 5.16086 33.1995Z" fill="#5BB7E5"/>
</svg>
