<svg width="42" height="47" viewBox="0 0 42 47" fill="none" xmlns="http://www.w3.org/2000/svg">
<path fill-rule="evenodd" clip-rule="evenodd" d="M34.3978 16.575C36.1478 16.5749 37.8317 17.2435 39.1049 18.444C40.3782 19.6446 41.1445 21.2863 41.2472 23.0333L41.2586 23.4358V30.2966C41.2586 31.7602 40.3919 32.9014 39.2415 33.4228L38.9717 33.5303V41.7313C38.972 42.8852 38.5362 43.9966 37.7516 44.8427C36.967 45.6889 35.8915 46.2071 34.7408 46.2937L34.3978 46.3051H6.95456C5.80063 46.3055 4.6892 45.8697 3.84307 45.0851C2.99695 44.3004 2.47867 43.225 2.39212 42.0743L2.38069 41.7313V33.5326C1.76329 33.3176 1.22085 32.9293 0.818156 32.4143C0.415461 31.8993 0.169537 31.2792 0.109758 30.6282L0.09375 30.2966V23.4358C0.0936525 21.6858 0.762279 20.0019 1.96283 18.7287C3.16337 17.4554 4.80508 16.6891 6.55206 16.5864L6.95456 16.575H34.3978ZM34.2446 31.8974C33.8898 31.6312 33.4653 31.4739 33.0227 31.4447C32.5801 31.4154 32.1385 31.5155 31.7518 31.7328L31.5003 31.8974L30.8919 32.3548C29.7697 33.1969 28.4163 33.6747 27.0141 33.7238C25.6119 33.7728 24.2284 33.3908 23.05 32.6292L22.659 32.3548L22.0483 31.8974C21.6936 31.6312 21.269 31.4739 20.8264 31.4447C20.3838 31.4154 19.9423 31.5155 19.5556 31.7328L19.304 31.8974L18.6934 32.3548C17.5714 33.1964 16.2184 33.6739 14.8167 33.723C13.415 33.772 12.0319 33.3903 10.8538 32.6292L10.4604 32.3548L9.85211 31.8974C9.49733 31.6312 9.07279 31.4739 8.6302 31.4447C8.1876 31.4154 7.74606 31.5155 7.35935 31.7328L7.10778 31.8974L6.95456 32.0118V41.7313H34.3978V32.0118L34.2446 31.8974ZM34.3978 21.1488H6.95456C6.34803 21.1488 5.76634 21.3898 5.33745 21.8187C4.90857 22.2475 4.66762 22.8292 4.66762 23.4358V28.0211C5.84905 27.2319 7.24635 26.8289 8.66661 26.8678C10.0869 26.9067 11.46 27.3856 12.5964 28.2383L13.2048 28.6957C13.6006 28.9926 14.0821 29.1531 14.5769 29.1531C15.0717 29.1531 15.5532 28.9926 15.9491 28.6957L16.5597 28.2383C17.7473 27.3476 19.1917 26.8662 20.6762 26.8662C22.1607 26.8662 23.6051 27.3476 24.7927 28.2383L25.4033 28.6957C25.7991 28.9926 26.2806 29.1531 26.7754 29.1531C27.2703 29.1531 27.7517 28.9926 28.1476 28.6957L28.7559 28.2383C29.8924 27.3856 31.2655 26.9067 32.6858 26.8678C34.106 26.8289 35.5033 27.2319 36.6847 28.0211V23.4358C36.6847 22.8292 36.4438 22.2475 36.0149 21.8187C35.586 21.3898 35.0043 21.1488 34.3978 21.1488ZM22.0483 1.02379C22.9938 1.76233 23.8716 2.58353 24.6715 3.47768C25.8698 4.82468 27.537 7.09561 27.537 9.71415C27.537 11.5337 26.8142 13.2788 25.5275 14.5655C24.2409 15.8521 22.4958 16.575 20.6762 16.575C18.8566 16.575 17.1115 15.8521 15.8249 14.5655C14.5382 13.2788 13.8154 11.5337 13.8154 9.71415C13.8154 7.09561 15.4848 4.82468 16.6809 3.47768C17.4808 2.58353 18.3586 1.76233 19.304 1.02379C19.6999 0.726899 20.1814 0.566406 20.6762 0.566406C21.171 0.566406 21.6525 0.726899 22.0483 1.02379ZM20.6762 5.90412C20.4775 6.1028 20.2845 6.30719 20.0976 6.51701C19.009 7.74281 18.3892 8.90229 18.3892 9.71415C18.3892 10.3207 18.6302 10.9024 19.0591 11.3313C19.488 11.7601 20.0696 12.0011 20.6762 12.0011C21.2827 12.0011 21.8644 11.7601 22.2933 11.3313C22.7222 10.9024 22.9631 10.3207 22.9631 9.71415C22.9631 8.90229 22.3456 7.74281 21.2548 6.51701C21.0679 6.30719 20.8749 6.1028 20.6762 5.90412Z" fill="white"/>
</svg>
