<svg width="42" height="47" viewBox="0 0 42 47" fill="none" xmlns="http://www.w3.org/2000/svg"><path fill-rule="evenodd" clip-rule="evenodd" d="M34.398 16.575a6.86 6.86 0 0 1 6.85 6.458l.01.403v6.86c0 1.464-.866 2.605-2.017 3.127l-.27.107v8.201a4.574 4.574 0 0 1-4.23 4.563l-.343.011H6.955a4.574 4.574 0 0 1-4.563-4.23l-.011-.344v-8.198A3.405 3.405 0 0 1 .11 30.628l-.016-.331v-6.861a6.86 6.86 0 0 1 6.458-6.85l.403-.011h27.443zm-.153 15.322a2.287 2.287 0 0 0-2.493-.164l-.252.164-.608.458a6.86 6.86 0 0 1-7.842.274l-.391-.274-.61-.458a2.287 2.287 0 0 0-2.493-.164l-.252.164-.61.458a6.861 6.861 0 0 1-7.84.274l-.394-.274-.608-.458a2.287 2.287 0 0 0-2.493-.164l-.251.164-.153.115v9.72h27.443v-9.72l-.153-.115zm.153-10.748H6.955a2.287 2.287 0 0 0-2.287 2.287v4.585a6.861 6.861 0 0 1 7.928.217l.609.458a2.287 2.287 0 0 0 2.744 0l.61-.458a6.86 6.86 0 0 1 8.234 0l.61.458a2.287 2.287 0 0 0 2.745 0l.608-.458a6.861 6.861 0 0 1 7.929-.217v-4.585a2.287 2.287 0 0 0-2.287-2.287zM22.048 1.024c.946.738 1.824 1.56 2.624 2.454 1.198 1.347 2.865 3.618 2.865 6.236a6.86 6.86 0 0 1-13.722 0c0-2.618 1.67-4.89 2.866-6.236.8-.894 1.678-1.716 2.623-2.454a2.287 2.287 0 0 1 2.744 0zm-1.372 4.88a15.22 15.22 0 0 0-.578.613c-1.089 1.226-1.709 2.385-1.709 3.197a2.287 2.287 0 0 0 4.574 0c0-.812-.617-1.971-1.708-3.197-.187-.21-.38-.414-.579-.613z" fill="#fff"/></svg>