<svg width="36" height="36" viewBox="0 0 36 36" fill="none" xmlns="http://www.w3.org/2000/svg"><path d="M11.484 28.002a3.758 3.758 0 1 0 0 7.516 3.758 3.758 0 0 0 0-7.517zm0 5.846a2.088 2.088 0 1 1 0-4.176 2.088 2.088 0 0 1 0 4.176zm15.869-5.846a3.758 3.758 0 1 0 0 7.516 3.758 3.758 0 0 0 0-7.517zm0 5.846a2.088 2.088 0 1 1 0-4.176 2.088 2.088 0 0 1 0 4.176zm8.477-27.77a1.044 1.044 0 0 0-.668-.334L7.976 5.368 7.224 3.07A3.842 3.842 0 0 0 3.634.48h-2.8a.835.835 0 1 0 0 1.671h2.798c.908.02 1.708.603 2.005 1.462l5.303 15.994-.418.96a4.01 4.01 0 0 0 .376 3.633 3.884 3.884 0 0 0 3.132 1.754h16.245a.835.835 0 1 0 0-1.67H14.03a2.13 2.13 0 0 1-1.754-1.002 2.297 2.297 0 0 1-.208-2.005l.334-.752 17.58-1.837a4.594 4.594 0 0 0 3.968-3.508l2.004-8.393a.71.71 0 0 0-.125-.71zm-3.508 8.727a2.84 2.84 0 0 1-2.547 2.214l-17.372 1.795L8.519 7.038l25.599.376-1.796 7.392z" fill="#4AB8E6"/></svg>