<svg width="22" height="22" viewBox="0 0 22 22" fill="none" xmlns="http://www.w3.org/2000/svg"><path d="M11 0C4.934 0 0 4.934 0 11s4.934 11 11 11 11-4.935 11-11S17.066 0 11 0zm0 20.296c-5.125 0-9.296-4.17-9.296-9.296 0-5.126 4.17-9.296 9.296-9.296 5.125 0 9.296 4.17 9.296 9.296 0 5.126-4.17 9.296-9.296 9.296z" fill="#99A2AC"/><path d="M15.26 10.071h-3.408V6.663a.852.852 0 1 0-1.704 0v3.408H6.74a.852.852 0 1 0 0 1.704h3.408v3.409a.852.852 0 1 0 1.704 0v-3.409h3.408a.852.852 0 1 0 0-1.704z" fill="#99A2AC"/></svg>