<svg width="34" height="34" viewBox="0 0 34 34" fill="none" xmlns="http://www.w3.org/2000/svg"><g clip-path="url(#a)" fill="#fff"><path d="M31.74 17.44a.996.996 0 0 1 0-.88l1.267-2.594a2.952 2.952 0 0 0-1.273-3.92l-2.55-1.353a.996.996 0 0 1-.519-.713l-.498-2.844a2.952 2.952 0 0 0-3.335-2.422l-2.858.404a.996.996 0 0 1-.838-.272L19.06.838a2.951 2.951 0 0 0-4.121 0l-2.076 2.008a.997.997 0 0 1-.837.272l-2.86-.404a2.951 2.951 0 0 0-3.334 2.422L5.335 7.98a.997.997 0 0 1-.518.713l-2.55 1.353a2.952 2.952 0 0 0-1.274 3.92L2.26 16.56c.137.28.137.6 0 .88L.993 20.035a2.952 2.952 0 0 0 1.273 3.92l2.551 1.352a.997.997 0 0 1 .518.713l.498 2.844a2.95 2.95 0 0 0 3.335 2.422l2.859-.404a.996.996 0 0 1 .837.272l2.075 2.008a2.954 2.954 0 0 0 4.122 0l2.075-2.008a.998.998 0 0 1 .838-.272l2.858.404a2.951 2.951 0 0 0 3.335-2.422l.498-2.844a.997.997 0 0 1 .518-.713l2.55-1.353a2.952 2.952 0 0 0 1.274-3.92L31.74 17.44zM13.077 8.176a3.6 3.6 0 0 1 3.595 3.595 3.6 3.6 0 0 1-3.595 3.595 3.6 3.6 0 0 1-3.595-3.595 3.6 3.6 0 0 1 3.595-3.595zm-1.856 15.988a.978.978 0 0 1-1.386 0 .98.98 0 0 1 0-1.386L22.778 9.836a.98.98 0 1 1 1.386 1.386L11.222 24.164zm9.7 1.66a3.6 3.6 0 0 1-3.595-3.595 3.6 3.6 0 0 1 3.595-3.595 3.6 3.6 0 0 1 3.595 3.595 3.6 3.6 0 0 1-3.595 3.596z"/><path d="M20.922 20.595c-.901 0-1.634.733-1.634 1.634 0 .901.733 1.634 1.634 1.634.901 0 1.634-.733 1.634-1.634 0-.9-.733-1.634-1.634-1.634zm-7.844-10.458c-.901 0-1.634.733-1.634 1.634 0 .9.733 1.634 1.634 1.634.901 0 1.634-.733 1.634-1.634 0-.901-.733-1.634-1.634-1.634z"/></g><defs><clipPath id="a"><path fill="#fff" d="M0 0h34v34H0z"/></clipPath></defs></svg>