<svg width="20" height="21" viewBox="0 0 20 21" fill="none" xmlns="http://www.w3.org/2000/svg">
<g clip-path="url(#clip0_7453_2739)">
<path d="M4.6875 13.7285H0V1.35664H4.6875V13.7285Z" fill="#99A2AC"/>
<path d="M19.5739 8.55742C19.5739 9.00371 19.4258 9.41601 19.1763 9.74797C19.6748 10.1091 20 10.6955 20 11.3566C20 12.4514 19.1093 13.3421 18.0145 13.3421H13.501L14.1291 15.5118V16.5513C14.1291 18.4669 12.5706 20.0254 10.655 20.0254C10.1905 20.0254 9.8127 19.6475 9.8127 19.183V16.8784C9.49945 16.377 7.75992 14.4251 5.85938 12.38V2.12648L7.48117 1.51832C8.44512 1.15684 9.4559 0.973555 10.4854 0.973555H16.7362C17.831 0.973555 18.7217 1.8643 18.7217 2.9591C18.7217 3.4052 18.5738 3.81742 18.3245 4.1493C18.8229 4.51039 19.1478 5.09715 19.1478 5.75828C19.1478 6.20457 18.9997 6.61687 18.7502 6.94883C19.2487 7.30984 19.5739 7.89621 19.5739 8.55742Z" fill="#99A2AC"/>
</g>
<defs>
<clipPath id="clip0_7453_2739">
<rect width="20" height="20" fill="white" transform="matrix(1 0 0 -1 0 20.5)"/>
</clipPath>
</defs>
</svg>
