<svg width="22" height="22" viewBox="0 0 22 22" fill="none" xmlns="http://www.w3.org/2000/svg"><path d="M2.833 5.167a2.333 2.333 0 1 0 0-4.667 2.333 2.333 0 0 0 0 4.667zm8.167 0A2.333 2.333 0 1 0 11 .5a2.333 2.333 0 0 0 0 4.667zm8.167 0a2.333 2.333 0 1 0 0-4.667 2.333 2.333 0 0 0 0 4.667zM2.833 13.333a2.333 2.333 0 1 0 0-4.666 2.333 2.333 0 0 0 0 4.666zm8.167 0a2.333 2.333 0 1 0 0-4.666 2.333 2.333 0 0 0 0 4.666zm8.167 0a2.333 2.333 0 1 0 0-4.666 2.333 2.333 0 0 0 0 4.666zM2.833 21.5a2.333 2.333 0 1 0 0-4.667 2.333 2.333 0 0 0 0 4.667zm8.167 0a2.333 2.333 0 1 0 0-4.667 2.333 2.333 0 0 0 0 4.667zm8.167 0a2.333 2.333 0 1 0 0-4.667 2.333 2.333 0 0 0 0 4.667z" fill="#fff"/></svg>