<svg width="24" height="24" viewBox="0 0 24 24" fill="none" xmlns="http://www.w3.org/2000/svg"><g clip-path="url(#a)" fill="#99A2AC"><path d="M1.714 15.429h20.572V24H1.714v-8.571zm17.121-8.572a4.244 4.244 0 0 0 .88-2.571A4.29 4.29 0 0 0 15.427 0 4.27 4.27 0 0 0 12 1.74 4.27 4.27 0 0 0 8.571 0a4.29 4.29 0 0 0-4.285 4.286c0 .968.335 1.853.879 2.571H0v6.857h24V6.857h-5.165zM15.43 1.714A2.574 2.574 0 0 1 18 4.286a2.574 2.574 0 0 1-2.571 2.571h-2.572V4.286a2.574 2.574 0 0 1 2.572-2.572zM6 4.286a2.574 2.574 0 0 1 2.571-2.572 2.574 2.574 0 0 1 2.572 2.572v2.571H8.57A2.574 2.574 0 0 1 6 4.286z"/></g><defs><clipPath id="a"><path fill="#fff" d="M0 0h24v24H0z"/></clipPath></defs></svg>