<svg width="36" height="30" viewBox="0 0 36 30" fill="none" xmlns="http://www.w3.org/2000/svg"><path d="M25.792.098A10.116 10.116 0 0 0 18 3.698a9.98 9.98 0 0 0-7.793-3.6C4.57.098 0 4.668 0 10.306c0 9.66 16.86 19.094 17.544 19.458a.82.82 0 0 0 .912 0C19.139 29.4 36 20.104 36 10.306 36 4.668 31.43.098 25.792.098zM18 27.941c-2.643-1.549-16.177-9.797-16.177-17.635a8.385 8.385 0 0 1 8.385-8.385 8.202 8.202 0 0 1 7.017 3.782.957.957 0 0 0 1.55 0 8.385 8.385 0 0 1 15.402 4.603c0 7.929-13.534 16.132-16.177 17.635z" fill="#4AB8E6"/></svg>