<svg width="26" height="26" viewBox="0 0 26 26" fill="none" xmlns="http://www.w3.org/2000/svg"><g clip-path="url(#a)" fill="#99A2AC"><path d="M14.625 1.625c-5.72 0-10.452 4.247-11.245 9.75H0l4.875 4.875 4.875-4.875H6.664c.755-3.704 4.038-6.5 7.961-6.5 4.48 0 8.125 3.645 8.125 8.125s-3.645 8.125-8.125 8.125a8.155 8.155 0 0 1-6.598-3.382l-2.638 1.898a11.41 11.41 0 0 0 9.236 4.734C20.897 24.375 26 19.271 26 13S20.897 1.625 14.625 1.625z"/><path d="M13 8.125v6.608l4.851 2.91 1.673-2.786-3.274-1.965V8.125H13z"/></g><defs><clipPath id="a"><path fill="#fff" d="M0 0h26v26H0z"/></clipPath></defs></svg>