<svg width="42" height="49" viewBox="0 0 42 49" fill="none" xmlns="http://www.w3.org/2000/svg"><path fill-rule="evenodd" clip-rule="evenodd" d="M6.874 2.045a5.474 5.474 0 0 1 7.685.056 5.477 5.477 0 0 1 .06 7.687l-.01.01-5.182 5.184-.003.002A5.476 5.476 0 1 1 1.678 7.24l5.186-5.185.01-.009zM9.41 4.643l-5.172 5.17a1.846 1.846 0 1 0 2.61 2.61l.005-.004 5.166-5.167a1.846 1.846 0 0 0-2.61-2.61zm8.662 6.914a5.478 5.478 0 0 1 7.746-.002 5.477 5.477 0 0 1 0 7.746l-6.903 6.905a5.48 5.48 0 0 1-8.934-1.777 5.477 5.477 0 0 1 1.188-5.97l6.903-6.902zm3.873 2.025c-.488 0-.958.195-1.306.542l-6.903 6.903a1.848 1.848 0 0 0 1.306 3.152 1.846 1.846 0 0 0 1.305-.54l6.903-6.905a1.847 1.847 0 0 0-1.305-3.152z" fill="#5BB7E5"/><path fill-rule="evenodd" clip-rule="evenodd" d="M19.354 2.176a5.477 5.477 0 0 1 3.87 9.361l-.002.003-12.075 12.077a5.478 5.478 0 0 1-7.746-7.746L15.477 3.795l.003-.003a5.48 5.48 0 0 1 3.874-1.616zm.715 3.77a1.846 1.846 0 0 0-2.015.407l-.005.005-12.08 12.08a1.846 1.846 0 1 0 2.61 2.612L20.66 8.968l.005-.005a1.846 1.846 0 0 0-.595-3.016zm17.52 29.423L22.385 20.164l2.568-2.567L40.157 32.8c2.105 2.105 1.311 5.364-.532 7.21l-.001.002c-1.847 1.847-5.107 2.637-7.211.535L17.208 25.343l2.567-2.568L34.98 37.98m2.61-2.61c.104.103.221.32.175.72zm.175.72c-.046.404-.262.91-.708 1.356z" fill="#5BB7E5"/><path fill-rule="evenodd" clip-rule="evenodd" d="M6.742 21.824a1.815 1.815 0 0 1 2.284 1.173c1.638 5.105 1.59 9.554-1.16 12.625-1.11 1.24-1.71 3.686-1.204 5.857.243 1.039.713 1.888 1.368 2.469.633.56 1.555.976 2.929.976 5.307 0 6.564-6.31 2.34-8.484a1.815 1.815 0 1 1 1.661-3.228c7.807 4.016 4.893 15.343-4.001 15.343-2.177 0-3.98-.687-5.337-1.889-1.334-1.182-2.121-2.757-2.496-4.362-.727-3.116.002-6.834 2.035-9.104m1.581-11.376a1.815 1.815 0 0 0-1.173 2.283zM5.57 24.107c1.505 4.694 1.03 7.484-.41 9.093z" fill="#5BB7E5"/></svg>