<svg width="34" height="24" viewBox="0 0 34 24" fill="none" xmlns="http://www.w3.org/2000/svg"><path d="M30.96 4.722c-4.49-7.378-11.256-2.245-11.256-2.245-.439.332-1.248.604-1.797.605l-1.812.002c-.55 0-1.36-.272-1.797-.604 0 0-6.766-5.134-11.257 2.244C-1.45 12.1.36 20.132.36 20.132c.316 1.967 1.361 3.28 3.333 3.114 1.966-.164 6.234-5.296 6.234-5.296.352-.423 1.09-.769 1.64-.769l10.862-.002c.55 0 1.288.346 1.64.769 0 0 4.268 5.132 6.237 5.296 1.97.165 3.017-1.148 3.332-3.114-.001 0 1.812-8.031-2.68-15.408zm-18.043 6.005h-2.329v2.246s-.493.376-1.256.367c-.763-.012-1.107-.411-1.107-.411v-2.2h-2.2s-.275-.282-.349-1.024a2.346 2.346 0 0 1 .304-1.34h2.33v-2.33s.48-.255 1.17-.235a3.08 3.08 0 0 1 1.195.28l-.01 2.285h2.2s.384.494.416 1.09c.032.596-.362 1.273-.362 1.273zm10.685 2.56a1.841 1.841 0 0 1-1.842-1.844 1.844 1.844 0 1 1 1.843 1.844zm0-5.073A1.84 1.84 0 0 1 21.76 6.37a1.844 1.844 0 1 1 1.843 1.843zm4.592 2.723a1.84 1.84 0 0 1-1.843-1.844 1.84 1.84 0 0 1 1.843-1.844 1.845 1.845 0 0 1 0 3.688z" fill="#fff"/></svg>