<svg width="14" height="14" viewBox="0 0 14 14" fill="none" xmlns="http://www.w3.org/2000/svg"><path d="M13.848 4.415A4.412 4.412 0 0 0 6.31 1.293a4.405 4.405 0 0 0-1.292 3.122c0 .745.187 1.475.544 2.125L.276 11.821a.433.433 0 0 0-.086.484c.015.037.04.07.069.099l1.184 1.184a.336.336 0 0 0 .099.068.43.43 0 0 0 .483-.085l.732-.732 1.053 1.053a.338.338 0 0 0 .1.069.43.43 0 0 0 .483-.085l1.167-1.167a.339.339 0 0 0 .069-.1.43.43 0 0 0-.086-.483l-1.036-1.037 2.8-2.8c.647.356 1.38.543 2.124.543a4.412 4.412 0 0 0 4.417-4.417zm-2.868 1.55a2.177 2.177 0 0 1-1.549.64 2.177 2.177 0 0 1-1.549-.64 2.179 2.179 0 0 1-.643-1.55c0-.586.228-1.135.642-1.548a2.177 2.177 0 0 1 1.549-.642c.584 0 1.135.228 1.548.642.414.413.642.964.642 1.548a2.155 2.155 0 0 1-.64 1.55z" fill="#4AB8E6"/></svg>