<svg width="20" height="21" viewBox="0 0 20 21" fill="none" xmlns="http://www.w3.org/2000/svg">
<g clip-path="url(#clip0_7453_2732)">
<path d="M4.6875 7.27148H0V19.6434H4.6875V7.27148Z" fill="#99A2AC"/>
<path d="M19.5739 12.4426C19.5739 11.9963 19.4258 11.584 19.1763 11.252C19.6748 10.8909 20 10.3045 20 9.6434C20 8.54859 19.1093 7.65789 18.0145 7.65789H13.501L14.1291 5.48824V4.44867C14.1291 2.53309 12.5706 0.974609 10.655 0.974609C10.1905 0.974609 9.8127 1.3525 9.8127 1.81695V4.12164C9.49945 4.62297 7.75992 6.57492 5.85938 8.62V18.8735L7.48117 19.4817C8.44512 19.8432 9.4559 20.0264 10.4854 20.0264H16.7362C17.831 20.0264 18.7217 19.1357 18.7217 18.0409C18.7217 17.5948 18.5738 17.1826 18.3245 16.8507C18.8229 16.4896 19.1478 15.9029 19.1478 15.2417C19.1478 14.7954 18.9997 14.3831 18.7502 14.0512C19.2487 13.6902 19.5739 13.1038 19.5739 12.4426Z" fill="#99A2AC"/>
</g>
<defs>
<clipPath id="clip0_7453_2732">
<rect width="20" height="20" fill="white" transform="translate(0 0.5)"/>
</clipPath>
</defs>
</svg>
