<svg width="20" height="21" viewBox="0 0 20 21" fill="none" xmlns="http://www.w3.org/2000/svg"><g clip-path="url(#a)" fill="#99A2AC"><path d="M4.688 7.271H0v12.372h4.688V7.271zm14.886 5.172c0-.447-.148-.859-.398-1.191a1.984 1.984 0 0 0-1.161-3.594H13.5l.628-2.17v-1.04A3.478 3.478 0 0 0 10.655.976a.843.843 0 0 0-.842.842v2.305c-.314.501-2.053 2.453-3.954 4.498v10.254l1.622.608a8.527 8.527 0 0 0 3.004.544h6.251c1.095 0 1.986-.89 1.986-1.985 0-.446-.148-.858-.398-1.19a1.985 1.985 0 0 0 .426-2.8 1.98 1.98 0 0 0 .824-1.608z"/></g><defs><clipPath id="a"><path fill="#fff" transform="translate(0 .5)" d="M0 0h20v20H0z"/></clipPath></defs></svg>