<svg width="38" height="38" viewBox="0 0 38 38" fill="none" xmlns="http://www.w3.org/2000/svg"><g clip-path="url(#a)" fill="#fff"><path d="M34.66 11.211h-2.332c-1.983-4.709-6.35-8.131-11.379-8.785A14.436 14.436 0 0 0 7.87 7.54a14.596 14.596 0 0 0-2.236 3.671H3.34A3.343 3.343 0 0 0 0 14.551v4.453a3.344 3.344 0 0 0 3.34 3.34h4.572l-.479-1.46c-1.392-4.253-.608-8.598 2.15-11.922 2.71-3.267 6.85-4.884 11.077-4.33 4.472.583 8.353 3.746 9.89 8.06l.01.024a9.64 9.64 0 0 1 .522 2.033c.334 2.082.143 4.192-.55 6.103l-.004.013c-1.719 4.88-6.342 8.159-11.506 8.159-1.854 0-3.362 1.498-3.362 3.34a3.343 3.343 0 0 0 3.34 3.34 3.343 3.343 0 0 0 3.34-3.34v-1.502c4.445-1.056 8.179-4.207 9.974-8.518h2.346a3.344 3.344 0 0 0 3.34-3.34v-4.453a3.343 3.343 0 0 0-3.34-3.34z"/><path d="M8.98 24.57v2.227H19c5.525 0 10.02-4.494 10.02-10.02 0-5.524-4.495-10.019-10.02-10.019-5.525 0-10.02 4.495-10.02 10.02 0 2.253.757 4.43 2.14 6.19a2.214 2.214 0 0 1-2.14 1.603zm13.36-8.905h2.226v2.226H22.34v-2.226zm-4.453 0h2.226v2.226h-2.226v-2.226zm-4.453 0h2.226v2.226h-2.226v-2.226z"/></g><defs><clipPath id="a"><path fill="#fff" d="M0 0h38v38H0z"/></clipPath></defs></svg>