<svg width="22" height="22" viewBox="0 0 22 22" fill="none" xmlns="http://www.w3.org/2000/svg"><path d="M14.667 0c-4.044 0-7.334 3.29-7.334 7.333 0 .482.053.976.156 1.472l-.819.41a.459.459 0 0 0-.12.734l.594.593-.459.458h-.727a.458.458 0 0 0-.458.458v.727l-.648.648h-.727a.458.458 0 0 0-.458.459v.727l-.648.648h-.727a.458.458 0 0 0-.459.458v.727L.134 17.55a.458.458 0 0 0-.134.324v3.667c0 .253.205.458.458.458h3.667a.458.458 0 0 0 .324-.134l7.01-7.01.592.593a.459.459 0 0 0 .734-.12l.41-.818C17.858 15.483 22 11.859 22 7.333 22 3.29 18.71 0 14.667 0zM9.949 12.7l-6.417 6.416a.457.457 0 0 1-.648 0 .458.458 0 0 1 0-.648l6.417-6.417a.458.458 0 1 1 .648.648zm7.01-5.367a2.294 2.294 0 0 1-2.292-2.291 2.294 2.294 0 0 1 2.291-2.292 2.294 2.294 0 0 1 2.292 2.292 2.294 2.294 0 0 1-2.292 2.291z" fill="#99A2AC"/></svg>