<svg width="30" height="30" viewBox="0 0 30 30" fill="none" xmlns="http://www.w3.org/2000/svg"><path d="M17.778 3.926a.469.469 0 0 1 .66-.075l1.013.812-3.702 4.712h2.385l2.783-3.54 2.347 1.88a.47.47 0 0 1 .062.673l-.851.987h2.45a2.344 2.344 0 0 0-.49-3.123l-4.824-3.864a2.343 2.343 0 0 0-3.302.374L11.07 9.375h2.392l4.315-5.449zm1.91 13.886a.938.938 0 0 0 0 1.875H22.5a.938.938 0 0 0 0-1.875h-2.813zM5.624 6.563a2.812 2.812 0 0 0-2.813 2.813V22.97a4.219 4.219 0 0 0 4.22 4.218h15.937a4.22 4.22 0 0 0 4.218-4.218v-8.44a4.219 4.219 0 0 0-4.218-4.219H5.625a.938.938 0 0 1 0-1.874h4.294l1.496-1.875h-5.79zM4.687 22.97V12.03c.294.102.61.159.938.159h17.344a2.343 2.343 0 0 1 2.343 2.343v8.438a2.343 2.343 0 0 1-2.343 2.343H7.03a2.344 2.344 0 0 1-2.343-2.343z" fill="#fff"/></svg>