<svg width="28" height="28" viewBox="0 0 28 28" fill="none" xmlns="http://www.w3.org/2000/svg"><path d="M14 .875A9.625 9.625 0 0 0 4.375 10.5c0 5.084 8.575 15.837 8.943 16.301a.876.876 0 0 0 1.364 0c.368-.463 8.943-11.217 8.943-16.301A9.625 9.625 0 0 0 14 .875zm0 23.957c-2.704-3.5-7.875-10.937-7.875-14.332a7.875 7.875 0 1 1 15.75 0c0 3.395-5.171 10.815-7.875 14.332z" fill="#fff"/><path d="M14 4.375a5.25 5.25 0 1 0 0 10.5 5.25 5.25 0 0 0 0-10.5zm0 8.75a3.5 3.5 0 1 1 0-7 3.5 3.5 0 0 1 0 7z" fill="#fff"/></svg>