<svg width="38" height="38" viewBox="0 0 38 38" fill="none" xmlns="http://www.w3.org/2000/svg"><path d="M23.799 5.974H3.17c-.608 0-1.085.478-1.085 1.086v13.029a1.08 1.08 0 0 0 1.085 1.085H23.8c.597 0 1.086-.488 1.086-1.085V7.06c0-.608-.489-1.086-1.086-1.086zM2.074 26.603c0 .597.488 1.085 1.085 1.085h1.173c.456-2.269 2.323-4.05 4.647-4.342H3.17c-.39 0-.749-.066-1.096-.196v3.453z" fill="#fff"/><path d="M33.494 27.689h1.347a1.09 1.09 0 0 0 1.085-1.086v-9.511c0-1.705-4.158-5.69-6.438-5.69h-2.432v8.687a3.267 3.267 0 0 1-3.257 3.257H10.39c2.324.293 4.191 2.073 4.647 4.343h7.752c.5-2.498 2.704-4.398 5.353-4.398 2.638 0 4.853 1.9 5.352 4.398zm-4.657-13.615c5.558-.272 5.33 5.472 5.33 5.472h-5.33v-5.472z" fill="#fff"/><path d="M28.137 32.025a3.279 3.279 0 1 0 0-6.557 3.279 3.279 0 0 0 0 6.557zm-18.457 0a3.279 3.279 0 1 0 0-6.557 3.279 3.279 0 0 0 0 6.557z" fill="#fff"/></svg>