<svg width="28" height="20" viewBox="0 0 28 20" fill="none" xmlns="http://www.w3.org/2000/svg"><path d="M25.54.156H2.46A2.464 2.464 0 0 0 0 2.617v14.766a2.464 2.464 0 0 0 2.46 2.46h23.08a2.464 2.464 0 0 0 2.46-2.46V2.617c0-1.36-1.107-2.46-2.46-2.46zm-.379 1.64l-10.525 10.56c-.321.322-.95.323-1.272 0L2.84 1.797h22.32zM1.641 17.082V2.92L8.699 10 1.64 17.081zm1.198 1.122l7.018-7.041 2.345 2.353c.961.964 2.635.964 3.596 0l2.345-2.353 7.018 7.041H2.84zm23.52-1.122L19.301 10l7.058-7.081V17.08z" fill="#fff"/></svg>