<svg width="32" height="32" viewBox="0 0 32 32" fill="none" xmlns="http://www.w3.org/2000/svg"><g clip-path="url(#a)" fill="#fff"><path d="M7.392 1.85a.938.938 0 0 0-.919.239L3.6 4.962a.938.938 0 0 0 .23 1.494l8.93 4.66 6.035-6.034L7.392 1.85zm18.152 26.32a.938.938 0 0 0 1.494.23l2.873-2.874a.937.937 0 0 0 .239-.918l-3.232-11.403-6.035 6.034 4.66 8.932z"/><path d="M29.141.023a9.141 9.141 0 0 0-5.216 2.581l-13.9 13.9-6.371-1.763a.938.938 0 0 0-.913.24L.275 17.447a.937.937 0 0 0 .21 1.484l8.11 4.474 4.474 8.11a.937.937 0 0 0 1.484.21l2.466-2.466a.938.938 0 0 0 .24-.913l-1.764-6.37 13.9-13.9a9.14 9.14 0 0 0 2.582-5.217 2.503 2.503 0 0 0-.716-2.12 2.504 2.504 0 0 0-2.12-.716z"/></g><defs><clipPath id="a"><path fill="#fff" d="M0 0h32v32H0z"/></clipPath></defs></svg>