<svg width="18" height="18" viewBox="0 0 18 18" fill="none" xmlns="http://www.w3.org/2000/svg"><path d="M17.6 15.642l-3.71-3.71a7.409 7.409 0 0 0 1.341-4.316 7.48 7.48 0 0 0-.6-2.959 7.61 7.61 0 0 0-1.623-2.434A7.614 7.614 0 0 0 10.574.601 7.47 7.47 0 0 0 7.615 0c-1.03 0-2.017.2-2.958.6-.941.4-1.752.94-2.434 1.622A7.613 7.613 0 0 0 .6 4.657 7.49 7.49 0 0 0 0 7.616c0 1.03.2 2.017.6 2.958a7.61 7.61 0 0 0 1.623 2.434 7.615 7.615 0 0 0 2.434 1.623c.941.4 1.927.6 2.958.6a7.408 7.408 0 0 0 4.317-1.341l3.71 3.699c.26.274.584.411.974.411.375 0 .7-.137.973-.411a1.33 1.33 0 0 0 .411-.973c0-.382-.133-.707-.4-.974zm-6.56-4.603c-.95.949-2.09 1.423-3.425 1.423-1.334 0-2.475-.474-3.423-1.423-.948-.948-1.423-2.09-1.423-3.423 0-1.334.475-2.476 1.423-3.424.948-.948 2.09-1.423 3.423-1.423 1.335 0 2.476.475 3.424 1.423.949.948 1.423 2.09 1.423 3.424s-.474 2.475-1.423 3.423z" fill="#fff"/></svg>