<svg width="34" height="34" viewBox="0 0 34 34" fill="none" xmlns="http://www.w3.org/2000/svg"><path d="M10.624 1.063a1.6 1.6 0 0 0-1.592 1.593v.529h12.22a2.67 2.67 0 0 1 2.655 2.66v5.846h2.125V2.656c0-.874-.722-1.593-1.596-1.593H10.624zM7.435 4.247c-.873 0-1.591.723-1.591 1.597v5.847h2.124v-1.625c0-.252.22-.506.548-.506a2.653 2.653 0 0 0 2.636-2.568c-.012-.4.237-.617.533-.617H17a.53.53 0 0 1 .53.555 2.644 2.644 0 0 0 2.52 2.623c.355 0 .685.18.668.54v1.598h2.127V5.844c0-.874-.718-1.597-1.592-1.597H7.435zM4.252 7.436a3.194 3.194 0 0 0-3.188 3.189v19.126a3.193 3.193 0 0 0 3.188 3.187H29.75c.874 0 1.592-.722 1.592-1.595v-3.718h-7.435c-2.626 0-4.78-2.154-4.78-4.78 0-2.627 2.154-4.78 4.78-4.78h7.435v-3.722a1.6 1.6 0 0 0-1.592-1.593H4.252a2.11 2.11 0 0 1-2.126-2.125 2.11 2.11 0 0 1 2.126-2.126h.53V7.436h-.53zm22.842 0v1.062h.53c.303 0 .532.23.534.538v2.65h1.063V9.029a1.61 1.61 0 0 0-1.597-1.592h-.53zm-14.916.004a3.74 3.74 0 0 1-3.148 3.149v1.103h10.624v-1.104a3.738 3.738 0 0 1-3.151-3.148h-4.325zm11.73 11.687a3.72 3.72 0 0 0-3.718 3.718 3.72 3.72 0 0 0 3.717 3.718h7.435c.873 0 1.596-.72 1.596-1.593v-4.251c0-.874-.723-1.592-1.596-1.592h-7.435zm0 2.121c.873 0 1.591.723 1.591 1.597s-.718 1.592-1.592 1.592a1.603 1.603 0 0 1-1.597-1.592c0-.874.724-1.597 1.597-1.597z" fill="#fff"/></svg>