<svg width="74" height="74" viewBox="0 0 74 74" fill="none" xmlns="http://www.w3.org/2000/svg"><rect width="74" height="74" rx="37" fill="#4AB8E6"/><path d="M54.96 38.7l-2.572-14.58a2.654 2.654 0 0 0-2.61-2.193c-.152 0-22.513 3.93-22.513 3.93a2.653 2.653 0 0 0-2.152 3.073l.248 1.405h20.18a4.648 4.648 0 0 1 4.643 4.643v7.258l2.623-.462a2.653 2.653 0 0 0 2.152-3.074zm-6.765 4.642H21v6.077a2.653 2.653 0 0 0 2.653 2.653h21.888a2.653 2.653 0 0 0 2.654-2.653v-6.077zm-19.296 6.34h-4.514a.995.995 0 0 1 0-1.99H28.9a.995.995 0 1 1 0 1.99z" fill="#fff"/><path d="M21.003 34.85h27.188a2.653 2.653 0 0 0-2.65-2.525H23.653a2.653 2.653 0 0 0-2.65 2.524zM21 36.839h27.195v4.514H21v-4.514z" fill="#fff"/></svg>