<svg width="74" height="74" viewBox="0 0 74 74" fill="none" xmlns="http://www.w3.org/2000/svg"><rect width="74" height="74" rx="37" fill="#4AB8E6"/><g clip-path="url(#a)" fill="#fff"><path d="M53.94 48.573l-2.113-8.447a1.414 1.414 0 0 0-.15-.368 3.15 3.15 0 0 0 .187-1.072V24.762a3.17 3.17 0 0 0-3.166-3.166H25.3a3.17 3.17 0 0 0-3.167 3.166v13.924c0 .376.067.737.188 1.072a1.413 1.413 0 0 0-.15.368l-2.13 8.515a1.42 1.42 0 0 0 1.377 1.763H52.58a1.42 1.42 0 0 0 1.358-1.831zm-13.344-.388h-7.192a.28.28 0 0 1-.276-.33l.56-3.11a.28.28 0 0 1 .276-.23h6.07a.28.28 0 0 1 .276.23l.556 3.086a.28.28 0 0 1-.27.354zm8.503-9.499a.401.401 0 0 1-.235.365h-23.73a.401.401 0 0 1-.234-.365V24.762c0-.22.18-.4.4-.4h23.398c.22 0 .4.18.4.4v13.924z"/><path d="M37.77 31.138l.887-.242a.42.42 0 0 0 .039-.798l-4.088-1.55a.42.42 0 0 0-.542.541l1.55 4.088a.42.42 0 0 0 .799-.038l.242-.887 2.068 2.068a.42.42 0 0 0 .594 0l.52-.52a.42.42 0 0 0 0-.594l-2.068-2.068z"/></g><defs><clipPath id="a"><path fill="#fff" transform="translate(20 19)" d="M0 0h34v34H0z"/></clipPath></defs></svg>