<svg width="73" height="73" viewBox="0 0 73 73" fill="none" xmlns="http://www.w3.org/2000/svg"><path d="M36.5 73C56.658 73 73 56.658 73 36.5S56.658 0 36.5 0 0 16.342 0 36.5 16.342 73 36.5 73z" fill="#003473"/><path d="M35.545 47.484a15.658 15.658 0 0 0 5.177-11.647c0-4.622-2.004-8.78-5.177-11.678a15.59 15.59 0 0 0-10.538-4.067c-8.687 0-15.745 7.056-15.745 15.744 0 8.69 7.058 15.715 15.745 15.715a15.58 15.58 0 0 0 10.538-4.067z" fill="#009DDD"/><path d="M35.545 47.484a15.658 15.658 0 0 0 5.177-11.647c0-4.622-2.003-8.78-5.177-11.678v23.325z" fill="#009DDD"/><path d="M46.115 20.092a15.73 15.73 0 0 0-10.57 4.068 20.202 20.202 0 0 0-1.572 1.665h3.173c.432.522.833 1.108 1.203 1.662H32.77a23.62 23.62 0 0 0-.925 1.664h7.396c.248.554.493 1.11.678 1.665h-8.718a14.98 14.98 0 0 0-.463 1.694h9.643c.215 1.048.34 2.189.34 3.327 0 1.726-.279 3.421-.802 4.992h-8.718c.183.554.4 1.11.645 1.664h7.396c-.277.555-.555 1.14-.894 1.664H32.77c.371.586.771 1.14 1.202 1.664h3.173a16.206 16.206 0 0 1-1.601 1.664 15.723 15.723 0 0 0 10.57 4.068c8.689 0 15.714-7.025 15.714-15.715 0-8.689-7.025-15.746-15.714-15.746z" fill="#ED1C2E"/><path d="M56.404 39.226c0-.277.248-.492.525-.492s.492.215.492.492c0 .279-.215.525-.492.525a.54.54 0 0 1-.525-.525zm.525.401c.215 0 .369-.184.369-.4a.356.356 0 0 0-.37-.37c-.215 0-.399.154-.399.37s.183.4.4.4zm-.062-.184h-.123v-.432h.184c.061 0 .093 0 .124.03.03.031.06.061.06.093 0 .062-.03.124-.091.124l.092.184h-.124l-.06-.154h-.062v.155zm0-.247h.122v-.094h-.123v.094zm-33.832.554h-1.97l1.17-6.13-2.68 6.13h-1.79l-.306-6.1-1.171 6.1H14.5l1.51-7.98h3.08l.155 4.93 2.16-4.93h3.17l-1.54 7.98zm21.878-.09c-.555.152-.956.214-1.419.214-.985 0-1.541-.493-1.541-1.416 0-.186.032-.372.061-.587l.123-.647.095-.492.893-4.96h1.94l-.276 1.477h1.016l-.277 1.573h-1.017l-.492 2.71c-.032.124-.062.217-.062.278 0 .34.216.492.679.492.215 0 .398-.03.523-.061l-.246 1.418zm5.7-6.348c-.155-.063-.185-.063-.215-.063-.094-.032-.155-.032-.155-.061h-.215c-.648 0-1.11.277-1.696 1.047l.184-.986h-1.788l-1.2 6.502h1.971c.709-3.976.987-4.684 1.941-4.684.062 0 .156.03.247.03l.216.062.71-1.847zm-13.467 2.001c0 .802.463 1.387 1.51 1.788.803.338.926.431.926.74 0 .4-.37.585-1.14.585-.586 0-1.142-.092-1.788-.276l-.247 1.51h.093l.338.091c.123 0 .307.032.523.032.463.06.833.06 1.11.06 2.065 0 3.051-.678 3.051-2.156 0-.894-.4-1.417-1.417-1.818-.833-.308-.925-.4-.925-.709 0-.337.34-.523.986-.523.37 0 .924.032 1.417.092l.278-1.479c-.524-.09-1.294-.123-1.726-.123-2.218 0-2.989.985-2.989 2.186zm-7.764 4.437H27.78l.031-.678c-.492.524-1.17.77-2.064.77-1.047 0-1.787-.708-1.787-1.755 0-1.573 1.262-2.497 3.451-2.497.214 0 .492 0 .8.032.062-.215.062-.309.062-.4 0-.432-.34-.586-1.264-.586a8.26 8.26 0 0 0-1.601.154l-.277.093-.185.03.276-1.448c.988-.248 1.603-.339 2.344-.339 1.693 0 2.556.647 2.556 1.879 0 .34-.03.586-.153 1.295l-.4 2.31-.062.4-.063.341-.03.214-.032.186zm-1.417-2.896c-.217-.03-.308-.03-.43-.03-1.111 0-1.665.338-1.665.986 0 .4.246.678.677.678.803 0 1.387-.678 1.418-1.634zm7.856 2.742a7.457 7.457 0 0 1-2.003.277c-2.184 0-3.327-1.017-3.327-2.927 0-2.22 1.45-3.852 3.421-3.852 1.602 0 2.621.925 2.621 2.342 0 .492-.063.956-.216 1.602h-3.915v.217c0 .74.555 1.14 1.695 1.14.709 0 1.355-.124 2.033-.4l-.309 1.601zm-1.046-3.85v-.34c0-.523-.34-.833-.925-.833-.617 0-1.048.432-1.234 1.173h2.159zm21.937 1.046c-.308 2.156-1.817 3.111-3.821 3.111-2.186 0-3.08-1.323-3.08-2.987 0-2.28 1.51-3.854 3.85-3.854 2.035 0 3.113 1.295 3.113 2.928 0 .403 0 .433-.062.802zm-2.032-.833c0-.677-.278-1.292-1.078-1.292-.988 0-1.603 1.17-1.603 2.218 0 .863.432 1.448 1.11 1.448.43 0 1.355-.585 1.51-1.57.06-.248.06-.524.06-.803z" fill="#fff"/></svg>