<svg width="73" height="73" viewBox="0 0 73 73" fill="none" xmlns="http://www.w3.org/2000/svg"><path d="M36.5 73c20.157 0 36.498-16.341 36.498-36.5C72.998 16.344 56.658.003 36.5.003 16.342.003 0 16.343 0 36.5.001 56.66 16.342 73 36.5 73z" fill="#fff"/><g clip-path="url(#a)"><path d="M31.24 50.168c-.104-.293-.294-.493-.431-.753-.334-.446-.726-.832-1.119-1.218-.137-.047-.196-.18-.327-.234-.085-.113-.222-.173-.333-.26a6.61 6.61 0 0 0-.713-.466c-.471-.306-1.053-.499-1.63-.699a18.936 18.936 0 0 0-1.955-.36c-.674-.1-1.348-.192-1.858-.465-.294-.087-.51-.254-.765-.387-.236-.16-.49-.293-.687-.492-.242-.147-.392-.393-.582-.593-.066-.133-.177-.213-.23-.36-.064-.026-.084-.106-.123-.153-.046-.053-.046-.16-.125-.18-.039.273-.026.6 0 .88.033.12.046.266.079.386.02.106.118.28.078.36-2.04-.107-3.532-.767-4.827-1.632-.641-.433-1.19-.96-1.701-1.525-.222-.313-.464-.613-.66-.96-.203-.339-.373-.725-.557-1.085-.3-.779-.582-1.578-.686-2.557-.138-.912-.105-2.078.098-2.923.072-.466.222-.86.353-1.266.085-.186.177-.373.255-.566.111-.16.17-.38.307-.519.373-.713.93-1.245 1.498-1.758a6.266 6.266 0 0 1 2.159-1.059c.811-.186 1.917-.22 2.793-.027 1.78.373 3.12 1.186 4.246 2.225 1.138 1.019 2.014 2.31 2.616 3.882.622 1.492.837 3.816.281 5.507-.229-.133-.457-.26-.686-.386-.275-.08-.543-.173-.864-.206-.386-.007-.765 0-1.014.126.504-.053.91.087 1.223.206.184.074.288.12.432.207.281.166.53.32.74.546.595.533 1.02 1.239 1.223 2.17 0 .028.032.02.026-.026.026-.006.039-.026.052-.053.033-.04.072-.08.105-.127.065-.08.13-.16.176-.26a3.33 3.33 0 0 0 .354-.545c.242-.36.425-.773.634-1.166.36-.839.654-1.744.837-2.77.367-2.277-.072-4.435-.837-6.027-.785-1.604-1.884-2.89-3.303-3.855-1.433-.96-3.108-1.665-5.41-1.732-.013-.046-.033.007-.079 0-1.216-.04-2.197.133-3.172.387-.451.153-.922.286-1.322.492-.457.154-.824.407-1.242.593-.15.146-.38.22-.537.36-.202.1-.353.26-.556.36-.327.292-.674.552-.994.852-.314.293-.589.626-.89.932-.046.107-.124.18-.202.26a.867.867 0 0 1-.203.26c-.033.12-.138.166-.177.286-.085.066-.104.2-.203.26-.085.212-.235.366-.333.565-.118.194-.21.407-.327.593-.183.433-.38.852-.53 1.319a9.377 9.377 0 0 0-.38 1.451c-.098.486-.19 1.12-.176 1.632-.066.186-.013.533 0 .752 0 .04-.026.054-.026.08 0 .247.065.546.078.7a6.69 6.69 0 0 0 .308 1.551c.098.513.307.912.457 1.372.23.386.386.846.661 1.192.203.406.49.726.765 1.059.295.32.59.646.943.905.647.573 1.406 1.033 2.237 1.425 1.55.766 3.866 1.266 5.946 1.14.53-.074 1.066-.14 1.55-.26.445-.167.962-.267 1.498-.333 1.223-.08 2.283.033 3.225.313a7.65 7.65 0 0 1 2.492 1.165c.38.226.694.52 1.014.799.327.286.589.64.89.959.039.12.117.206.176.313.079.087.04.286.23.26.117-.12-.02-.293-.027-.44-.118-.126-.144-.293-.235-.4z" fill="#FCB316"/><path d="M26.492 43.082c-.027 0-.033.02-.053.027-.046.1-.026.26 0 .36.138.286.183.659.484.779.144-.047.131-.26.125-.467-.066-.253-.157-.48-.308-.646-.104-.04-.176-.106-.248-.053zm-1.78.726c0-.013-.02-.027-.026 0-.248-.033-.334.106-.458.206-.216.58.131 1.146.74 1.14.241-.06.392-.22.431-.494-.033-.486-.235-.799-.687-.852z" fill="#FCB316"/><path d="M39.378 41.963c.098.42.308.72.543 1 .236.279.51.512.844.685.314.2.654.366 1.047.48.19.066.373.146.608.173.164.093.36.14.373.38-.007.286-.196.392-.438.446-.242-.054-.543-.047-.746-.14-.51-.06-.922-.227-1.354-.38a6.08 6.08 0 0 1-2.093-1.378c-.118-.2-.282-.36-.406-.553-.124-.193-.21-.426-.34-.62-1.008-.133-1.694-.599-2.296-1.138-.556-.646-1.001-1.419-1.184-2.444-.216-.986-.15-2.218.105-3.17.556-1.845 1.72-3.07 3.918-3.236.608.02 1.138.093 1.622.28.49.18.955.512 1.322.858.032.027.045.034.065.067.078.113.268.273.373.413.02.027.013.073.032.106.04.06.099.087.138.14.02.034.013.074.032.1.027.04.06.1.099.173.013.027.058.047.065.067.059.113.085.253.137.38.053.133.125.246.17.38.131.392.216.858.269 1.338.13 1.385-.138 2.623-.641 3.542-.236.48-.563.873-.949 1.206-.353.38-.837.606-1.315.845zm-1.622-8.67c-.294.02-.47.16-.713.24-.157.146-.353.26-.47.446-.197.113-.25.366-.407.513-.13.333-.255.706-.34 1.139-.078.426-.13.905-.137 1.378-.007 1.185.242 2.364.706 3.063a3.1 3.1 0 0 0 1.014.826c.236.02.419.1.674.106.144-.053.38 0 .471-.106.21.013.255-.127.438-.14.099-.1.203-.18.34-.24.125-.14.243-.28.373-.413.066-.1.105-.24.203-.313.589-1.145.654-3.243.268-4.574a4.095 4.095 0 0 0-.575-1.206 3.332 3.332 0 0 0-.877-.652c-.268-.06-.523-.133-.876-.1-.02 0-.04.006-.033.033h-.059zm7.137-.965c.53.02 1.151-.047 1.622.033.105.166.065.366.065.553.04 2.523 0 5.234 0 7.81 0 .207.007.42 0 .62-.006.173.04.36-.065.52-.236.06-.576.033-.877.033-.32 0-.634.046-.843-.067-.06-3.05-.06-6.34 0-9.396a.145.145 0 0 1 .098-.106zm4.055 0h1.59c.144.2.19.499.235.792.478 1.851.949 3.71 1.387 5.607.105.013.072-.113.105-.173.046-.047.02-.16.065-.207.02-.153.111-.233.105-.412.118-.233.157-.553.268-.793.137-.56.32-1.079.478-1.618.15-.56.353-1.066.47-1.652.223-.472.275-1.118.544-1.544h.673c.242.466.334 1.085.543 1.584.138.56.327 1.066.471 1.619.334 1.072.68 2.13.982 3.236.137-.207.137-.553.235-.793.059-.272.111-.552.203-.792.261-1.092.51-2.19.81-3.236.112-.546.223-1.106.406-1.585.393-.06.995-.06 1.387 0 .033.406-.15.846-.268 1.205-.065.44-.222.78-.307 1.205-.242.78-.426 1.605-.674 2.378-.19.825-.445 1.585-.641 2.41-.131.38-.223.8-.34 1.206-.131.373-.177.832-.373 1.139h-.949c-.242-.433-.327-1.02-.543-1.479-.47-1.518-.994-2.977-1.452-4.508-.157.166-.157.506-.268.719-.072.26-.144.52-.236.76-.13.525-.327.971-.438 1.51-.19.474-.327 1-.47 1.52-.197.452-.269 1.031-.511 1.444-.249.08-.641.014-.949.034-.235-.274-.261-.766-.405-1.14-.111-.386-.19-.812-.334-1.171-.183-.84-.458-1.579-.64-2.41-.243-.773-.452-1.58-.675-2.378-.124-.38-.215-.786-.34-1.172-.059-.413-.333-.786-.235-1.239.013-.033.052-.053.091-.066zm13.351 0c.53.02 1.145-.047 1.623.033.117.36.065.746.065 1.132v7.225c0 .393.046.773-.065 1.139-.367.04-.903.06-1.354.033-.131-.007-.288.033-.373-.066-.118-.36-.066-.74-.066-1.14v-7.151c0-.433-.039-.853.066-1.139a.22.22 0 0 1 .104-.066z" fill="#0269B3"/></g><defs><clipPath id="a"><path fill="#fff" transform="translate(9 27)" d="M0 0h55v24H0z"/></clipPath></defs></svg>