<svg width="40" height="40" viewBox="0 0 40 40" fill="none" xmlns="http://www.w3.org/2000/svg"><g clip-path="url(#a)" fill="#4AB8E6"><path d="M17.656 37.578a3.516 3.516 0 1 0 0-7.031 3.516 3.516 0 0 0 0 7.031zm11.797 0a3.516 3.516 0 1 0 0-7.031 3.516 3.516 0 0 0 0 7.031z"/><path d="M1.172 4.766h4.887l5.657 19.805-.443.888c-1.169 2.334.527 5.088 3.145 5.088H34.14a1.171 1.171 0 1 0 0-2.344H14.417c-.87 0-1.438-.916-1.048-1.696l.324-.648H34.14c.523 0 .983-.346 1.128-.85l4.687-16.406c.1-.354.03-.734-.19-1.028a1.176 1.176 0 0 0-.937-.466H9.166L8.069 3.272a1.173 1.173 0 0 0-1.127-.85h-5.77a1.171 1.171 0 1 0 0 2.344z"/></g><defs><clipPath id="a"><path fill="#fff" d="M0 0h40v40H0z"/></clipPath></defs></svg>