<svg width="74" height="74" viewBox="0 0 74 74" fill="none" xmlns="http://www.w3.org/2000/svg"><rect width="74" height="74" rx="37" fill="#4AB8E6"/><path d="M49.02 24.98A16.889 16.889 0 0 0 37 20c-4.54 0-8.81 1.768-12.02 4.98A16.889 16.889 0 0 0 20 37c0 4.54 1.768 8.81 4.98 12.02A16.889 16.889 0 0 0 37 54c4.54 0 8.81-1.768 12.02-4.98A16.879 16.879 0 0 0 54 37c0-4.54-1.768-8.81-4.98-12.02zM37 52.007c-4.44 0-8.436-1.94-11.186-5.015 1.705-4.52 6.07-7.735 11.186-7.735a5.977 5.977 0 1 1 0-11.953 5.977 5.977 0 0 1 0 11.953c5.117 0 9.481 3.215 11.186 7.735-2.75 3.076-6.745 5.015-11.186 5.015z" fill="#fff"/></svg>