<svg width="73" height="73" viewBox="0 0 73 73" fill="none" xmlns="http://www.w3.org/2000/svg"><path d="M36.5 73c20.157 0 36.498-16.341 36.498-36.5C72.998 16.344 56.658.003 36.5.003 16.342.003 0 16.343 0 36.5.001 56.66 16.342 73 36.5 73z" fill="#F3F2F2"/><path d="M27.028 43.503l2.793-16.492h4.522L31.55 43.503h-4.522zm20.619-16.065c-.896-.335-2.3-.693-4.054-.693-4.468 0-7.616 2.238-7.643 5.443-.025 2.37 2.247 3.69 3.963 4.48 1.76.807 2.352 1.325 2.343 2.046-.01 1.105-1.406 1.61-2.706 1.61-1.81 0-2.771-.25-4.257-.865l-.582-.263-.635 3.692c1.056.46 3.01.86 5.038.88 4.753-.001 7.84-2.21 7.874-5.635.017-1.875-1.188-3.303-3.797-4.48-1.58-.762-2.549-1.271-2.538-2.045 0-.685.82-1.418 2.59-1.418a8.385 8.385 0 0 1 3.385.632l.404.19.615-3.575zm7.709-.427c-1.083 0-1.866.331-2.342 1.405l-6.702 15.088H51.1l.93-2.528h5.72l.532 2.528h4.256l-3.723-16.492h-3.459zm-2.055 10.665c.373-.95 1.8-4.609 1.8-4.609-.025.043.373-.954.6-1.573l.307 1.42 1.046 4.763h-3.753zm-34.519.64l-.398-2.26c-.825-2.636-3.386-5.488-6.257-6.916l3.995 14.363h4.789l7.181-16.492h-4.787l-4.523 11.305z" fill="#293688"/><path d="M7.212 27.011v.267c5.674 1.364 9.613 4.814 11.172 8.777l-1.64-7.636c-.273-1.044-1.102-1.371-2.084-1.408H7.212zM36.498 73c14.087 0 26.302-7.986 32.386-19.673H4.112C10.196 65.014 22.41 73 36.498 73z" fill="#F7981D"/><path d="M36.498 0C22.634 0 10.576 7.73 4.397 19.114h64.202C62.42 7.73 50.361 0 36.497 0z" fill="#293688"/></svg>