<svg width="40" height="40" viewBox="0 0 40 40" fill="none" xmlns="http://www.w3.org/2000/svg"><path d="M12.499 1.25a1.882 1.882 0 0 0-1.873 1.874v.623h14.377c1.716 0 3.123 1.415 3.123 3.128v6.88h2.5V3.124c0-1.029-.85-1.875-1.877-1.875h-16.25zM8.748 4.997c-1.028 0-1.873.85-1.873 1.878v6.88h2.499v-1.913c0-.297.258-.595.644-.595a3.121 3.121 0 0 0 3.102-3.021c-.014-.47.28-.726.628-.726h6.25c.357 0 .64.298.625.654a3.11 3.11 0 0 0 2.963 3.085c.419 0 .807.212.787.635v1.88h2.502V6.875a1.886 1.886 0 0 0-1.872-1.878H8.748zM5.002 8.748a3.758 3.758 0 0 0-3.75 3.752v22.501a3.757 3.757 0 0 0 3.75 3.75H35c1.028 0 1.873-.85 1.873-1.877V32.5h-8.747c-3.09 0-5.623-2.534-5.623-5.624s2.533-5.623 5.623-5.623h8.747v-4.38A1.882 1.882 0 0 0 35 15H5.002a2.482 2.482 0 0 1-2.5-2.5A2.483 2.483 0 0 1 5.001 10h.623V8.75l-.623-.001zm26.873 0v1.25h.624c.357 0 .626.27.628.632v3.12h1.25v-3.129A1.893 1.893 0 0 0 32.5 8.748h-.624zm-17.548.005a4.4 4.4 0 0 1-3.703 3.705v1.297h12.499v-1.299a4.397 4.397 0 0 1-3.708-3.703h-5.088zm13.8 13.75a4.377 4.377 0 0 0-4.374 4.373 4.377 4.377 0 0 0 4.373 4.374h8.747a1.887 1.887 0 0 0 1.878-1.873v-5.002c0-1.028-.85-1.872-1.878-1.872h-8.747zm0 2.495c1.027 0 1.872.85 1.872 1.878a1.88 1.88 0 0 1-1.873 1.873 1.886 1.886 0 0 1-1.878-1.872c0-1.028.85-1.88 1.878-1.88z" fill="#4AB8E6"/></svg>