<svg width="70" height="70" viewBox="0 0 70 70" fill="none" xmlns="http://www.w3.org/2000/svg"><path d="M20.985 8.413c-9.893 9.894-10.888 24.895-3.884 35.786L1.799 59.501a6.16 6.16 0 0 0 0 8.7 6.16 6.16 0 0 0 8.7 0L25.801 52.9c10.889 7.003 25.889 6.01 35.784-3.884 11.217-11.217 11.223-29.378.002-40.6-11.22-11.219-29.378-11.22-40.602-.002zM7.6 65.301c-.8.8-2.1.8-2.9 0-.8-.8-.8-2.1 0-2.9l14.888-14.888a29.25 29.25 0 0 0 2.9 2.9L7.599 65.301zm51.086-19.186c-9.617 9.617-25.181 9.618-34.8 0-9.616-9.617-9.618-25.183 0-34.801 9.618-9.614 25.183-9.617 34.802.002 9.614 9.614 9.616 25.18-.002 34.799z" fill="#D5E4EA"/><path d="M26.783 14.215c-8.012 8.017-8.014 20.98.001 29 8.017 8.012 20.98 8.015 29 0 8.012-8.017 8.015-20.98 0-29-8.017-8.013-20.98-8.015-29 0zm26.101 26.1c-6.413 6.409-16.784 6.412-23.2 0-6.41-6.413-6.412-16.784 0-23.2 6.413-6.41 16.784-6.412 23.2 0 6.409 6.412 6.412 16.784 0 23.2z" fill="#D5E4EA"/><path d="M47.413 23.787l-8.077 8.077-4.703-4.702a2.05 2.05 0 1 0-2.9 2.9l6.152 6.152c.4.4.926.6 1.45.6.525 0 1.05-.2 1.45-.6l9.527-9.527a2.05 2.05 0 1 0-2.9-2.9z" fill="#D5E4EA"/></svg>