<svg width="70" height="70" viewBox="0 0 70 70" fill="none" xmlns="http://www.w3.org/2000/svg">
<path d="M20.9854 8.41345C11.0918 18.3069 10.0974 33.3084 17.1009 44.1991L1.79885 59.5009C-0.599618 61.8995 -0.599618 65.8025 1.79885 68.2012C4.19733 70.5996 8.10045 70.5998 10.4992 68.2012L25.8011 52.8993C36.6899 59.9016 51.6898 58.9099 61.5847 49.0148C72.8018 37.7979 72.8078 19.6367 61.5868 8.41551C50.3676 -2.80361 32.2088 -2.80539 20.9854 8.41345ZM7.59926 65.3011C6.79964 66.1009 5.49869 66.1008 4.6992 65.3011C3.89957 64.5015 3.89957 63.2006 4.6992 62.4009L19.5867 47.5133C20.0333 48.0273 20.4991 48.5285 20.9854 49.0147C21.4717 49.501 21.9727 49.9667 22.4868 50.4134L7.59926 65.3011ZM58.6846 46.1147C49.0678 55.7316 33.5036 55.7328 23.8855 46.1147C14.269 36.4983 14.2671 20.9319 23.8852 11.3139C33.5034 1.69954 49.0685 1.69749 58.6867 11.3156C68.3007 20.9298 68.3027 36.4967 58.6846 46.1147Z" fill="#D5E4EA"/>
<path d="M26.7833 14.2153C18.7714 22.2319 18.7687 35.1953 26.7841 43.2154C34.8007 51.2273 47.7641 51.23 55.7842 43.2146C63.7961 35.1979 63.7988 22.2345 55.7834 14.2145C47.7669 6.20246 34.8035 6.19987 26.7833 14.2153ZM52.8843 40.3145C46.4714 46.7237 36.0998 46.7271 29.6843 40.3153C23.2747 33.9021 23.2717 23.5308 29.6835 17.1153C36.0967 10.7057 46.468 10.7027 52.8835 17.1145C59.2926 23.5274 59.2961 33.899 52.8843 40.3145Z" fill="#D5E4EA"/>
<path d="M47.4125 23.7869L39.3356 31.8637L34.6335 27.1618C33.8328 26.3609 32.5343 26.3609 31.7335 27.1618C30.9326 27.9626 30.9326 29.261 31.7335 30.0619L37.8855 36.2139C38.2859 36.6143 38.8108 36.8146 39.3355 36.8146C39.8602 36.8146 40.3851 36.6145 40.7854 36.2139L50.3123 26.687C51.1132 25.8861 51.1132 24.5878 50.3123 23.7869C49.5117 22.9861 48.2132 22.9861 47.4125 23.7869Z" fill="#D5E4EA"/>
</svg>
