<svg width="243" height="55" viewBox="0 0 243 55" fill="none" xmlns="http://www.w3.org/2000/svg"><path d="M27.487 55c15.18 0 27.487-12.312 27.487-27.5S42.668 0 27.487 0C12.307 0 0 12.312 0 27.5S12.306 55 27.487 55z" fill="#E2EBEE"/><path d="M50.715 30.7l-3.575 2.066-5.143 2.971-2.882 1.665-24.723 14.28a27.578 27.578 0 0 1-7.265-5.709V5.523c0-1.29.803-2.3 1.856-2.711a2.869 2.869 0 0 1 2.505.191l1.72.995 20.32 11.737 8.47 4.892 3.354 1.937 5.364 3.1c1.94 1.118 1.94 3.917 0 5.037z" fill="#7ADBA3"/><path d="M47.136 32.766l-5.143 2.971-2.882 1.665-3.926-4.035H13.152l20.372-17.632 3.102-2.685A8.399 8.399 0 0 1 44.898 20l.45 2.564 1.788 10.202z" fill="#2C8DB6"/><path d="M36.353 30.785H25.695l-9.088 9.34c-2.467 2.536-6.727.356-6.116-3.13L13.471 20a8.399 8.399 0 0 1 8.272-6.95h14.61c4.895 0 8.864 3.97 8.864 8.868 0 4.897-3.969 8.867-8.864 8.867z" fill="#4AB8E6"/><path d="M26.759 21.076h-3.31v-3.311h-2.58v3.31h-3.31v2.582h3.31v3.312h2.58v-3.312h3.31v-2.581zm9.37-.505a1.571 1.571 0 1 0-.001-3.142 1.571 1.571 0 0 0 0 3.142zm0 6.463a1.571 1.571 0 1 0-.001-3.142 1.571 1.571 0 0 0 0 3.142zm3.23-3.231a1.571 1.571 0 1 0 0-3.143 1.571 1.571 0 0 0 0 3.143zm-6.461 0a1.571 1.571 0 1 0 0-3.143 1.571 1.571 0 0 0 0 3.143z" fill="#fff"/><path d="M72.768 48.19v-6.23h4.756v-.862h-5.82v7.093h1.064z" fill="#132539"/><path d="M81.246 44.25v3.94h.982v-5.268h-.911l-3.693 3.952v-3.952h-.982v5.269h.9l3.704-3.942zm7.801 3.94v-5.268H83.65v5.269h.981v-4.469h3.436v4.469h.981zm6.123-1.509c-.374.476-1.052.8-1.765.8-1.273 0-2.161-.607-2.22-1.651h4.791c.035-.193.058-.405.058-.638 0-.72-.268-1.297-.794-1.733-.526-.436-1.204-.659-2.01-.659-.982 0-1.74.254-2.279.77-.549.517-.817 1.176-.817 1.976 0 .831.291 1.49.887 1.986.596.497 1.38.75 2.35.75 1.063 0 1.87-.365 2.43-1.094l-.631-.507zm-2.01-3.1c1.087 0 1.776.547 1.835 1.479h-3.821c.152-.892.876-1.48 1.986-1.48zm4.947 6.636v-2.472c.408.355 1.028.537 1.846.537.888 0 1.612-.263 2.185-.8.561-.537.841-1.206.841-2.017 0-.79-.257-1.429-.783-1.925s-1.239-.74-2.126-.74c-.9 0-1.555.264-1.963.78v-.658h-.982v7.295h.982zm1.858-6.616c1.215 0 1.974.75 1.974 1.925 0 .578-.198 1.044-.584 1.408-.386.365-.888.548-1.484.548-.83 0-1.414-.274-1.764-.821v-1.966c.28-.598.97-1.094 1.858-1.094zm5.08 4.589v-3.768l2.149 2.431 2.057-2.431v3.769h.982v-5.27h-.842l-2.185 2.575-2.244-2.574h-.899v5.269h.982zm7.085-4.002c.596-.395 1.204-.587 1.811-.587 1.204 0 1.624.547 1.624 1.57-.385-.101-.852-.152-1.425-.152-1.823 0-2.91.527-2.91 1.632 0 .972.889 1.61 2.209 1.61.981 0 1.741-.364 2.126-.85v.78h.982v-3.253c0-1.368-.865-2.138-2.489-2.138-.9 0-1.869.294-2.43.75l.502.638zm1.542 3.304c-.841 0-1.402-.335-1.402-.872 0-.567.666-.85 1.998-.85.526 0 .959.05 1.297.151v.537c-.128.254-.35.497-.689.71a2.238 2.238 0 0 1-1.204.324zm5.214 2.725v-2.472c.409.355 1.029.537 1.846.537.888 0 1.613-.263 2.185-.8.561-.537.842-1.206.842-2.017 0-.79-.258-1.429-.783-1.925-.526-.496-1.239-.74-2.127-.74-.899 0-1.554.264-1.963.78v-.658h-.982v7.295h.982zm1.858-6.616c1.215 0 1.974.75 1.974 1.925 0 .578-.198 1.044-.584 1.408-.385.365-.887.548-1.483.548-.83 0-1.414-.274-1.765-.821v-1.966c.28-.598.97-1.094 1.858-1.094zm5.08 4.589v-1.914l.503-.406 2.734 2.32h1.308l-3.295-2.846 3.144-2.422h-1.321l-3.073 2.36v-2.36h-.982v5.269h.982zm9.581-1.509c-.374.476-1.052.8-1.765.8-1.274 0-2.161-.607-2.22-1.651h4.791c.035-.193.059-.405.059-.638 0-.72-.269-1.297-.795-1.733-.526-.436-1.204-.659-2.01-.659-.981 0-1.741.254-2.278.77-.549.517-.819 1.176-.819 1.976 0 .831.293 1.49.889 1.986.596.497 1.379.75 2.348.75 1.064 0 1.87-.365 2.431-1.094l-.631-.507zm-2.01-3.1c1.087 0 1.776.547 1.835 1.479h-3.821c.151-.892.876-1.48 1.986-1.48zm5.419.141v4.469h.98v-4.469h2.349v-.8h-5.655v.8h2.326zm7.83 5.746V48.19h5.001v1.276h.934V47.38h-.876v-4.458h-4.463v.486c0 1.996-.235 3.151-.854 3.972h-.677v2.087h.935zm4.077-5.736v3.648h-3.283c.479-.84.724-1.935.724-3.283v-.365h2.559zm7.987 4.458v-5.268h-4.534v1.084c0 3.08-.654 3.374-1.437 3.374v.81c.76.082 1.309-.12 1.753-.729.444-.608.666-1.783.666-3.485v-.244h2.571v4.459h.981zm3.847-5.268c-1.823 0-2.629.689-2.629 1.692 0 .81.62 1.429 1.554 1.58l-1.94 1.997h1.192l1.8-1.865h1.483v1.865h.982v-5.27h-2.442zm-1.589 1.712c0-.598.491-.902 1.473-.902h1.576v1.784h-1.6c-.888 0-1.449-.365-1.449-.882zm9.943 3.556v-4.468h3.446v-.8h-4.428v5.269h.982zm8.668-1.509c-.374.476-1.052.8-1.765.8-1.274 0-2.161-.607-2.219-1.651h4.79c.035-.193.058-.405.058-.638 0-.72-.268-1.297-.794-1.733-.526-.436-1.204-.659-2.01-.659-.982 0-1.741.254-2.279.77-.549.517-.817 1.176-.817 1.976 0 .831.292 1.49.887 1.986.596.497 1.38.75 2.349.75 1.064 0 1.87-.365 2.431-1.094l-.631-.507zm-2.01-3.1c1.087 0 1.776.547 1.835 1.479h-3.821c.152-.892.876-1.48 1.986-1.48zm8.569.669v3.94h.981v-5.268h-.911l-3.692 3.952v-3.952h-.982v5.269h.9l3.704-3.942zm-3.669-3.598c.012.932.794 1.51 1.963 1.51 1.087 0 1.916-.588 1.928-1.51h-.923c0 .497-.386.831-1.005.831-.654 0-1.029-.334-1.04-.83h-.923zm7.053 7.538v-3.768l2.15 2.431 2.057-2.431v3.769h.981v-5.27h-.841l-2.185 2.575-2.244-2.574h-.899v5.269h.981zm11.315-1.509c-.374.476-1.052.8-1.764.8-1.274 0-2.161-.607-2.22-1.651h4.79c.035-.193.059-.405.059-.638 0-.72-.269-1.297-.795-1.733-.526-.436-1.203-.659-2.009-.659-.982 0-1.741.254-2.279.77-.549.517-.818 1.176-.818 1.976 0 .831.292 1.49.888 1.986.596.497 1.379.75 2.349.75 1.063 0 1.869-.365 2.43-1.094l-.631-.507zm-2.009-3.1c1.087 0 1.776.547 1.834 1.479h-3.82c.151-.892.876-1.48 1.986-1.48zm4.947 6.636v-2.472c.408.355 1.027.537 1.846.537.887 0 1.612-.263 2.184-.8.561-.537.842-1.206.842-2.017 0-.79-.257-1.429-.783-1.925s-1.239-.74-2.127-.74c-.9 0-1.554.264-1.962.78v-.658h-.982v7.295h.982zm1.857-6.616c1.216 0 1.975.75 1.975 1.925 0 .578-.198 1.044-.584 1.408-.386.365-.888.548-1.484.548-.83 0-1.415-.274-1.764-.821v-1.966c.279-.598.969-1.094 1.857-1.094zm3.76 1.945c0 .8.304 1.45.9 1.966.596.517 1.367.77 2.313.77.946 0 1.729-.253 2.337-.77.596-.517.9-1.165.9-1.966 0-.8-.304-1.459-.9-1.976-.596-.516-1.379-.77-2.337-.77-.946 0-1.717.254-2.313.77a2.504 2.504 0 0 0-.9 1.976zm1.04 0c0-.577.21-1.053.619-1.408.409-.355.923-.537 1.554-.537s1.157.182 1.577.537c.41.365.62.83.62 1.408s-.199 1.044-.608 1.399c-.409.354-.946.537-1.589.537-.642 0-1.156-.183-1.566-.547-.409-.365-.607-.831-.607-1.389zm9.21 2.644c1.601 0 2.5-.526 2.5-1.509 0-.679-.327-1.094-.981-1.267.526-.273.783-.658.783-1.145 0-.972-.794-1.347-2.489-1.347h-2.524v5.269h2.711zm.011-2.3c.971 0 1.45.254 1.45.75 0 .507-.526.76-1.566.76h-1.625v-1.51h1.741zm-.233-2.178c.981 0 1.484.142 1.484.68 0 .475-.432.729-1.146.729h-1.846v-1.409h1.508zm14.323-2.614h-.992V46.6l-4.826-5.502h-.806v7.093h.992v-5.462l4.815 5.462h.817v-7.093zm.772 2.138c0 .507.199.922.595 1.246.386.325.889.487 1.485.487.619 0 1.122-.163 1.507-.487a1.56 1.56 0 0 0 .584-1.246c0-.517-.198-.932-.584-1.256-.385-.315-.888-.477-1.507-.477-.608 0-1.11.162-1.496.477-.385.324-.584.74-.584 1.256zm1.262-.73a1.26 1.26 0 0 1 .818-.273c.654 0 1.169.405 1.169 1.003 0 .598-.503.993-1.169.993a1.26 1.26 0 0 1-.818-.274.896.896 0 0 1-.339-.72.93.93 0 0 1 .339-.729zm2.582 3.83v-.79h-3.517v.79h3.517zm1.546-3.353l2.092-.841v6.049H243v-7.133h-.666l-2.805 1.165.374.76z" fill="#132539"/><path d="M88.484 12.351v17.762h3.042V7.173h-2.608L74.746 24.936V7.174h-3.041v22.939h2.574L88.484 12.35zm10.401 17.762V15.66h9.86v-2.588H96.077v17.04h2.808zm14.786 6.554V28.67c1.17 1.147 2.942 1.737 5.281 1.737 2.541 0 4.613-.852 6.25-2.59 1.605-1.736 2.407-3.899 2.407-6.52 0-2.556-.735-4.62-2.239-6.227-1.505-1.605-3.543-2.392-6.083-2.392-2.574 0-4.446.852-5.616 2.523v-2.13h-2.807v23.595h2.807zm5.315-21.4c3.476 0 5.648 2.426 5.648 6.227 0 1.868-.568 3.375-1.67 4.555-1.104 1.18-2.541 1.77-4.245 1.77-2.374 0-4.045-.885-5.048-2.655v-6.357c.803-1.933 2.775-3.54 5.315-3.54zm10.754 6.293c0 2.589.869 4.686 2.574 6.357 1.704 1.671 3.91 2.49 6.617 2.49 2.708 0 4.947-.819 6.686-2.49 1.704-1.671 2.573-3.768 2.573-6.357 0-2.589-.869-4.72-2.573-6.39-1.705-1.672-3.945-2.49-6.686-2.49-2.707 0-4.913.818-6.617 2.49-1.705 1.67-2.574 3.801-2.574 6.39zm2.975 0c0-1.868.601-3.408 1.772-4.555 1.169-1.147 2.64-1.737 4.444-1.737 1.806 0 3.31.59 4.513 1.737 1.17 1.18 1.771 2.687 1.771 4.555 0 1.868-.568 3.375-1.737 4.522-1.171 1.147-2.708 1.737-4.547 1.737-1.838 0-3.308-.59-4.478-1.77-1.17-1.18-1.738-2.687-1.738-4.49z" fill="#4AB8E6"/><path d="M154.423 30.75V12.462l8.235 10.845h.737l8-10.845V30.75h3.046V7.174h-2.745l-8.603 11.855-8.904-11.855h-2.812V30.75h3.046zm25.873-13.303c1.708-1.314 3.449-1.954 5.189-1.954 3.448 0 4.653 1.819 4.653 5.22-1.105-.336-2.444-.505-4.084-.505-5.222 0-8.335 1.752-8.335 5.423 0 3.233 2.544 5.355 6.327 5.355 2.811 0 4.987-1.213 6.092-2.83v2.594h2.812V19.94c0-4.547-2.477-7.107-7.131-7.107-2.577 0-5.355.977-6.962 2.493l1.439 2.122zm4.419 10.98c-2.41 0-4.017-1.112-4.017-2.897 0-1.886 1.908-2.83 5.724-2.83 1.506 0 2.745.169 3.716.506v1.785c-.369.842-1.004 1.65-1.975 2.358-.971.707-2.142 1.077-3.448 1.077zm14.935 2.323V15.897h9.876v-2.66h-12.687V30.75h2.811zm12.748-13.303c1.707-1.314 3.448-1.954 5.189-1.954 3.447 0 4.653 1.819 4.653 5.22-1.105-.336-2.444-.505-4.084-.505-5.223 0-8.335 1.752-8.335 5.423 0 3.233 2.543 5.355 6.326 5.355 2.812 0 4.988-1.213 6.093-2.83v2.594h2.811V19.94c0-4.547-2.477-7.107-7.129-7.107-2.578 0-5.357.977-6.963 2.493l1.439 2.122zm4.419 10.98c-2.411 0-4.018-1.112-4.018-2.897 0-1.886 1.909-2.83 5.725-2.83 1.507 0 2.745.169 3.716.506v1.785c-.368.842-1.005 1.65-1.975 2.358-.971.707-2.143 1.077-3.448 1.077zm18.417 2.66c2.276 0 4.15-.505 5.59-1.55 1.44-1.01 2.176-2.39 2.176-4.176 0-1.852-.703-3.03-2.711-4.008 1.372-.842 2.075-2.121 2.075-3.772 0-2.93-2.578-4.782-6.963-4.782-3.648 0-6.326 1.684-7.498 3.704l2.075 1.381c1.306-1.65 3.046-2.458 5.155-2.458 2.511 0 4.251.943 4.251 2.593 0 1.516-1.338 2.526-3.045 2.526h-3.884v2.56h4.084c2.31 0 3.482.774 3.482 2.324 0 1.886-1.975 3.031-4.754 3.031-2.577 0-4.72-1.145-5.69-2.93l-2.209 1.55c1.639 2.66 4.284 4.007 7.866 4.007z" fill="#132539"/></svg>